<svg width="68" height="68" viewBox="0 0 68 68" fill="none" xmlns="http://www.w3.org/2000/svg">
<path d="M64.8003 37.053L54.0189 10.1012C53.6298 9.1263 52.9571 8.29054 52.0879 7.70199C51.2188 7.11344 50.193 6.79917 49.1433 6.79981H40.8677L42.1597 20.6208H51.3397L33.9997 34.996L16.6597 20.6208H25.8397L27.1317 6.79981H18.8561C16.7073 6.79981 14.7761 8.10541 13.9805 10.1012L3.19909 37.053C2.22025 39.5033 1.93099 42.1748 2.36269 44.7778L4.36869 56.8104C4.57238 58.0367 5.20462 59.1509 6.15286 59.9547C7.1011 60.7585 8.30381 61.1997 9.54689 61.1998H58.4491C61.0161 61.1998 63.2057 59.3434 63.6273 56.8104L65.6333 44.7778C66.0714 42.1753 65.7831 39.5023 64.8003 37.053ZM57.6603 51.8328C57.5418 52.5504 57.172 53.2025 56.6171 53.6728C56.0622 54.143 55.3582 54.4007 54.6309 54.3998H13.3685C12.6412 54.4007 11.9372 54.143 11.3823 53.6728C10.8274 53.2025 10.4576 52.5504 10.3391 51.8328L9.09809 44.3766C9.02387 43.9365 9.04661 43.4854 9.16472 43.055C9.28284 42.6246 9.49349 42.2251 9.78196 41.8845C10.0704 41.5439 10.4298 41.2704 10.8349 41.083C11.24 40.8957 11.6811 40.799 12.1275 40.7998H55.8753C57.7725 40.7998 59.2175 42.5032 58.9047 44.3766L57.6603 51.8328Z" fill="#95A5A5"/>
</svg>
