<svg width="99" height="99" viewBox="0 0 99 99" fill="none" xmlns="http://www.w3.org/2000/svg">
<path d="M49.6381 98.0921C76.6872 98.0921 98.6149 76.1334 98.6149 49.046C98.6149 21.9587 76.6872 0 49.6381 0C22.589 0 0.661377 21.9587 0.661377 49.046C0.661377 76.1334 22.589 98.0921 49.6381 98.0921Z" fill="#3F3D56"/>
<path d="M77.4925 34.2281L62.8279 49.1686C62.8021 49.1934 62.7816 49.2231 62.7676 49.256C62.7535 49.2889 62.7463 49.3242 62.7463 49.36C62.7463 49.3958 62.7535 49.4311 62.7676 49.464C62.7816 49.4969 62.8021 49.5266 62.8279 49.5513L73.1171 60.5077C73.3633 60.7561 73.5307 61.0717 73.5983 61.415C73.666 61.7583 73.6309 62.114 73.4974 62.4373C73.3639 62.7607 73.1381 63.0374 72.8481 63.2327C72.5582 63.428 72.2171 63.5332 71.8677 63.5351C71.3975 63.5341 70.9467 63.3471 70.6134 63.015L60.3781 52.0978C60.3258 52.0463 60.2554 52.0174 60.1821 52.0174C60.1087 52.0174 60.0383 52.0463 59.9861 52.0978L57.4922 54.6198C56.4711 55.6655 55.2516 56.4963 53.9053 57.0634C52.5591 57.6304 51.1132 57.9223 49.6528 57.9219C48.1646 57.915 46.6928 57.6112 45.3232 57.0282C43.9536 56.4453 42.7138 55.5948 41.6762 54.5266L39.2802 52.0733C39.228 52.0218 39.1576 51.9929 39.0842 51.9929C39.0109 51.9929 38.9405 52.0218 38.8883 52.0733L28.6774 62.9659C28.5131 63.1307 28.318 63.2615 28.1032 63.3507C27.8884 63.4399 27.6581 63.4859 27.4256 63.4859C27.193 63.4859 26.9628 63.4399 26.748 63.3507C26.5332 63.2615 26.338 63.1307 26.1737 62.9659C26.0086 62.8017 25.8774 62.6064 25.788 62.3912C25.6985 62.1761 25.6525 61.9453 25.6525 61.7123C25.6525 61.4792 25.6985 61.2484 25.788 61.0333C25.8774 60.8181 26.0086 60.6228 26.1737 60.4587L36.4237 49.5268C36.4693 49.4735 36.4943 49.4056 36.4943 49.3354C36.4943 49.2653 36.4693 49.1974 36.4237 49.1441L21.7592 34.2036C21.7215 34.1656 21.6733 34.1398 21.6209 34.1293C21.5685 34.1188 21.5142 34.1241 21.4648 34.1446C21.4154 34.1651 21.3732 34.1999 21.3437 34.2445C21.3141 34.289 21.2984 34.3414 21.2986 34.395V64.2907C21.3025 65.4463 21.7626 66.5536 22.5786 67.3707C23.3947 68.1879 24.5003 68.6487 25.6544 68.6526H73.6071C74.7611 68.6487 75.8668 68.1879 76.6828 67.3707C77.4988 66.5536 77.959 65.4463 77.9629 64.2907V34.4195C77.9653 34.3639 77.9505 34.3088 77.9204 34.2619C77.8904 34.2151 77.8466 34.1787 77.7951 34.1577C77.7435 34.1367 77.6868 34.1323 77.6326 34.1449C77.5784 34.1575 77.5295 34.1866 77.4925 34.2281Z" fill="#00A8C4"/>
<path d="M49.6384 54.3748C50.6325 54.3845 51.6184 54.1941 52.5375 53.8148C53.4566 53.4355 54.2902 52.8751 54.9888 52.1668L76.3463 30.3964C75.5882 29.7674 74.636 29.4207 73.6515 29.415H25.6645C24.6796 29.4183 23.7266 29.7653 22.9697 30.3964L44.3321 52.1668C45.0245 52.8711 45.8508 53.4293 46.7622 53.8085C47.6735 54.1877 48.6515 54.3803 49.6384 54.3748Z" fill="#00A8C4"/>
<path opacity="0.1" d="M49.0209 0.00488895C39.3282 3.69772e-05 29.8519 2.87419 21.7907 8.26373C13.7296 13.6533 7.44579 21.316 3.73433 30.2826C0.0228794 39.2492 -0.949474 49.1167 0.94028 58.6368C2.83003 68.1569 7.49698 76.9018 14.3507 83.7652C21.2045 90.6287 29.937 95.3022 39.4437 97.1946C48.9503 99.0871 58.8039 98.1133 67.7578 94.3966C76.7117 90.6799 84.3636 84.3872 89.7456 76.3147C95.1275 68.2421 97.9976 58.7524 97.9927 49.046C97.9862 36.0415 92.8246 23.5715 83.642 14.3759C74.4594 5.1803 62.007 0.0113896 49.0209 0.00488895ZM49.0209 91.5713C40.6221 91.5713 32.4118 89.0772 25.4285 84.4045C18.4451 79.7317 13.0023 73.0902 9.7882 65.3197C6.57411 57.5493 5.73317 48.9988 7.37169 40.7498C9.01022 32.5007 13.0546 24.9234 18.9935 18.9762C24.9323 13.0289 32.4989 8.97877 40.7363 7.33792C48.9737 5.69708 57.5121 6.53921 65.2716 9.75784C73.0311 12.9765 79.6632 18.4271 84.3293 25.4203C88.9955 32.4135 91.486 40.6353 91.486 49.046C91.486 60.3244 87.012 71.1409 79.0482 79.1159C71.0845 87.0909 60.2833 91.5713 49.0209 91.5713Z" fill="black"/>
</svg>
