<svg width="118" height="179" viewBox="0 0 118 179" fill="none" xmlns="http://www.w3.org/2000/svg">
<circle cx="59" cy="59" r="59" fill="#312C51"/>
<path d="M19.08 169L15.576 162.64H14.592V169H10.488V152.152H17.376C18.704 152.152 19.832 152.384 20.76 152.848C21.704 153.312 22.408 153.952 22.872 154.768C23.336 155.568 23.568 156.464 23.568 157.456C23.568 158.576 23.248 159.576 22.608 160.456C21.984 161.336 21.056 161.96 19.824 162.328L23.712 169H19.08ZM14.592 159.736H17.136C17.888 159.736 18.448 159.552 18.816 159.184C19.2 158.816 19.392 158.296 19.392 157.624C19.392 156.984 19.2 156.48 18.816 156.112C18.448 155.744 17.888 155.56 17.136 155.56H14.592V159.736ZM38.7682 162.088C38.7682 162.472 38.7443 162.872 38.6963 163.288H29.4083C29.4723 164.12 29.7363 164.76 30.2003 165.208C30.6803 165.64 31.2643 165.856 31.9523 165.856C32.9763 165.856 33.6883 165.424 34.0883 164.56H38.4563C38.2323 165.44 37.8243 166.232 37.2323 166.936C36.6563 167.64 35.9283 168.192 35.0483 168.592C34.1683 168.992 33.1843 169.192 32.0963 169.192C30.7843 169.192 29.6163 168.912 28.5923 168.352C27.5683 167.792 26.7683 166.992 26.1923 165.952C25.6163 164.912 25.3283 163.696 25.3283 162.304C25.3283 160.912 25.6083 159.696 26.1683 158.656C26.7443 157.616 27.5443 156.816 28.5683 156.256C29.5923 155.696 30.7683 155.416 32.0963 155.416C33.3923 155.416 34.5443 155.688 35.5523 156.232C36.5603 156.776 37.3443 157.552 37.9043 158.56C38.4803 159.568 38.7682 160.744 38.7682 162.088ZM34.5683 161.008C34.5683 160.304 34.3283 159.744 33.8483 159.328C33.3683 158.912 32.7683 158.704 32.0483 158.704C31.3603 158.704 30.7763 158.904 30.2963 159.304C29.8323 159.704 29.5443 160.272 29.4323 161.008H34.5683ZM45.0373 151.24V169H40.9333V151.24H45.0373ZM50.0754 154.216C49.3554 154.216 48.7634 154.008 48.2994 153.592C47.8514 153.16 47.6274 152.632 47.6274 152.008C47.6274 151.368 47.8514 150.84 48.2994 150.424C48.7634 149.992 49.3554 149.776 50.0754 149.776C50.7794 149.776 51.3554 149.992 51.8034 150.424C52.2674 150.84 52.4994 151.368 52.4994 152.008C52.4994 152.632 52.2674 153.16 51.8034 153.592C51.3554 154.008 50.7794 154.216 50.0754 154.216ZM52.1154 155.608V169H48.0114V155.608H52.1154ZM54.2736 162.28C54.2736 160.904 54.5296 159.696 55.0416 158.656C55.5696 157.616 56.2816 156.816 57.1776 156.256C58.0736 155.696 59.0736 155.416 60.1776 155.416C61.1216 155.416 61.9456 155.608 62.6496 155.992C63.3696 156.376 63.9216 156.88 64.3056 157.504V155.608H68.4096V169H64.3056V167.104C63.9056 167.728 63.3456 168.232 62.6256 168.616C61.9216 169 61.0976 169.192 60.1536 169.192C59.0656 169.192 58.0736 168.912 57.1776 168.352C56.2816 167.776 55.5696 166.968 55.0416 165.928C54.5296 164.872 54.2736 163.656 54.2736 162.28ZM64.3056 162.304C64.3056 161.28 64.0176 160.472 63.4416 159.88C62.8816 159.288 62.1936 158.992 61.3776 158.992C60.5616 158.992 59.8656 159.288 59.2896 159.88C58.7296 160.456 58.4496 161.256 58.4496 162.28C58.4496 163.304 58.7296 164.12 59.2896 164.728C59.8656 165.32 60.5616 165.616 61.3776 165.616C62.1936 165.616 62.8816 165.32 63.4416 164.728C64.0176 164.136 64.3056 163.328 64.3056 162.304ZM75.4826 157.504C75.8666 156.88 76.4186 156.376 77.1386 155.992C77.8586 155.608 78.6826 155.416 79.6106 155.416C80.7146 155.416 81.7146 155.696 82.6106 156.256C83.5066 156.816 84.2106 157.616 84.7226 158.656C85.2506 159.696 85.5146 160.904 85.5146 162.28C85.5146 163.656 85.2506 164.872 84.7226 165.928C84.2106 166.968 83.5066 167.776 82.6106 168.352C81.7146 168.912 80.7146 169.192 79.6106 169.192C78.6666 169.192 77.8426 169.008 77.1386 168.64C76.4346 168.256 75.8826 167.752 75.4826 167.128V169H71.3786V151.24H75.4826V157.504ZM81.3386 162.28C81.3386 161.256 81.0506 160.456 80.4746 159.88C79.9146 159.288 79.2186 158.992 78.3866 158.992C77.5706 158.992 76.8746 159.288 76.2986 159.88C75.7386 160.472 75.4586 161.28 75.4586 162.304C75.4586 163.328 75.7386 164.136 76.2986 164.728C76.8746 165.32 77.5706 165.616 78.3866 165.616C79.2026 165.616 79.8986 165.32 80.4746 164.728C81.0506 164.12 81.3386 163.304 81.3386 162.28ZM91.7717 151.24V169H87.6677V151.24H91.7717ZM107.37 162.088C107.37 162.472 107.346 162.872 107.298 163.288H98.0098C98.0738 164.12 98.3378 164.76 98.8018 165.208C99.2818 165.64 99.8658 165.856 100.554 165.856C101.578 165.856 102.29 165.424 102.69 164.56H107.058C106.834 165.44 106.426 166.232 105.834 166.936C105.258 167.64 104.53 168.192 103.65 168.592C102.77 168.992 101.786 169.192 100.698 169.192C99.3858 169.192 98.2178 168.912 97.1938 168.352C96.1698 167.792 95.3698 166.992 94.7938 165.952C94.2178 164.912 93.9298 163.696 93.9298 162.304C93.9298 160.912 94.2098 159.696 94.7698 158.656C95.3458 157.616 96.1458 156.816 97.1698 156.256C98.1938 155.696 99.3698 155.416 100.698 155.416C101.994 155.416 103.146 155.688 104.154 156.232C105.162 156.776 105.946 157.552 106.506 158.56C107.082 159.568 107.37 160.744 107.37 162.088ZM103.17 161.008C103.17 160.304 102.93 159.744 102.45 159.328C101.97 158.912 101.37 158.704 100.65 158.704C99.9618 158.704 99.3778 158.904 98.8978 159.304C98.4338 159.704 98.1458 160.272 98.0338 161.008H103.17Z" fill="#444444"/>
<path d="M29 59C29 75.0547 42.4274 88.0625 59 88.0625C75.5726 88.0625 89 75.0547 89 59C89 42.9453 75.5726 29.9375 59 29.9375C42.4274 29.9375 29 42.9453 29 59ZM53.1935 53.375C53.1935 55.4492 51.4637 57.125 49.3226 57.125C47.1815 57.125 45.4516 55.4492 45.4516 53.375C45.4516 51.3008 47.1815 49.625 49.3226 49.625C51.4637 49.625 53.1935 51.3008 53.1935 53.375ZM72.3669 55.3086C70.5766 53.7617 66.7782 53.7617 64.9879 55.3086L63.8387 56.3047C62.8347 57.1719 61.2258 56.3516 61.4436 55.0391C61.9274 52.0859 65.5806 50.1055 68.6895 50.1055C71.7984 50.1055 75.4516 52.0859 75.9355 55.0391C76.1411 56.3398 74.5564 57.1836 73.5403 56.3047L72.3669 55.3086ZM48.0887 67.1797C50.7984 70.332 54.7661 72.125 59 72.125C63.2339 72.125 67.2016 70.3203 69.9113 67.1797C71.5565 65.2812 74.5202 67.6719 72.8871 69.582C69.4395 73.5781 64.3831 75.875 59 75.875C53.6169 75.875 48.5605 73.5781 45.1129 69.5703C43.4798 67.6602 46.4677 65.2695 48.0887 67.1797Z" fill="white"/>
</svg>
