<svg width="68" height="69" viewBox="0 0 68 69" fill="none" xmlns="http://www.w3.org/2000/svg">
<rect width="68" height="68.271" rx="8" fill="#EEF2FF"/>
<path d="M51.6624 32.4198C51.6147 32.0989 51.5524 31.8954 51.5524 31.8954L51.2095 32.3281C51.1501 31.5374 51.01 30.7547 50.7915 29.9924C50.5179 29.0372 50.1551 28.1097 49.708 27.2223C49.4353 26.6284 49.1036 26.0633 48.718 25.5356C48.5182 25.2239 48.3459 24.9929 48.3129 24.9453C47.6492 23.8654 46.9067 23.2091 46.023 21.9734C45.4632 21.0245 45.0811 19.9814 44.8955 18.8953C44.648 19.5469 44.462 20.2202 44.34 20.9064C43.4545 20.0099 42.6662 19.3554 42.1987 18.9264C39.8759 16.7576 40.1582 15.6448 40.1582 15.6448C40.1582 15.6448 35.8242 20.4756 37.6979 25.5026C38.3472 27.2139 39.4686 28.7059 40.9319 29.8054C42.745 31.2959 44.6939 32.4674 45.715 35.4906C44.8954 33.9024 43.6458 32.5766 42.1089 31.6644C42.5727 32.7681 42.8055 33.9231 42.789 35.1184C42.7883 36.1949 42.5754 37.2607 42.1625 38.2548C41.7496 39.249 41.1448 40.152 40.3827 40.9122C39.6206 41.6725 38.7161 42.275 37.721 42.6855C36.7258 43.0959 35.6595 43.3062 34.583 43.3043C33.9754 43.3078 33.3694 43.2407 32.7772 43.1044C32.0711 42.9706 31.3877 42.7367 30.7477 42.4096C29.7854 41.8382 28.9525 41.0727 28.302 40.1619V40.1491C28.3462 40.1686 28.3923 40.1833 28.4395 40.1931C28.7824 40.3159 29.1215 40.4094 29.479 40.4736C30.8669 40.7645 32.3118 40.5953 33.5949 39.9914C34.8929 39.2654 35.683 38.7356 36.3155 38.9391C36.9535 39.1389 37.4302 38.5358 36.9994 37.9033C36.6203 37.4124 36.1141 37.0346 35.5356 36.811C34.9571 36.5874 34.3284 36.5264 33.7177 36.6346C32.4142 36.8198 31.2244 37.7328 29.5377 36.8491C29.4149 36.7904 29.3232 36.7281 29.215 36.6639C29.105 36.5869 29.5854 36.7574 29.4607 36.6804C29.0882 36.4979 28.7314 36.2851 28.3937 36.0443C28.3772 36.0278 28.6595 36.1231 28.6247 36.1048C28.1835 35.8056 27.8048 35.4233 27.51 34.9791C27.3641 34.7066 27.2816 34.4045 27.2689 34.0956C27.2562 33.7867 27.3136 33.4789 27.4367 33.1953C27.5949 32.9111 27.8387 32.684 28.1334 32.5463L28.4854 32.7296C28.4854 32.7296 28.3772 32.5463 28.3295 32.4528C28.3479 32.4381 28.3644 32.4528 28.3937 32.4381C28.5807 32.5151 28.9969 32.7296 29.2279 32.8708C29.3827 32.9519 29.5159 33.0688 29.6165 33.2118C29.6165 33.2118 29.6954 33.1806 29.633 33.0138C29.5577 32.8111 29.4145 32.6408 29.2279 32.5316H29.2609C29.4314 32.6251 29.5872 32.7186 29.7394 32.8378C29.8787 32.4968 29.9575 32.1631 29.9447 31.8056C29.9556 31.611 29.9289 31.4162 29.8659 31.2318C29.8017 31.1089 29.897 31.0613 30.0034 31.1859C29.9861 31.089 29.9546 30.995 29.9099 30.9073C29.9099 30.9073 29.9722 30.8138 30.0034 30.7936C30.0822 30.7203 30.1574 30.6433 30.2527 30.5974C30.7899 30.2583 31.3509 29.9613 31.9394 29.7284C32.26 29.6028 32.575 29.4633 32.8835 29.3104C33.0064 29.2334 33.1164 29.1564 33.2245 29.0611C33.6279 28.7219 33.8919 28.2581 33.9817 27.7448C34 27.6714 34 27.6091 34 27.5486V27.4221C33.9377 27.1581 33.4885 26.9729 31.1529 26.7401C30.7495 26.6785 30.3741 26.4963 30.0761 26.2176C29.778 25.9388 29.5712 25.5765 29.4827 25.1781V25.1909C29.4482 25.2789 29.417 25.3682 29.3892 25.4586C29.4185 25.3614 29.4497 25.2863 29.4827 25.1909V25.1781C29.9297 24.0131 30.7305 23.0174 31.7725 22.3309C31.8294 22.2851 31.5415 22.3438 31.602 22.2998C31.789 22.2063 31.9889 22.1109 32.2052 22.0339C32.3134 22.0009 31.756 21.7883 31.261 21.8323C30.9632 21.8534 30.6705 21.9214 30.3939 22.0339C30.5167 21.9441 30.8559 21.8176 30.7789 21.8176C30.1503 21.9284 29.5475 22.154 29.0005 22.4831C29.0005 22.4226 29.0189 22.3731 29.0335 22.3309C28.5989 22.5137 28.2197 22.807 27.9335 23.1816V22.9763C27.7406 23.1336 27.5598 23.3052 27.3927 23.4896H27.378C26.0909 22.9913 24.6875 22.8742 23.3355 23.1523L23.3209 23.1358H23.3355C23.0539 22.911 22.8138 22.6386 22.626 22.3309L22.6077 22.3438L22.5802 22.3144C22.483 22.1898 22.4097 22.0358 22.3107 21.8634C22.2374 21.7534 22.175 21.6141 22.098 21.4784C22.098 21.4784 22.098 21.4638 22.0834 21.4638C22.065 21.4638 22.0357 21.6049 22.0229 21.5536C21.7845 20.9388 21.6728 20.2822 21.6947 19.6231H21.68C21.2918 19.8796 21.0022 20.2603 20.8587 20.7029C20.7835 20.8606 20.7359 20.9376 20.69 21.0311V20.9798L20.734 20.7506C20.723 20.7671 20.723 20.7818 20.7029 20.7964C20.5933 20.9245 20.5009 21.0662 20.4279 21.2181C20.3475 21.3586 20.2842 21.5082 20.239 21.6636V21.5866C20.239 21.5243 20.2555 21.4308 20.239 21.4638L20.2225 21.5059C19.7225 22.6089 19.409 23.7873 19.2949 24.9929C19.2655 25.2093 19.2655 25.4109 19.2655 25.6108V25.6438C18.9117 26.0298 18.5961 26.4491 18.3232 26.8959C17.4239 28.4135 16.7554 30.0565 16.3395 31.7708C16.6347 31.1218 16.9885 30.4856 17.4084 29.8989C16.608 31.9141 16.198 34.063 16.2002 36.2313C16.3395 35.5969 16.51 34.9773 16.7099 34.3576C16.5876 36.9197 17.0824 39.4736 18.1527 41.8046C19.5886 45.0302 21.9809 47.7367 25.0057 49.5578C26.2274 50.394 27.5679 51.0417 28.9822 51.4791C29.1692 51.5396 29.3727 51.6148 29.556 51.6789C29.4937 51.6459 29.4479 51.6148 29.3874 51.6019C31.0641 52.1017 32.8041 52.3567 34.5537 52.3591C40.7632 52.3591 42.8055 49.9904 43.0054 49.7594C43.2987 49.4826 43.5609 49.1526 43.7314 48.7676C43.856 48.7236 43.9642 48.6759 44.0889 48.6136L44.164 48.5843C44.2575 48.5366 44.3015 48.5219 44.3015 48.5219C45.242 48.0813 46.1264 47.5298 46.936 46.8793C48.1386 46.0069 48.9986 44.7417 49.367 43.3024C49.5962 42.7781 49.5962 42.2024 49.411 41.6634C49.5027 41.5094 49.5834 41.3683 49.5962 41.3371C50.9309 39.1983 51.6882 36.75 51.7944 34.2311V34.0184C51.798 33.4827 51.7538 32.9477 51.6624 32.4198Z" fill="#312C51"/>
</svg>
