<svg width="68" height="69" viewBox="0 0 68 69" fill="none" xmlns="http://www.w3.org/2000/svg">
<rect width="68" height="68.271" rx="8" fill="#EEF2FF"/>
<path d="M52.0469 13.375H15.9531C14.6641 13.375 13.375 14.6641 13.375 15.9531V44.9574C13.375 46.2464 14.6641 47.5355 15.9531 47.5355H28.8438V50.1136C28.8438 51.9039 26.5214 52.6917 23.6875 52.6917V54.625H44.3125V52.6911C41.4779 52.6911 39.1562 51.9032 39.1562 50.1129V47.5348H52.0469C53.3359 47.5348 54.625 46.2458 54.625 44.9567V15.9531C54.625 14.6641 53.3359 13.375 52.0469 13.375ZM53.25 44.9574C53.25 45.4861 52.5749 46.1605 52.0469 46.1605H15.9531C15.4244 46.1605 14.75 45.4861 14.75 44.9574V42.3792H53.25V44.9574Z" fill="#312C51"/>
<path d="M34.0001 45.6022C34.3563 45.6022 34.645 45.3135 34.645 44.9574C34.645 44.6012 34.3563 44.3125 34.0001 44.3125C33.6439 44.3125 33.3552 44.6012 33.3552 44.9574C33.3552 45.3135 33.6439 45.6022 34.0001 45.6022Z" fill="#312C51"/>
</svg>
