<svg width="168" height="179" viewBox="0 0 168 179" fill="none" xmlns="http://www.w3.org/2000/svg">
<circle cx="84" cy="59" r="59" fill="#312C51"/>
<path d="M0.936 165.712C1.48 165.28 1.728 165.08 1.68 165.112C3.248 163.816 4.48 162.752 5.376 161.92C6.288 161.088 7.056 160.216 7.68 159.304C8.304 158.392 8.616 157.504 8.616 156.64C8.616 155.984 8.464 155.472 8.16 155.104C7.856 154.736 7.4 154.552 6.792 154.552C6.184 154.552 5.704 154.784 5.352 155.248C5.016 155.696 4.848 156.336 4.848 157.168H0.888C0.92 155.808 1.208 154.672 1.752 153.76C2.312 152.848 3.04 152.176 3.936 151.744C4.848 151.312 5.856 151.096 6.96 151.096C8.864 151.096 10.296 151.584 11.256 152.56C12.232 153.536 12.72 154.808 12.72 156.376C12.72 158.088 12.136 159.68 10.968 161.152C9.8 162.608 8.312 164.032 6.504 165.424H12.984V168.76H0.936V165.712ZM14.8869 165.88V162.568L22.4709 151.72H27.0549V162.328H29.0229V165.88H27.0549V169H22.9509V165.88H14.8869ZM23.2389 156.232L19.2069 162.328H23.2389V156.232ZM45.6711 146.2L39.2391 173.488H35.2791L41.7111 146.2H45.6711ZM63.264 154.552L57.24 169H53.04L59.136 155.008H51.672V151.504H63.264V154.552ZM76.5137 169.168C75.2817 169.168 74.1777 168.968 73.2017 168.568C72.2257 168.168 71.4417 167.576 70.8497 166.792C70.2737 166.008 69.9697 165.064 69.9377 163.96H74.3057C74.3697 164.584 74.5857 165.064 74.9537 165.4C75.3217 165.72 75.8017 165.88 76.3937 165.88C77.0017 165.88 77.4817 165.744 77.8337 165.472C78.1857 165.184 78.3617 164.792 78.3617 164.296C78.3617 163.88 78.2177 163.536 77.9297 163.264C77.6577 162.992 77.3137 162.768 76.8977 162.592C76.4977 162.416 75.9217 162.216 75.1697 161.992C74.0817 161.656 73.1937 161.32 72.5057 160.984C71.8177 160.648 71.2257 160.152 70.7297 159.496C70.2337 158.84 69.9857 157.984 69.9857 156.928C69.9857 155.36 70.5537 154.136 71.6897 153.256C72.8257 152.36 74.3057 151.912 76.1297 151.912C77.9857 151.912 79.4817 152.36 80.6177 153.256C81.7537 154.136 82.3617 155.368 82.4417 156.952H78.0017C77.9697 156.408 77.7697 155.984 77.4017 155.68C77.0337 155.36 76.5617 155.2 75.9857 155.2C75.4897 155.2 75.0897 155.336 74.7857 155.608C74.4817 155.864 74.3297 156.24 74.3297 156.736C74.3297 157.28 74.5857 157.704 75.0977 158.008C75.6097 158.312 76.4097 158.64 77.4977 158.992C78.5857 159.36 79.4657 159.712 80.1377 160.048C80.8257 160.384 81.4177 160.872 81.9137 161.512C82.4097 162.152 82.6577 162.976 82.6577 163.984C82.6577 164.944 82.4097 165.816 81.9137 166.6C81.4337 167.384 80.7297 168.008 79.8017 168.472C78.8737 168.936 77.7777 169.168 76.5137 169.168ZM98.4073 155.608V169H94.3033V167.176C93.8873 167.768 93.3193 168.248 92.5993 168.616C91.8953 168.968 91.1113 169.144 90.2473 169.144C89.2233 169.144 88.3193 168.92 87.5353 168.472C86.7513 168.008 86.1433 167.344 85.7113 166.48C85.2793 165.616 85.0633 164.6 85.0633 163.432V155.608H89.1433V162.88C89.1433 163.776 89.3753 164.472 89.8393 164.968C90.3033 165.464 90.9273 165.712 91.7113 165.712C92.5113 165.712 93.1433 165.464 93.6073 164.968C94.0713 164.472 94.3033 163.776 94.3033 162.88V155.608H98.4073ZM105.459 157.504C105.859 156.88 106.411 156.376 107.115 155.992C107.819 155.608 108.643 155.416 109.587 155.416C110.691 155.416 111.691 155.696 112.587 156.256C113.483 156.816 114.187 157.616 114.699 158.656C115.227 159.696 115.491 160.904 115.491 162.28C115.491 163.656 115.227 164.872 114.699 165.928C114.187 166.968 113.483 167.776 112.587 168.352C111.691 168.912 110.691 169.192 109.587 169.192C108.659 169.192 107.835 169 107.115 168.616C106.411 168.232 105.859 167.736 105.459 167.128V175.384H101.355V155.608H105.459V157.504ZM111.315 162.28C111.315 161.256 111.027 160.456 110.451 159.88C109.891 159.288 109.195 158.992 108.363 158.992C107.547 158.992 106.851 159.288 106.275 159.88C105.715 160.472 105.435 161.28 105.435 162.304C105.435 163.328 105.715 164.136 106.275 164.728C106.851 165.32 107.547 165.616 108.363 165.616C109.179 165.616 109.875 165.32 110.451 164.728C111.027 164.12 111.315 163.304 111.315 162.28ZM121.748 157.504C122.148 156.88 122.7 156.376 123.404 155.992C124.108 155.608 124.932 155.416 125.876 155.416C126.98 155.416 127.98 155.696 128.876 156.256C129.772 156.816 130.476 157.616 130.988 158.656C131.516 159.696 131.78 160.904 131.78 162.28C131.78 163.656 131.516 164.872 130.988 165.928C130.476 166.968 129.772 167.776 128.876 168.352C127.98 168.912 126.98 169.192 125.876 169.192C124.948 169.192 124.124 169 123.404 168.616C122.7 168.232 122.148 167.736 121.748 167.128V175.384H117.644V155.608H121.748V157.504ZM127.604 162.28C127.604 161.256 127.316 160.456 126.74 159.88C126.18 159.288 125.484 158.992 124.652 158.992C123.836 158.992 123.14 159.288 122.564 159.88C122.004 160.472 121.724 161.28 121.724 162.304C121.724 163.328 122.004 164.136 122.564 164.728C123.14 165.32 123.836 165.616 124.652 165.616C125.468 165.616 126.164 165.32 126.74 164.728C127.316 164.12 127.604 163.304 127.604 162.28ZM140.029 169.192C138.717 169.192 137.533 168.912 136.477 168.352C135.437 167.792 134.613 166.992 134.005 165.952C133.413 164.912 133.117 163.696 133.117 162.304C133.117 160.928 133.421 159.72 134.029 158.68C134.637 157.624 135.469 156.816 136.525 156.256C137.581 155.696 138.765 155.416 140.077 155.416C141.389 155.416 142.573 155.696 143.629 156.256C144.685 156.816 145.517 157.624 146.125 158.68C146.733 159.72 147.037 160.928 147.037 162.304C147.037 163.68 146.725 164.896 146.101 165.952C145.493 166.992 144.653 167.792 143.581 168.352C142.525 168.912 141.341 169.192 140.029 169.192ZM140.029 165.64C140.813 165.64 141.477 165.352 142.021 164.776C142.581 164.2 142.861 163.376 142.861 162.304C142.861 161.232 142.589 160.408 142.045 159.832C141.517 159.256 140.861 158.968 140.077 158.968C139.277 158.968 138.613 159.256 138.085 159.832C137.557 160.392 137.293 161.216 137.293 162.304C137.293 163.376 137.549 164.2 138.061 164.776C138.589 165.352 139.245 165.64 140.029 165.64ZM153.319 157.84C153.799 157.104 154.399 156.528 155.119 156.112C155.839 155.68 156.639 155.464 157.519 155.464V159.808H156.391C155.367 159.808 154.599 160.032 154.087 160.48C153.575 160.912 153.319 161.68 153.319 162.784V169H149.215V155.608H153.319V157.84ZM166.944 165.52V169H164.856C163.368 169 162.208 168.64 161.376 167.92C160.544 167.184 160.128 165.992 160.128 164.344V159.016H158.496V155.608H160.128V152.344H164.232V155.608H166.92V159.016H164.232V164.392C164.232 164.792 164.328 165.08 164.52 165.256C164.712 165.432 165.032 165.52 165.48 165.52H166.944Z" fill="#444444"/>
<path d="M104 56.4975H109C109 43.6725 99.3176 34 86.4751 34V39C96.6301 39 104 46.3575 104 56.4975Z" fill="white"/>
<path d="M86.5 49.0004C91.7575 49.0004 94 51.2429 94 56.5004H99C99 48.4379 94.5625 44.0004 86.5 44.0004V49.0004ZM95.055 62.6079C94.5746 62.1712 93.9433 61.9384 93.2945 61.9584C92.6456 61.9785 92.03 62.2499 91.5775 62.7154L85.595 68.8679C84.155 68.5929 81.26 67.6904 78.28 64.7179C75.3 61.7354 74.3975 58.8329 74.13 57.4029L80.2775 51.4179C80.7435 50.9657 81.0153 50.3499 81.0354 49.7009C81.0554 49.0518 80.8222 48.4205 80.385 47.9404L71.1475 37.7829C70.7101 37.3012 70.1022 37.0091 69.4529 36.9685C68.8035 36.9279 68.164 37.142 67.67 37.5654L62.245 42.2179C61.8128 42.6516 61.5548 43.229 61.52 43.8404C61.4825 44.4654 60.7675 59.2704 72.2475 70.7554C82.2625 80.7679 94.8075 81.5004 98.2625 81.5004C98.7675 81.5004 99.0775 81.4854 99.16 81.4804C99.7713 81.4461 100.348 81.187 100.78 80.7529L105.43 75.3254C105.854 74.8317 106.068 74.1923 106.028 73.543C105.988 72.8937 105.696 72.2856 105.215 71.8479L95.055 62.6079Z" fill="white"/>
</svg>
