<svg width="122" height="179" viewBox="0 0 122 179" fill="none" xmlns="http://www.w3.org/2000/svg">
<circle cx="61" cy="59" r="59" fill="#312C51"/>
<g clip-path="url(#clip0)">
<path fill-rule="evenodd" clip-rule="evenodd" d="M88.9752 62.3522L57.7264 31.0435C54.9514 28.2685 50.3502 28.366 47.4514 31.2722L47.1177 31.606L46.9902 31.4785C43.7839 28.2685 38.4514 28.3997 35.0802 31.7747L34.1239 32.7347C30.7527 36.106 30.6252 41.446 33.8314 44.656L33.9627 44.7872L33.3439 45.4097C30.4452 48.3085 30.3402 52.9172 33.1189 55.6997L64.3677 87.0085C67.1427 89.7872 71.7514 89.686 74.6427 86.7835L88.7539 72.646C91.6564 69.7397 91.754 65.1347 88.9752 62.3522ZM43.8739 48.3797C40.6264 48.3797 37.9977 45.6272 37.9902 42.226C37.9902 38.8285 40.6264 36.076 43.8739 36.076C47.1214 36.076 49.7389 38.8322 49.7502 42.226C49.7389 45.6272 47.1139 48.3797 43.8739 48.3797ZM77.6277 78.0385L73.5627 73.9697C71.1177 75.706 68.054 76.2535 65.3727 75.3272C65.067 75.225 64.7853 75.0615 64.5448 74.8468C64.3043 74.6321 64.1101 74.3707 63.9739 74.0785C63.8312 73.7778 63.7509 73.4513 63.738 73.1187C63.7252 72.7861 63.7799 72.4543 63.8989 72.1435C64.1303 71.522 64.5938 71.0144 65.1918 70.7277C65.7898 70.4409 66.4757 70.3973 67.1052 70.606C67.9977 70.9135 69.0177 70.7822 69.959 70.351L65.2602 65.6335C61.6864 68.191 56.9389 68.116 54.0402 65.2247C51.1227 62.311 51.0589 57.5485 53.6502 53.9822L49.6677 49.996L52.0264 47.6372L56.0352 51.631C58.5027 49.9022 61.5702 49.3547 64.2552 50.2847C64.5647 50.3924 64.8492 50.5614 65.0919 50.7815C65.3346 51.0017 65.5304 51.2685 65.6676 51.5661C65.8049 51.8636 65.8807 52.1858 65.8906 52.5133C65.9005 52.8408 65.8442 53.167 65.7252 53.4722C65.4877 54.0907 65.022 54.5945 64.4241 54.8799C63.8262 55.1652 63.1416 55.2104 62.5114 55.006C61.6189 54.6947 60.6064 54.8222 59.6689 55.2422L64.4014 59.956C67.9527 57.4622 72.6439 57.5635 75.5202 60.436C78.3965 63.3122 78.5089 67.9847 76.0189 71.5172L80.069 75.5522L77.6277 78.0385Z" fill="white"/>
<path fill-rule="evenodd" clip-rule="evenodd" d="M57.7154 61.7073C58.7204 62.7085 60.3329 62.8135 61.7692 62.1085L57.3142 57.6348C56.6054 59.0785 56.7067 60.6985 57.7154 61.7073Z" fill="white"/>
<path fill-rule="evenodd" clip-rule="evenodd" d="M71.9653 64.066C70.9978 63.0947 69.4603 62.971 68.0615 63.601L72.434 67.9585C73.0603 66.5672 72.9328 65.0297 71.9653 64.066Z" fill="white"/>
</g>
<path d="M11.688 160.36C12.664 160.568 13.448 161.056 14.04 161.824C14.632 162.576 14.928 163.44 14.928 164.416C14.928 165.824 14.432 166.944 13.44 167.776C12.464 168.592 11.096 169 9.336 169H1.488V152.152H9.072C10.784 152.152 12.12 152.544 13.08 153.328C14.056 154.112 14.544 155.176 14.544 156.52C14.544 157.512 14.28 158.336 13.752 158.992C13.24 159.648 12.552 160.104 11.688 160.36ZM5.592 158.968H8.28C8.952 158.968 9.464 158.824 9.816 158.536C10.184 158.232 10.368 157.792 10.368 157.216C10.368 156.64 10.184 156.2 9.816 155.896C9.464 155.592 8.952 155.44 8.28 155.44H5.592V158.968ZM8.616 165.688C9.304 165.688 9.832 165.536 10.2 165.232C10.584 164.912 10.776 164.456 10.776 163.864C10.776 163.272 10.576 162.808 10.176 162.472C9.792 162.136 9.256 161.968 8.568 161.968H5.592V165.688H8.616ZM29.9323 162.088C29.9323 162.472 29.9083 162.872 29.8603 163.288H20.5723C20.6363 164.12 20.9003 164.76 21.3643 165.208C21.8443 165.64 22.4283 165.856 23.1163 165.856C24.1403 165.856 24.8523 165.424 25.2523 164.56H29.6203C29.3963 165.44 28.9883 166.232 28.3963 166.936C27.8203 167.64 27.0923 168.192 26.2123 168.592C25.3323 168.992 24.3483 169.192 23.2603 169.192C21.9483 169.192 20.7803 168.912 19.7563 168.352C18.7323 167.792 17.9323 166.992 17.3563 165.952C16.7803 164.912 16.4923 163.696 16.4923 162.304C16.4923 160.912 16.7723 159.696 17.3323 158.656C17.9083 157.616 18.7083 156.816 19.7323 156.256C20.7563 155.696 21.9323 155.416 23.2603 155.416C24.5563 155.416 25.7083 155.688 26.7163 156.232C27.7243 156.776 28.5083 157.552 29.0683 158.56C29.6443 159.568 29.9323 160.744 29.9323 162.088ZM25.7323 161.008C25.7323 160.304 25.4923 159.744 25.0123 159.328C24.5323 158.912 23.9323 158.704 23.2123 158.704C22.5243 158.704 21.9403 158.904 21.4603 159.304C20.9963 159.704 20.7083 160.272 20.5963 161.008H25.7323ZM37.5454 169.192C36.3774 169.192 35.3374 168.992 34.4254 168.592C33.5134 168.192 32.7934 167.648 32.2654 166.96C31.7374 166.256 31.4414 165.472 31.3774 164.608H35.4334C35.4814 165.072 35.6974 165.448 36.0814 165.736C36.4654 166.024 36.9374 166.168 37.4974 166.168C38.0094 166.168 38.4014 166.072 38.6734 165.88C38.9614 165.672 39.1054 165.408 39.1054 165.088C39.1054 164.704 38.9054 164.424 38.5054 164.248C38.1054 164.056 37.4574 163.848 36.5614 163.624C35.6014 163.4 34.8014 163.168 34.1614 162.928C33.5214 162.672 32.9694 162.28 32.5054 161.752C32.0414 161.208 31.8094 160.48 31.8094 159.568C31.8094 158.8 32.0174 158.104 32.4334 157.48C32.8654 156.84 33.4894 156.336 34.3054 155.968C35.1374 155.6 36.1214 155.416 37.2574 155.416C38.9374 155.416 40.2574 155.832 41.2174 156.664C42.1934 157.496 42.7534 158.6 42.8974 159.976H39.1054C39.0414 159.512 38.8334 159.144 38.4814 158.872C38.1454 158.6 37.6974 158.464 37.1374 158.464C36.6574 158.464 36.2894 158.56 36.0334 158.752C35.7774 158.928 35.6494 159.176 35.6494 159.496C35.6494 159.88 35.8494 160.168 36.2494 160.36C36.6654 160.552 37.3054 160.744 38.1694 160.936C39.1614 161.192 39.9694 161.448 40.5934 161.704C41.2174 161.944 41.7614 162.344 42.2254 162.904C42.7054 163.448 42.9534 164.184 42.9694 165.112C42.9694 165.896 42.7454 166.6 42.2974 167.224C41.8654 167.832 41.2334 168.312 40.4014 168.664C39.5854 169.016 38.6334 169.192 37.5454 169.192ZM52.9442 165.52V169H50.8562C49.3682 169 48.2082 168.64 47.3762 167.92C46.5442 167.184 46.1282 165.992 46.1282 164.344V159.016H44.4962V155.608H46.1282V152.344H50.2322V155.608H52.9202V159.016H50.2322V164.392C50.2322 164.792 50.3282 165.08 50.5202 165.256C50.7122 165.432 51.0322 165.52 51.4802 165.52H52.9442ZM64.4201 157.504C64.8201 156.88 65.3721 156.376 66.0761 155.992C66.7801 155.608 67.6041 155.416 68.5481 155.416C69.6521 155.416 70.6521 155.696 71.5481 156.256C72.4441 156.816 73.1481 157.616 73.6601 158.656C74.1881 159.696 74.4521 160.904 74.4521 162.28C74.4521 163.656 74.1881 164.872 73.6601 165.928C73.1481 166.968 72.4441 167.776 71.5481 168.352C70.6521 168.912 69.6521 169.192 68.5481 169.192C67.6201 169.192 66.7961 169 66.0761 168.616C65.3721 168.232 64.8201 167.736 64.4201 167.128V175.384H60.3161V155.608H64.4201V157.504ZM70.2761 162.28C70.2761 161.256 69.9881 160.456 69.4121 159.88C68.8521 159.288 68.1561 158.992 67.3241 158.992C66.5081 158.992 65.8121 159.288 65.2361 159.88C64.6761 160.472 64.3961 161.28 64.3961 162.304C64.3961 163.328 64.6761 164.136 65.2361 164.728C65.8121 165.32 66.5081 165.616 67.3241 165.616C68.1401 165.616 68.8361 165.32 69.4121 164.728C69.9881 164.12 70.2761 163.304 70.2761 162.28ZM80.7092 157.84C81.1892 157.104 81.7892 156.528 82.5092 156.112C83.2292 155.68 84.0292 155.464 84.9092 155.464V159.808H83.7812C82.7572 159.808 81.9892 160.032 81.4772 160.48C80.9652 160.912 80.7092 161.68 80.7092 162.784V169H76.6052V155.608H80.7092V157.84ZM88.9348 154.216C88.2148 154.216 87.6228 154.008 87.1588 153.592C86.7108 153.16 86.4868 152.632 86.4868 152.008C86.4868 151.368 86.7108 150.84 87.1588 150.424C87.6228 149.992 88.2148 149.776 88.9348 149.776C89.6388 149.776 90.2148 149.992 90.6628 150.424C91.1268 150.84 91.3588 151.368 91.3588 152.008C91.3588 152.632 91.1268 153.16 90.6628 153.592C90.2148 154.008 89.6388 154.216 88.9348 154.216ZM90.9748 155.608V169H86.8708V155.608H90.9748ZM93.1329 162.304C93.1329 160.912 93.4129 159.696 93.9729 158.656C94.5489 157.616 95.3409 156.816 96.3489 156.256C97.3729 155.696 98.5409 155.416 99.8529 155.416C101.533 155.416 102.933 155.856 104.053 156.736C105.189 157.616 105.933 158.856 106.285 160.456H101.917C101.549 159.432 100.837 158.92 99.7809 158.92C99.0289 158.92 98.4289 159.216 97.9809 159.808C97.5329 160.384 97.3089 161.216 97.3089 162.304C97.3089 163.392 97.5329 164.232 97.9809 164.824C98.4289 165.4 99.0289 165.688 99.7809 165.688C100.837 165.688 101.549 165.176 101.917 164.152H106.285C105.933 165.72 105.189 166.952 104.053 167.848C102.917 168.744 101.517 169.192 99.8529 169.192C98.5409 169.192 97.3729 168.912 96.3489 168.352C95.3409 167.792 94.5489 166.992 93.9729 165.952C93.4129 164.912 93.1329 163.696 93.1329 162.304ZM121.104 162.088C121.104 162.472 121.08 162.872 121.032 163.288H111.744C111.808 164.12 112.072 164.76 112.536 165.208C113.016 165.64 113.6 165.856 114.288 165.856C115.312 165.856 116.024 165.424 116.424 164.56H120.792C120.568 165.44 120.16 166.232 119.568 166.936C118.992 167.64 118.264 168.192 117.384 168.592C116.504 168.992 115.52 169.192 114.432 169.192C113.12 169.192 111.952 168.912 110.928 168.352C109.904 167.792 109.104 166.992 108.528 165.952C107.952 164.912 107.664 163.696 107.664 162.304C107.664 160.912 107.944 159.696 108.504 158.656C109.08 157.616 109.88 156.816 110.904 156.256C111.928 155.696 113.104 155.416 114.432 155.416C115.728 155.416 116.88 155.688 117.888 156.232C118.896 156.776 119.68 157.552 120.24 158.56C120.816 159.568 121.104 160.744 121.104 162.088ZM116.904 161.008C116.904 160.304 116.664 159.744 116.184 159.328C115.704 158.912 115.104 158.704 114.384 158.704C113.696 158.704 113.112 158.904 112.632 159.304C112.168 159.704 111.88 160.272 111.768 161.008H116.904Z" fill="#444444"/>
<defs>
<clipPath id="clip0">
<rect width="60" height="60" fill="white" transform="translate(31 29)"/>
</clipPath>
</defs>
</svg>
