<svg width="98" height="98" viewBox="0 0 98 98" fill="none" xmlns="http://www.w3.org/2000/svg">
<path d="M49.0209 97.9557C76.0701 97.9557 97.9977 76.0275 97.9977 48.9778C97.9977 21.9281 76.0701 0 49.0209 0C21.9718 0 0.0441895 21.9281 0.0441895 48.9778C0.0441895 76.0275 21.9718 97.9557 49.0209 97.9557Z" fill="#3F3D56"/>
<path opacity="0.1" d="M49.0208 6.12443e-06C39.3282 -0.0048391 29.8519 2.86532 21.7907 8.24736C13.7296 13.6294 7.44579 21.2815 3.73433 30.2356C0.0228794 39.1897 -0.949474 49.0435 0.940279 58.5503C2.83003 68.0572 7.49699 76.79 14.3507 83.6439C21.2045 90.4977 29.937 95.1648 39.4436 97.0546C48.9503 98.9444 58.8038 97.972 67.7578 94.2605C76.7117 90.5489 84.3636 84.265 89.7455 76.2037C95.1275 68.1423 97.9975 58.6658 97.9927 48.9729C97.9862 35.9865 92.8246 23.5338 83.642 14.351C74.4594 5.16823 62.007 0.00649772 49.0208 6.12443e-06V6.12443e-06ZM49.0208 91.439C40.622 91.439 32.4118 88.9484 25.4285 84.2822C18.4451 79.616 13.0023 72.9837 9.78818 65.224C6.5741 57.4643 5.73315 48.9258 7.37168 40.6882C9.0102 32.4506 13.0546 24.8839 18.9935 18.9449C24.9323 13.0059 32.4989 8.9614 40.7363 7.32284C48.9738 5.68428 57.5121 6.52525 65.2715 9.73941C73.031 12.9536 79.6632 18.3965 84.3293 25.3801C88.9954 32.3636 91.486 40.5739 91.486 48.9729C91.486 54.5497 90.3876 60.0718 88.2535 65.224C86.1194 70.3762 82.9915 75.0576 79.0482 79.001C75.105 82.9443 70.4237 86.0723 65.2715 88.2065C60.1194 90.3406 54.5974 91.439 49.0208 91.439Z" fill="black"/>
<path d="M22.0114 77L25.8646 62.8412C23.3257 58.4888 21.9918 53.5388 22 48.5C22 32.7594 34.7595 20 50.5 20C66.2406 20 79 32.7594 79 48.5C79 64.2405 66.2406 77 50.5 77C45.4634 77.0081 40.5155 75.6752 36.1645 73.1382L22.0114 77ZM40.2144 35.1278C39.8463 35.1506 39.4867 35.2476 39.157 35.4128C38.8479 35.5879 38.5656 35.8067 38.3191 36.0626C37.9771 36.3846 37.7833 36.6639 37.5753 36.9347C36.522 38.3055 35.9554 39.9882 35.965 41.717C35.9707 43.1135 36.3355 44.4729 36.9055 45.744C38.0712 48.3147 39.9892 51.0365 42.5229 53.5587C43.1328 54.1658 43.7284 54.7757 44.3697 55.3428C47.5143 58.1115 51.2617 60.1081 55.3137 61.1739L56.9353 61.4219C57.4626 61.4504 57.9898 61.4105 58.5199 61.3848C59.3499 61.342 60.1604 61.1172 60.894 60.7265C61.2672 60.5342 61.6314 60.325 61.9855 60.0995C61.9855 60.0995 62.1081 60.0197 62.3418 59.843C62.7265 59.558 62.9631 59.3556 63.2823 59.0222C63.5188 58.7771 63.724 58.4892 63.8808 58.1615C64.1031 57.6969 64.3254 56.8106 64.4166 56.0724C64.485 55.5081 64.465 55.2003 64.4565 55.0094C64.4451 54.7044 64.1914 54.3881 63.915 54.2541L62.2563 53.5103C62.2563 53.5103 59.7768 52.4301 58.2634 51.7404C58.1039 51.6709 57.9329 51.6313 57.759 51.6236C57.564 51.6036 57.3669 51.6255 57.1811 51.6879C56.9953 51.7504 56.825 51.8518 56.6817 51.9855V51.9798C56.6674 51.9798 56.4765 52.1423 54.4159 54.6389C54.2976 54.7978 54.1347 54.9179 53.948 54.9839C53.7612 55.0499 53.559 55.0587 53.3671 55.0094C53.1814 54.9597 52.9995 54.8969 52.8228 54.8213C52.4694 54.6731 52.3468 54.6161 52.1046 54.5106L52.0903 54.5049C50.4599 53.7931 48.9503 52.8315 47.6158 51.6549C47.2567 51.3414 46.9233 50.9994 46.5813 50.6688C45.46 49.5951 44.4829 48.3803 43.6743 47.055L43.5061 46.7843C43.3853 46.6024 43.2877 46.4061 43.2154 46.2C43.1071 45.7811 43.3893 45.4448 43.3893 45.4448C43.3893 45.4448 44.0818 44.6867 44.4039 44.2763C44.672 43.9352 44.9222 43.5804 45.1534 43.2132C45.4897 42.6717 45.5952 42.116 45.4185 41.6856C44.6205 39.7362 43.794 37.7954 42.9447 35.8688C42.7765 35.4869 42.2778 35.2133 41.8246 35.1591C41.6707 35.142 41.5168 35.1249 41.3629 35.1135C40.9802 35.0945 40.5967 35.0983 40.2144 35.1249V35.1278Z" fill="#00A8C4"/>
</svg>
