<svg width="98" height="98" viewBox="0 0 98 98" fill="none" xmlns="http://www.w3.org/2000/svg">
<path d="M49.0209 97.6498C76.07 97.6498 97.9977 75.7902 97.9977 48.8249C97.9977 21.8597 76.07 0 49.0209 0C21.9718 0 0.0441895 21.8597 0.0441895 48.8249C0.0441895 75.7902 21.9718 97.6498 49.0209 97.6498Z" fill="#3F3D56"/>
<path d="M49.0209 25.4626L29.4958 70.3702L31.3185 72.1873L49.0258 64.4014L66.7331 72.1873L68.5557 70.3702L49.0209 25.4626Z" fill="#00A8C4"/>
<path opacity="0.1" d="M49.0209 0.311041C39.3293 0.30621 29.8539 3.16679 21.7933 8.53094C13.7327 13.8951 7.44885 21.5219 3.73667 30.4466C0.0244978 39.3713 -0.949276 49.1931 0.938492 58.6696C2.82626 68.1461 7.49078 76.8516 14.3421 83.6851C21.1933 90.5186 29.9236 95.173 39.4286 97.0596C48.9337 98.9463 58.7865 97.9804 67.7408 94.2842C76.6952 90.588 84.3488 84.3275 89.7337 76.2945C95.1185 68.2616 97.9927 58.8171 97.9927 49.1555C97.9927 36.2054 92.834 23.7853 83.6507 14.6259C74.4674 5.46648 62.0113 0.317516 49.0209 0.311041ZM49.0209 91.4646C40.621 91.4646 32.4099 88.9811 25.426 84.3284C18.4421 79.6756 12.9992 73.0626 9.78586 65.3258C6.57249 57.5889 5.73298 49.0758 7.3735 40.8632C9.01401 32.6507 13.0609 25.1076 19.0022 19.1881C24.9435 13.2687 32.5123 9.23872 40.7514 7.60803C48.9904 5.97734 57.5295 6.81918 65.2886 10.027C73.0476 13.2349 79.6781 18.6647 84.3413 25.6296C89.0044 32.5945 91.4909 40.7817 91.486 49.1555C91.4847 60.3822 87.0101 71.1486 79.0465 79.0866C71.0829 87.0247 60.2825 91.4841 49.0209 91.4841V91.4646Z" fill="black"/>
</svg>
