<svg width="534" height="458" viewBox="0 0 534 458" fill="none" xmlns="http://www.w3.org/2000/svg">
<path d="M533.488 249.627C536.215 213.148 527.706 175.033 516.251 141.078C499.246 90.6215 466.244 38.8834 410.647 26.9512C378.587 20.1327 345.968 27.4421 318.489 44.679C292.048 61.2751 271.442 82.6985 238.946 86.8577C206.081 91.0579 172.357 89.3669 139.315 89.3669C54.3713 89.3669 -14.5765 178.006 2.6604 270.341C19.8974 362.676 101.146 426.688 170.093 426.688C232.046 426.688 283.006 389.773 341.917 379.859C371.1 374.949 400.392 380.759 429.275 373.395C462.835 364.831 494.391 344.403 512.991 314.825C525.592 294.683 531.756 272.469 533.488 249.627Z" fill="#00A8C4"/>
<path opacity="0.7" d="M533.488 249.627C536.215 213.148 527.706 175.033 516.251 141.078C499.246 90.6215 466.244 38.8834 410.647 26.9512C378.587 20.1327 345.968 27.4421 318.489 44.679C292.048 61.2751 271.442 82.6985 238.946 86.8577C206.081 91.0579 172.357 89.3669 139.315 89.3669C54.3713 89.3669 -14.5765 178.006 2.6604 270.341C19.8974 362.676 101.146 426.688 170.093 426.688C232.046 426.688 283.006 389.773 341.917 379.859C371.1 374.949 400.392 380.759 429.275 373.395C462.835 364.831 494.391 344.403 512.991 314.825C525.592 294.683 531.756 272.469 533.488 249.627Z" fill="white"/>
<path d="M267.965 457.479C414.489 457.479 533.269 454.17 533.269 450.088C533.269 446.006 414.489 442.697 267.965 442.697C121.441 442.697 2.6604 446.006 2.6604 450.088C2.6604 454.17 121.441 457.479 267.965 457.479Z" fill="#2E353A"/>
<path d="M402.369 443.351H377.823V1L402.369 29.5419V443.351Z" stroke="#2E353A" stroke-linecap="round" stroke-linejoin="round"/>
<path d="M378.055 339.193H402.138L378.055 315.915H402.138L378.055 339.193Z" stroke="#2E353A" stroke-linecap="round" stroke-linejoin="round"/>
<path d="M378.055 315.329H402.138L378.055 292.051H402.138L378.055 315.329Z" stroke="#2E353A" stroke-linecap="round" stroke-linejoin="round"/>
<path d="M378.055 386.718H402.138L378.055 363.439H402.138L378.055 386.718Z" stroke="#2E353A" stroke-linecap="round" stroke-linejoin="round"/>
<path d="M378.055 362.854H402.138L378.055 339.575H402.138L378.055 362.854Z" stroke="#2E353A" stroke-linecap="round" stroke-linejoin="round"/>
<path d="M378.055 291.464H402.138L378.055 268.186H402.138L378.055 291.464Z" stroke="#2E353A" stroke-linecap="round" stroke-linejoin="round"/>
<path d="M378.055 267.6H402.138L378.055 244.322H402.138L378.055 267.6Z" stroke="#2E353A" stroke-linecap="round" stroke-linejoin="round"/>
<path d="M378.055 243.735H402.138L378.055 220.457H402.138L378.055 243.735Z" stroke="#2E353A" stroke-linecap="round" stroke-linejoin="round"/>
<path d="M378.055 219.871H402.138L378.055 196.593H402.138L378.055 219.871Z" stroke="#2E353A" stroke-linecap="round" stroke-linejoin="round"/>
<path d="M378.055 196.007H402.138L378.055 172.729H402.138L378.055 196.007Z" stroke="#2E353A" stroke-linecap="round" stroke-linejoin="round"/>
<path d="M378.055 172.142H402.138L378.055 148.864H402.138L378.055 172.142Z" stroke="#2E353A" stroke-linecap="round" stroke-linejoin="round"/>
<path d="M378.055 148.278H402.138L378.055 125H402.138L378.055 148.278Z" stroke="#2E353A" stroke-linecap="round" stroke-linejoin="round"/>
<path d="M378.055 124.413H402.138L378.055 101.135H402.138L378.055 124.413Z" stroke="#2E353A" stroke-linecap="round" stroke-linejoin="round"/>
<path d="M378.055 100.549H402.138L378.055 77.2708H402.138L378.055 100.549Z" stroke="#2E353A" stroke-linecap="round" stroke-linejoin="round"/>
<path d="M378.055 76.6843H402.138L378.055 53.4062H402.138L378.055 76.6843Z" stroke="#2E353A" stroke-linecap="round" stroke-linejoin="round"/>
<path d="M378.055 52.8201H402.138L378.055 29.542H402.138L378.055 52.8201Z" stroke="#2E353A" stroke-linecap="round" stroke-linejoin="round"/>
<path d="M516.319 53.4607L504.427 45.9741H419.579L409.215 53.4607H516.319Z" stroke="#2E353A" stroke-linecap="round" stroke-linejoin="round"/>
<path d="M518.283 52.8198H311.003V58.2746H518.283V52.8198Z" fill="#2E353A" stroke="#2E353A" stroke-linecap="round" stroke-linejoin="round"/>
<path d="M504.427 45.9743L377.823 1L419.579 45.9743" stroke="#2E353A" stroke-linecap="round" stroke-linejoin="round"/>
<path d="M377.823 1L311.003 52.8199" stroke="#2E353A" stroke-linecap="round" stroke-linejoin="round"/>
<path d="M420.097 64.4114H368.959V97.1398H420.097V64.4114Z" fill="#2E353A" stroke="#2E353A" stroke-linecap="round" stroke-linejoin="round"/>
<path d="M420.097 411.278H368.959V444.006H420.097V411.278Z" fill="#2E353A" stroke="#2E353A" stroke-linecap="round" stroke-linejoin="round"/>
<path d="M409.433 71.2297H379.609V80.7755H409.433V71.2297Z" fill="white" stroke="#2E353A" stroke-linecap="round" stroke-linejoin="round"/>
<path d="M518.282 58.2747V117.077" stroke="#2E353A" stroke-linecap="round" stroke-linejoin="round"/>
<path d="M526.069 137.15H510.919V154.319H526.069V137.15Z" fill="#2E353A" stroke="#2E353A" stroke-linecap="round" stroke-linejoin="round"/>
<path d="M510.919 137.15L518.487 115.958L526.069 137.15" stroke="#2E353A" stroke-linecap="round" stroke-linejoin="round"/>
<path d="M316.348 407.105V376.776H226.959V407.132C226.944 417.04 223.58 426.651 217.413 434.406L213.499 439.342H329.753L325.826 434.406C319.682 426.632 316.343 417.013 316.348 407.105Z" fill="white" stroke="#2E353A" stroke-width="1.09543" stroke-linecap="round" stroke-linejoin="round"/>
<g style="mix-blend-mode:multiply">
<path d="M221.463 428.364H321.844C318.254 421.854 316.377 414.539 316.389 407.105V376.776H226.959V407.132C226.954 414.561 225.063 421.866 221.463 428.364Z" fill="#00A8C4"/>
</g>
<path d="M316.348 381.318H226.959V394.136H316.348V381.318Z" fill="#2E353A" stroke="#2E353A" stroke-width="1.09543" stroke-linecap="round" stroke-linejoin="round"/>
<path d="M438.63 116.858H104.678C97.6808 116.858 92.0089 122.53 92.0089 129.527V373.654C92.0089 380.65 97.6808 386.322 104.678 386.322H438.63C445.626 386.322 451.298 380.65 451.298 373.654V129.527C451.298 122.53 445.626 116.858 438.63 116.858Z" fill="#2E353A" stroke="#2E353A" stroke-width="1.09543" stroke-linecap="round" stroke-linejoin="round"/>
<path d="M92.0089 344.443H451.298V373.653C451.298 377.013 449.964 380.236 447.588 382.611C445.212 384.987 441.99 386.322 438.63 386.322H104.746C101.386 386.322 98.1635 384.987 95.7876 382.611C93.4118 380.236 92.0771 377.013 92.0771 373.653V344.443H92.0089Z" fill="white" stroke="#2E353A" stroke-width="1.09543" stroke-linecap="round" stroke-linejoin="round"/>
<path d="M433.216 133.632H110.078V324.002H433.216V133.632Z" fill="#00A8C4" stroke="#2E353A" stroke-width="1.09543" stroke-linecap="round" stroke-linejoin="round"/>
<path d="M278.274 365.39C278.277 364.078 277.891 362.796 277.164 361.704C276.437 360.612 275.403 359.761 274.192 359.257C272.982 358.753 271.649 358.62 270.362 358.874C269.076 359.128 267.894 359.759 266.965 360.685C266.037 361.611 265.404 362.792 265.148 364.078C264.891 365.364 265.021 366.697 265.522 367.909C266.024 369.121 266.873 370.157 267.963 370.886C269.053 371.614 270.335 372.004 271.647 372.004C272.516 372.005 273.378 371.836 274.182 371.504C274.986 371.172 275.717 370.686 276.332 370.071C276.948 369.457 277.436 368.727 277.77 367.924C278.103 367.121 278.274 366.259 278.274 365.39Z" fill="#2E353A" stroke="#2E353A" stroke-width="1.09543" stroke-linecap="round" stroke-linejoin="round"/>
<path d="M329.781 439.329H213.54V444.742H329.781V439.329Z" fill="white" stroke="#2E353A" stroke-width="1.09543" stroke-linecap="round" stroke-linejoin="round"/>
<path d="M376.814 181.333C380.558 177.583 383.323 172.97 384.866 167.901C386.41 162.831 386.684 157.46 385.665 152.26L365.387 172.538C364.234 173.684 362.675 174.327 361.05 174.327C359.425 174.327 357.866 173.684 356.714 172.538L339.858 155.683C339.287 155.113 338.834 154.436 338.525 153.69C338.216 152.945 338.057 152.146 338.057 151.339C338.057 150.532 338.216 149.733 338.525 148.988C338.834 148.243 339.287 147.566 339.858 146.996L360.123 126.732C354.444 125.622 348.571 126.058 343.117 127.992C337.664 129.926 332.829 133.289 329.118 137.728C325.407 142.168 322.955 147.522 322.019 153.233C321.082 158.943 321.695 164.8 323.794 170.192L271.47 221.317L266.424 216.257L274.606 208.075C275.024 207.649 275.259 207.076 275.259 206.48C275.259 205.883 275.024 205.31 274.606 204.884L268.224 198.502C267.802 198.082 267.231 197.846 266.635 197.846C266.04 197.846 265.469 198.082 265.047 198.502L261.856 201.693L254.942 194.793L257.601 192.134C258.164 191.569 258.48 190.804 258.48 190.006C258.48 189.209 258.164 188.444 257.601 187.879L200.504 130.782C199.143 129.419 197.528 128.339 195.749 127.601C193.971 126.864 192.065 126.484 190.14 126.484C188.214 126.484 186.308 126.864 184.53 127.601C182.751 128.339 181.136 129.419 179.776 130.782L173.939 136.618C172.577 137.977 171.497 139.592 170.759 141.369C170.022 143.146 169.643 145.051 169.643 146.975C169.643 148.899 170.022 150.805 170.759 152.582C171.497 154.359 172.577 155.973 173.939 157.333L231.037 214.444C231.601 215.007 232.366 215.323 233.164 215.323C233.961 215.323 234.726 215.007 235.291 214.444L237.95 211.784L244.851 218.698L241.673 221.876C241.463 222.085 241.296 222.333 241.182 222.607C241.068 222.881 241.01 223.175 241.01 223.471C241.01 223.768 241.068 224.061 241.182 224.335C241.296 224.609 241.463 224.858 241.673 225.067L248.042 231.449C248.467 231.867 249.04 232.101 249.637 232.101C250.234 232.101 250.807 231.867 251.233 231.449L259.415 223.267L264.379 228.23L220.986 270.505C215.593 268.407 209.736 267.795 204.026 268.732C198.316 269.669 192.961 272.12 188.521 275.831C184.081 279.541 180.717 284.375 178.781 289.828C176.844 295.281 176.406 301.153 177.512 306.833L197.79 286.569C198.36 285.998 199.037 285.545 199.782 285.236C200.527 284.926 201.326 284.767 202.133 284.767C202.94 284.767 203.739 284.926 204.484 285.236C205.23 285.545 205.907 285.998 206.477 286.569L223.386 303.315C223.957 303.885 224.41 304.562 224.719 305.307C225.029 306.052 225.188 306.851 225.188 307.658C225.188 308.465 225.029 309.264 224.719 310.009C224.41 310.755 223.957 311.432 223.386 312.002L203.122 332.266C208.801 333.373 214.674 332.937 220.127 331.002C225.58 329.068 230.415 325.706 234.126 321.267C237.838 316.828 240.291 311.475 241.23 305.765C242.169 300.056 241.559 294.199 239.464 288.805L282.856 246.531L342.027 305.633C341.176 307.824 340.982 310.216 341.466 312.516C341.95 314.816 343.092 316.926 344.754 318.588L359.032 332.866L376.16 315.724L361.882 301.46C360.219 299.799 358.11 298.656 355.81 298.172C353.509 297.688 351.118 297.883 348.927 298.733L289.852 239.658L342.231 188.588C348.078 190.863 354.461 191.388 360.601 190.1C366.741 188.812 372.374 185.766 376.814 181.333Z" fill="#2E353A" stroke="#2E353A" stroke-width="1.09543" stroke-linecap="round" stroke-linejoin="round"/>
<path d="M235.864 281.537L338.59 181.32C343.986 183.422 349.848 184.036 355.563 183.098C361.277 182.16 366.635 179.704 371.076 175.988C375.517 172.271 378.879 167.43 380.809 161.97C382.74 156.51 383.169 150.632 382.051 144.95L361.786 165.214C361.216 165.786 360.539 166.239 359.794 166.548C359.049 166.857 358.25 167.016 357.443 167.016C356.636 167.016 355.837 166.857 355.092 166.548C354.347 166.239 353.67 165.786 353.1 165.214L336.245 148.359C335.674 147.791 335.221 147.115 334.912 146.371C334.603 145.626 334.444 144.829 334.444 144.023C334.444 143.217 334.603 142.419 334.912 141.675C335.221 140.931 335.674 140.255 336.245 139.686L356.509 119.408C350.827 118.301 344.952 118.739 339.497 120.678C334.042 122.616 329.208 125.984 325.499 130.428C321.79 134.873 319.343 140.232 318.412 145.946C317.481 151.659 318.101 157.518 320.208 162.91L217.482 263.127C212.089 261.028 206.232 260.415 200.522 261.351C194.812 262.288 189.458 264.739 185.018 268.451C180.578 272.162 177.216 276.996 175.282 282.45C173.347 287.903 172.912 293.776 174.021 299.455L194.285 279.191C194.855 278.62 195.532 278.167 196.278 277.858C197.023 277.549 197.822 277.39 198.629 277.39C199.435 277.39 200.234 277.549 200.98 277.858C201.725 278.167 202.402 278.62 202.972 279.191L219.827 296.046C220.398 296.615 220.851 297.291 221.159 298.035C221.468 298.779 221.627 299.577 221.627 300.383C221.627 301.188 221.468 301.986 221.159 302.73C220.851 303.475 220.398 304.15 219.827 304.719L199.522 324.956C205.201 326.064 211.074 325.627 216.527 323.693C221.98 321.758 226.815 318.396 230.526 313.957C234.238 309.519 236.691 304.165 237.63 298.456C238.569 292.746 237.959 286.889 235.864 281.496V281.537Z" fill="white" stroke="#2E353A" stroke-miterlimit="10"/>
<path d="M227.955 271.023C227.169 270.235 226.728 269.169 226.728 268.057C226.728 266.945 227.169 265.878 227.955 265.091L320.317 175.238C321.106 174.452 322.175 174.01 323.29 174.01C324.404 174.01 325.473 174.452 326.262 175.238C327.049 176.027 327.49 177.096 327.49 178.211C327.49 179.325 327.049 180.394 326.262 181.183L233.9 271.023C233.111 271.809 232.042 272.25 230.927 272.25C229.813 272.25 228.744 271.809 227.955 271.023Z" fill="white" stroke="#2E353A" stroke-miterlimit="10"/>
<path d="M255.347 201.481L248.443 208.385L348.062 308.004L354.966 301.1L255.347 201.481Z" fill="white" stroke="#2E353A" stroke-miterlimit="10"/>
<path d="M372.546 308.456L355.418 325.584L341.14 311.32C338.868 309.046 337.591 305.963 337.591 302.749C337.591 299.534 338.868 296.452 341.14 294.178C342.265 293.053 343.6 292.161 345.069 291.552C346.539 290.943 348.114 290.63 349.704 290.63C351.295 290.63 352.87 290.943 354.339 291.552C355.809 292.161 357.144 293.053 358.268 294.178L372.546 308.456Z" fill="white" stroke="#2E353A" stroke-miterlimit="10"/>
<path d="M246.055 182.095L229.055 199.095L242.863 212.903L259.863 195.903L246.055 182.095Z" fill="white" stroke="#2E353A" stroke-miterlimit="10"/>
<path d="M170.357 129.238L176.2 123.394C177.56 122.034 179.175 120.955 180.952 120.219C182.729 119.483 184.633 119.105 186.556 119.105C188.48 119.105 190.384 119.483 192.161 120.219C193.938 120.955 195.553 122.034 196.913 123.394L254.017 180.498C254.579 181.061 254.895 181.824 254.895 182.62C254.895 183.415 254.579 184.178 254.017 184.741L231.704 207.054C231.141 207.617 230.378 207.933 229.582 207.933C228.786 207.933 228.023 207.617 227.461 207.054L170.357 149.95C167.61 147.204 166.067 143.478 166.067 139.594C166.067 135.71 167.61 131.984 170.357 129.238Z" fill="white" stroke="#2E353A" stroke-miterlimit="10"/>
<path d="M261.452 191.135L238.078 214.509C237.2 215.388 237.2 216.812 238.078 217.691L244.462 224.074C245.341 224.953 246.765 224.953 247.644 224.074L271.018 200.7C271.897 199.822 271.897 198.397 271.018 197.518L264.634 191.135C263.756 190.256 262.331 190.256 261.452 191.135Z" fill="white" stroke="#2E353A" stroke-miterlimit="10"/>
<path d="M234.896 198.57L230.205 203.275L174.13 147.2C173.506 146.576 173.156 145.73 173.156 144.848C173.156 143.966 173.506 143.119 174.13 142.495C174.438 142.185 174.804 141.939 175.208 141.77C175.612 141.602 176.045 141.516 176.482 141.516C176.92 141.516 177.353 141.602 177.756 141.77C178.16 141.939 178.527 142.185 178.835 142.495L234.896 198.57Z" fill="white" stroke="#2E353A" stroke-miterlimit="10"/>
<path d="M242.901 190.565L238.182 195.27L182.108 139.195C181.484 138.572 181.134 137.725 181.134 136.843C181.134 135.961 181.484 135.115 182.108 134.491C182.416 134.18 182.782 133.934 183.186 133.766C183.59 133.598 184.023 133.511 184.46 133.511C184.897 133.511 185.33 133.598 185.734 133.766C186.138 133.934 186.504 134.18 186.812 134.491L242.901 190.565Z" fill="white" stroke="#2E353A" stroke-miterlimit="10"/>
<path d="M250.905 182.561L246.187 187.224L190.112 131.191C189.489 130.567 189.138 129.72 189.138 128.838C189.138 127.956 189.489 127.11 190.112 126.486C190.42 126.175 190.787 125.929 191.191 125.761C191.594 125.593 192.027 125.506 192.465 125.506C192.902 125.506 193.335 125.593 193.739 125.761C194.142 125.929 194.509 126.175 194.817 126.486L250.905 182.561Z" fill="white" stroke="#2E353A" stroke-miterlimit="10"/>
<path d="M438.602 446.42H434.061L404.701 205.511H409.256L438.602 446.42Z" fill="#C0C0C0" stroke="#2E353A" stroke-miterlimit="10"/>
<path d="M474.058 446.42H469.517L440.157 205.511H444.712L474.058 446.42Z" fill="#C0C0C0" stroke="#2E353A" stroke-miterlimit="10"/>
<path d="M444.998 225.476H409.556L408.642 218.044H444.098L444.998 225.476Z" fill="#C0C0C0" stroke="#2E353A" stroke-miterlimit="10"/>
<path d="M448.339 252.913H412.897L411.997 245.481H447.439L448.339 252.913Z" fill="#C0C0C0" stroke="#2E353A" stroke-miterlimit="10"/>
<path d="M451.694 280.351H416.238L415.338 272.918H450.78L451.694 280.351Z" fill="#C0C0C0" stroke="#2E353A" stroke-miterlimit="10"/>
<path d="M455.035 307.801H419.593L418.679 300.369H454.121L455.035 307.801Z" fill="#C0C0C0" stroke="#2E353A" stroke-miterlimit="10"/>
<path d="M458.376 335.239H422.934L422.02 327.807H457.462L458.376 335.239Z" fill="#C0C0C0" stroke="#2E353A" stroke-miterlimit="10"/>
<path d="M461.717 362.676H426.275L425.375 355.244H460.817L461.717 362.676Z" fill="#C0C0C0" stroke="#2E353A" stroke-miterlimit="10"/>
<path d="M465.058 390.127H429.616L428.716 382.695H464.158L465.058 390.127Z" fill="#C0C0C0" stroke="#2E353A" stroke-miterlimit="10"/>
<path d="M468.413 417.564H432.957L432.057 410.132H467.499L468.413 417.564Z" fill="#C0C0C0" stroke="#2E353A" stroke-miterlimit="10"/>
<path d="M409.01 220.962H413.647" stroke="#2E353A" stroke-width="0.5" stroke-miterlimit="10"/>
<path d="M410.101 223.144H419.102" stroke="#2E353A" stroke-width="0.5" stroke-miterlimit="10"/>
<path d="M444.453 223.144H437.907" stroke="#2E353A" stroke-width="0.5" stroke-miterlimit="10"/>
<path d="M447.726 249.586H441.725" stroke="#2E353A" stroke-width="0.5" stroke-miterlimit="10"/>
<path d="M413.374 250.949H427.284" stroke="#2E353A" stroke-width="0.5" stroke-miterlimit="10"/>
<path d="M415.829 276.573H427.829" stroke="#2E353A" stroke-width="0.5" stroke-miterlimit="10"/>
<path d="M416.374 278.755H422.92" stroke="#2E353A" stroke-width="0.5" stroke-miterlimit="10"/>
<path d="M454.803 303.561H447.453" stroke="#2E353A" stroke-width="0.5" stroke-miterlimit="10"/>
<path d="M454.271 305.742H441.998" stroke="#2E353A" stroke-width="0.5" stroke-miterlimit="10"/>
<path d="M464.949 387.331H453.698" stroke="#2E353A" stroke-width="0.5" stroke-miterlimit="10"/>
<path d="M429.152 385.286H435.971" stroke="#2E353A" stroke-width="0.5" stroke-miterlimit="10"/>
<path d="M451.994 387.331H443.13" stroke="#2E353A" stroke-width="0.5" stroke-miterlimit="10"/>
<path d="M432.561 413.582H442.107" stroke="#2E353A" stroke-width="0.5" stroke-miterlimit="10"/>
<path d="M434.607 415.969H445.516" stroke="#2E353A" stroke-width="0.5" stroke-miterlimit="10"/>
<path d="M423.697 332.784H426.766" stroke="#2E353A" stroke-width="0.5" stroke-miterlimit="10"/>
<path d="M457.108 332.102H445.857" stroke="#2E353A" stroke-width="0.5" stroke-miterlimit="10"/>
<path d="M172.889 302.374L167.489 309.411L50.0211 217.703L55.4349 210.666L172.889 302.374Z" fill="#2E353A" stroke="#2E353A" stroke-width="1.09543" stroke-linecap="round" stroke-linejoin="round"/>
<path d="M50.0211 302.374L55.4349 309.411L172.889 217.703L167.489 210.666L50.0211 302.374Z" fill="#2E353A" stroke="#2E353A" stroke-width="1.09543" stroke-linecap="round" stroke-linejoin="round"/>
<path d="M172.889 405.387L169.548 414.455L50.0211 320.716L53.444 311.565L172.889 405.387Z" fill="#2E353A" stroke="#2E353A" stroke-width="1.09543" stroke-linecap="round" stroke-linejoin="round"/>
<path d="M50.0211 405.387L50.8393 416.023L172.889 320.716L167.489 313.693L50.0211 405.387Z" fill="#2E353A" stroke="#2E353A" stroke-width="1.09543" stroke-linecap="round" stroke-linejoin="round"/>
<path d="M52.7892 209.698H48.0164V446.433H52.7892V209.698Z" fill="#2E353A" stroke="#2E353A" stroke-width="1.09543" stroke-linecap="round" stroke-linejoin="round"/>
<path d="M173.543 209.698H168.771V446.433H173.543V209.698Z" fill="#2E353A" stroke="#2E353A" stroke-width="1.09543" stroke-linecap="round" stroke-linejoin="round"/>
<path d="M149.911 302.374L144.497 309.411L27.0431 217.703L32.4433 210.666L149.911 302.374Z" fill="#C0C0C0" stroke="#2E353A" stroke-width="1.09543" stroke-linecap="round" stroke-linejoin="round"/>
<path d="M27.0431 302.374L32.4433 309.411L149.911 217.703L144.497 210.666L27.0431 302.374Z" fill="#C0C0C0" stroke="#2E353A" stroke-width="1.09543" stroke-linecap="round" stroke-linejoin="round"/>
<path d="M149.911 405.387L146.556 414.455L27.0431 320.716L28.7613 311.565L149.911 405.387Z" fill="#C0C0C0" stroke="#2E353A" stroke-width="1.09543" stroke-linecap="round" stroke-linejoin="round"/>
<path d="M27.0431 405.387L27.8613 416.023L149.911 320.716L144.497 313.693L27.0431 405.387Z" fill="#C0C0C0" stroke="#2E353A" stroke-width="1.09543" stroke-linecap="round" stroke-linejoin="round"/>
<path d="M29.7975 209.698H25.0247V446.433H29.7975V209.698Z" fill="#C0C0C0" stroke="#2E353A" stroke-width="1.09543" stroke-linecap="round" stroke-linejoin="round"/>
<path d="M150.552 209.698H145.779V446.433H150.552V209.698Z" fill="#C0C0C0" stroke="#2E353A" stroke-width="1.09543" stroke-linecap="round" stroke-linejoin="round"/>
<path d="M156.702 207.503H18.8882V215.003H156.702V207.503Z" fill="#C0C0C0" stroke="#2E353A" stroke-width="1.09543" stroke-linecap="round" stroke-linejoin="round"/>
<path d="M177.934 207.503H139.683V215.003H177.934V207.503Z" fill="#2E353A" stroke="#2E353A" stroke-width="1.09543" stroke-linecap="round" stroke-linejoin="round"/>
<path d="M156.702 305.742H18.8882V313.242H156.702V305.742Z" fill="#C0C0C0" stroke="#2E353A" stroke-width="1.09543" stroke-linecap="round" stroke-linejoin="round"/>
<path d="M177.934 305.742H139.683V313.242H177.934V305.742Z" fill="#2E353A" stroke="#2E353A" stroke-width="1.09543" stroke-linecap="round" stroke-linejoin="round"/>
<path d="M328.431 446.42H317.644L332.031 362.131H342.831L328.431 446.42Z" fill="#2E353A" stroke="#2E353A" stroke-width="0.972732" stroke-miterlimit="10"/>
<path d="M350.018 446.42H360.818L346.417 362.131H335.631L350.018 446.42Z" fill="#C0C0C0" stroke="#2E353A" stroke-width="0.972732" stroke-miterlimit="10"/>
<path d="M481.599 446.42H470.813L485.199 362.131H495.986L481.599 446.42Z" fill="#2E353A" stroke="#2E353A" stroke-width="0.972732" stroke-miterlimit="10"/>
<path d="M503.187 446.42H513.987L499.586 362.131H488.8L503.187 446.42Z" fill="#C0C0C0" stroke="#2E353A" stroke-width="0.972732" stroke-miterlimit="10"/>
<path d="M510.741 337.762H304.866V366.358H510.741V337.762Z" fill="#00A8C4" stroke="#2E353A" stroke-width="0.972732" stroke-miterlimit="10"/>
<path d="M515.76 337.762H309.884V366.358H515.76V337.762Z" fill="#00A8C4" stroke="#2E353A" stroke-width="0.972732" stroke-miterlimit="10"/>
<path d="M313.253 366.358H330.722L339.749 337.762H322.28L313.253 366.358Z" fill="#2E353A"/>
<path d="M382.419 337.762H364.936L355.909 366.358H373.391L382.419 337.762Z" fill="#2E353A"/>
<path d="M510.4 337.762H492.918L483.89 366.358H501.373L510.4 337.762Z" fill="#2E353A"/>
<path d="M467.731 337.762H450.262L441.234 366.358H458.703L467.731 337.762Z" fill="#2E353A"/>
<path d="M425.075 337.762H407.592L398.565 366.358H416.047L425.075 337.762Z" fill="#2E353A"/>
<path d="M514.628 350.458H480.563" stroke="#2E353A" stroke-miterlimit="10"/>
<path d="M514.028 355.23H508.655" stroke="#2E353A" stroke-miterlimit="10"/>
<path d="M309.012 354.044H343.076" stroke="#2E353A" stroke-miterlimit="10"/>
<path d="M309.598 348.657H352.636" stroke="#2E353A" stroke-miterlimit="10"/>
</svg>
