<svg width="297" height="258" viewBox="0 0 297 258" fill="none" xmlns="http://www.w3.org/2000/svg">
<path d="M1 252.862H296.468" stroke="#263238" stroke-linecap="round" stroke-linejoin="round"/>
<path d="M228.388 153.191V153.266C228.388 153.39 228.415 153.52 228.47 153.658C228.777 155.163 229.007 156.684 229.157 158.213C229.288 159.525 229.391 161.023 229.418 162.693C229.483 166.551 229.219 170.408 228.628 174.221C228.477 175.225 228.298 176.283 228.085 177.341C227.749 179.086 227.336 180.913 226.828 182.803C226.601 183.682 226.34 184.582 226.065 185.489L225.742 186.595C225.619 187.042 225.495 187.488 225.378 187.969C224.589 191.022 223.958 194.113 223.489 197.231C222.905 201.113 222.541 204.967 222.342 208.615C222.074 213.48 222.087 217.973 222.204 221.669C222.201 221.731 222.201 221.793 222.204 221.855C222.328 225.613 222.561 228.561 222.719 230.237C222.809 231.219 222.871 231.776 222.877 231.81" stroke="#263238" stroke-linecap="round" stroke-linejoin="round"/>
<path d="M228.408 153.287C227.38 152.373 226.14 151.728 224.801 151.411L228.408 153.287Z" fill="white"/>
<path d="M228.408 153.287C227.38 152.373 226.14 151.728 224.801 151.411" stroke="#263238" stroke-linecap="round" stroke-linejoin="round"/>
<path d="M229.178 158.234L231.005 156.578" stroke="#263238" stroke-linecap="round" stroke-linejoin="round"/>
<path d="M226.849 182.81C226.753 182.327 226.61 181.856 226.423 181.401C226.152 180.735 225.784 180.112 225.33 179.553C224.992 179.133 224.607 178.753 224.183 178.419" stroke="#263238" stroke-linecap="round" stroke-linejoin="round"/>
<path d="M225.385 187.962C225.644 187.321 226.032 186.739 226.525 186.253C227.018 185.768 227.605 185.388 228.25 185.139" stroke="#263238" stroke-linecap="round" stroke-linejoin="round"/>
<path d="M222.211 213.521C222.822 212.779 223.283 209.969 223.53 208.457C223.592 208.1 223.64 207.77 223.688 207.571" fill="white"/>
<path d="M222.211 213.521C222.822 212.779 223.283 209.969 223.53 208.457C223.592 208.1 223.64 207.77 223.688 207.571" stroke="#263238" stroke-linecap="round" stroke-linejoin="round"/>
<path d="M217.505 218.619C217.708 218.598 217.913 218.598 218.116 218.619C219.016 218.706 219.875 219.037 220.601 219.576C221.328 220.114 221.894 220.841 222.238 221.676" fill="white"/>
<path d="M217.505 218.619C217.708 218.598 217.913 218.598 218.116 218.619C219.016 218.706 219.875 219.037 220.601 219.576C221.328 220.114 221.894 220.841 222.238 221.676" stroke="#263238" stroke-linecap="round" stroke-linejoin="round"/>
<path d="M228.106 177.396C228.106 177.396 228.429 166.245 222.307 162.198" stroke="#263238" stroke-linecap="round" stroke-linejoin="round"/>
<path d="M228.628 201.298C229.432 203.902 223.819 208.856 223.819 208.856C223.819 208.856 216.406 207.928 215.574 205.331C214.743 202.734 216.646 198.461 220.246 197.362C223.846 196.262 227.852 198.694 228.628 201.298Z" fill="#8FACAE"/>
<path d="M234.873 169.742C234.186 172.49 228.855 174.462 228.855 174.462C228.855 174.462 225.193 170.182 225.88 167.42C226.567 164.658 229.528 161.621 232.015 162.26C234.502 162.899 235.588 166.98 234.873 169.742Z" fill="#8FACAE"/>
<path d="M213.582 211.013C216.914 212.305 218.954 218.2 218.954 218.2C218.954 218.2 213.458 221.161 210.133 219.862C206.807 218.564 203.262 214.909 204.224 212.47C205.186 210.031 210.249 209.687 213.582 211.013Z" fill="#8FACAE"/>
<path d="M220.885 178.584C221.559 179.151 222.333 179.589 223.166 179.876C223.584 180.011 224.032 180.029 224.459 179.927C224.887 179.826 225.279 179.608 225.591 179.299C226.278 178.481 226.113 177.238 225.667 176.214C224.774 174.256 221.49 170.924 218.968 171.879C215.327 173.273 219.263 177.396 220.885 178.584Z" fill="#8FACAE"/>
<path d="M228.34 183.579C227.859 184.17 227.35 184.919 227.618 185.64C227.768 185.943 228.013 186.189 228.316 186.338C228.619 186.487 228.963 186.531 229.295 186.465C229.954 186.308 230.569 186.005 231.095 185.579C232.379 184.685 235.018 182.83 233.334 181.065C231.651 179.299 229.315 182.336 228.34 183.579Z" fill="#8FACAE"/>
<path d="M217.587 158.66C217.31 158.676 217.044 158.779 216.829 158.954C216.613 159.129 216.458 159.367 216.385 159.635C216.275 160.274 216.804 160.831 217.312 161.222C218.59 162.212 222.431 164.864 223.283 162.301C224.094 159.883 219.277 158.474 217.587 158.66Z" fill="#8FACAE"/>
<path d="M224.657 150.236C223.867 150.312 223.077 150.024 222.28 150.072C221.483 150.12 220.61 150.759 220.782 151.542C220.954 152.325 221.84 152.497 222.568 152.538C223.822 152.619 225.081 152.533 226.313 152.284C226.604 152.256 226.874 152.119 227.068 151.899C227.391 151.425 226.883 150.793 226.333 150.628C225.769 150.553 225.214 150.42 224.677 150.23L224.657 150.236Z" fill="#8FACAE"/>
<path d="M232.393 155.685C233.183 155.685 233.953 155.369 234.75 155.362C235.547 155.355 236.467 155.939 236.337 156.736C236.206 157.533 235.354 157.76 234.626 157.849C233.381 158.014 232.12 158.014 230.875 157.849C230.58 157.842 230.299 157.722 230.091 157.512C229.741 157.066 230.208 156.399 230.737 156.193C231.297 156.089 231.844 155.92 232.366 155.692L232.393 155.685Z" fill="#8FACAE"/>
<path d="M231.61 214.236C231.792 214.046 232.035 213.926 232.297 213.899C232.473 213.916 232.639 213.993 232.764 214.119C232.889 214.244 232.967 214.409 232.984 214.586C233.022 214.925 232.98 215.269 232.86 215.589C232.317 217.396 226.271 230.443 224.877 228.1C224.059 226.726 226.079 222.13 226.677 220.831C227.817 218.298 229.502 216.046 231.61 214.236Z" fill="#8FACAE"/>
<path d="M228.662 154.036C228.662 154.036 228.298 150.869 229.061 150.601" stroke="#263238" stroke-linecap="round" stroke-linejoin="round"/>
<path d="M227.989 150.731C228.379 149.613 229.051 148.614 229.94 147.832C230.895 147.145 232.427 147.09 233.121 148.045C233.898 149.11 233.121 150.724 231.933 151.295C230.744 151.865 229.343 151.693 228.037 151.508C228.037 151.315 228.037 151.123 228.037 150.93L227.989 150.731Z" fill="#8FACAE"/>
<path d="M231.246 252.704C224.769 253.796 218.155 253.796 211.678 252.704L204.066 230.244H238.858L231.246 252.704Z" fill="white" stroke="#263238" stroke-linecap="round" stroke-linejoin="round"/>
<path d="M98.4655 90.4353V90.5109C98.493 90.6345 98.5205 90.7651 98.548 90.9025C98.8592 92.4074 99.0886 93.928 99.235 95.4577C99.3656 96.77 99.4618 98.2677 99.4961 99.9373C99.5666 103.786 99.3091 107.634 98.7266 111.439C98.5755 112.442 98.3968 113.5 98.1838 114.558C97.8472 116.303 97.4281 118.13 96.9265 120.02C96.6929 120.899 96.4387 121.799 96.1639 122.706C96.054 123.077 95.944 123.441 95.841 123.812C95.7379 124.183 95.5868 124.706 95.47 125.187" stroke="#263238" stroke-linecap="round" stroke-linejoin="round"/>
<path d="M98.4794 90.5314C97.9865 90.0999 97.4473 89.7243 96.8717 89.4115C96.237 89.0771 95.5631 88.8232 94.8655 88.6558" fill="white"/>
<path d="M98.4794 90.5314C97.9865 90.0999 97.4473 89.7243 96.8717 89.4115C96.237 89.0771 95.5631 88.8232 94.8655 88.6558" stroke="#263238" stroke-linecap="round" stroke-linejoin="round"/>
<path d="M99.2488 95.4781L101.083 93.8223" stroke="#263238" stroke-linecap="round" stroke-linejoin="round"/>
<path d="M96.9265 120.054C96.8285 119.572 96.6835 119.1 96.4937 118.646C96.2229 117.979 95.8547 117.356 95.4013 116.797C95.0627 116.378 94.6778 115.997 94.2539 115.664" stroke="#263238" stroke-linecap="round" stroke-linejoin="round"/>
<path d="M95.4631 125.18C95.7195 124.537 96.1057 123.955 96.5975 123.469C97.0893 122.983 97.6762 122.604 98.3213 122.356" stroke="#263238" stroke-linecap="round" stroke-linejoin="round"/>
<path d="M92.2822 150.766C92.8937 150.024 93.3609 147.214 93.6082 145.702C93.6632 145.345 93.7182 145.015 93.7594 144.816" fill="white"/>
<path d="M92.2822 150.766C92.8937 150.024 93.3609 147.213 93.6082 145.702C93.6632 145.345 93.7182 145.015 93.7594 144.816" stroke="#263238" stroke-linecap="round" stroke-linejoin="round"/>
<path d="M87.5757 155.836C87.7813 155.815 87.9884 155.815 88.194 155.836C89.0933 155.925 89.9514 156.257 90.6772 156.795C91.4031 157.334 91.9695 158.059 92.3164 158.893" fill="white"/>
<path d="M87.5757 155.836C87.7813 155.815 87.9884 155.815 88.194 155.836C89.0933 155.925 89.9514 156.257 90.6772 156.795C91.4031 157.334 91.9695 158.059 92.3164 158.893" stroke="#263238" stroke-linecap="round" stroke-linejoin="round"/>
<path d="M98.1769 114.613C98.1769 114.613 98.5067 103.462 92.3782 99.415" stroke="#263238" stroke-linecap="round" stroke-linejoin="round"/>
<path d="M98.7337 138.543C99.5307 141.147 93.9243 146.1 93.9243 146.1C93.9243 146.1 86.5041 145.173 85.6797 142.576C84.8552 139.979 86.7583 135.705 90.3516 134.606C93.9449 133.507 97.9298 135.946 98.7337 138.543Z" fill="#8FACAE"/>
<path d="M104.958 106.986C104.271 109.735 98.9396 111.706 98.9396 111.706C98.9396 111.706 95.2364 107.426 95.9509 104.664C96.6654 101.902 99.5923 98.8654 102.079 99.5043C104.567 100.143 105.645 104.224 104.958 106.986Z" fill="#8FACAE"/>
<path d="M83.6596 148.258C86.9918 149.556 89.0393 155.444 89.0393 155.444C89.0393 155.444 83.5428 158.405 80.2106 157.107C76.8784 155.808 73.3401 152.153 74.3088 149.714C75.2776 147.275 80.3205 146.959 83.6596 148.258Z" fill="#8FACAE"/>
<path d="M90.963 115.829C91.6351 116.396 92.4061 116.833 93.2372 117.12C93.6555 117.256 94.103 117.273 94.5307 117.172C94.9585 117.07 95.35 116.852 95.6625 116.543C96.3495 115.726 96.1846 114.482 95.7381 113.458C94.8449 111.5 91.5676 108.168 89.0393 109.123C85.4048 110.504 89.3347 114.626 90.963 115.829Z" fill="#8FACAE"/>
<path d="M98.4106 120.83C97.9365 121.421 97.4281 122.205 97.6892 122.892C97.8386 123.195 98.084 123.44 98.3872 123.589C98.6904 123.738 99.0343 123.783 99.3656 123.716C100.025 123.561 100.641 123.258 101.166 122.83C102.45 121.943 105.089 120.082 103.405 118.316C101.722 116.55 99.4205 119.58 98.4106 120.83Z" fill="#8FACAE"/>
<path d="M87.6584 95.904C87.3813 95.9212 87.1166 96.0244 86.901 96.1993C86.6855 96.3742 86.5299 96.6121 86.456 96.8796C86.3461 97.5186 86.8751 98.0751 87.3904 98.4667C88.6683 99.4561 92.5021 102.108 93.3609 99.5454C94.1648 97.127 89.3554 95.7185 87.6584 95.904Z" fill="#8FACAE"/>
<path d="M94.728 87.4809C93.9379 87.5565 93.1478 87.2679 92.3577 87.316C91.5676 87.3641 90.6812 88.003 90.8599 88.7863C91.0385 89.5695 91.9111 89.7413 92.6462 89.7825C93.8978 89.8629 95.1546 89.7775 96.3838 89.5283C96.6775 89.5009 96.9499 89.3635 97.1464 89.1436C97.4625 88.6695 96.9541 88.0374 96.4113 87.8725C95.8447 87.7977 95.2875 87.6641 94.7486 87.474L94.728 87.4809Z" fill="#8FACAE"/>
<path d="M102.464 92.9292C103.261 92.9292 104.031 92.6131 104.821 92.6063C105.611 92.5994 106.538 93.1834 106.415 93.9804C106.291 94.7774 105.425 95.0041 104.697 95.0934C103.452 95.2583 102.191 95.2583 100.946 95.0934C100.651 95.0867 100.37 94.966 100.163 94.7567C99.8122 94.3102 100.279 93.6437 100.815 93.4376C101.375 93.331 101.921 93.1628 102.444 92.9361L102.464 92.9292Z" fill="#8FACAE"/>
<path d="M101.681 151.48C101.864 151.291 102.107 151.172 102.368 151.143C102.543 151.164 102.706 151.243 102.831 151.367C102.956 151.492 103.035 151.655 103.055 151.83C103.091 152.17 103.046 152.514 102.925 152.833C102.389 154.64 96.3357 167.688 94.9479 165.345C94.1234 163.971 96.1434 159.374 96.7411 158.076C97.8838 155.541 99.5703 153.289 101.681 151.48Z" fill="#8FACAE"/>
<path d="M98.7336 91.2939C98.7336 91.2939 98.3694 88.1266 99.1389 87.8586" stroke="#263238" stroke-linecap="round" stroke-linejoin="round"/>
<path d="M98.0876 87.9755C98.4721 86.8545 99.1451 85.8544 100.039 85.0761C100.994 84.3891 102.519 84.3341 103.213 85.2891C103.989 86.3541 103.213 87.9686 102.024 88.5389C100.836 89.1091 99.4411 88.9374 98.1357 88.7519C98.1357 88.5595 98.1357 88.3671 98.1357 88.1748L98.0876 87.9755Z" fill="#8FACAE"/>
<path d="M11.4158 166.382V98.4944" stroke="#263238" stroke-linecap="round" stroke-linejoin="round"/>
<path d="M223.372 166.382H214.983" stroke="#263238" stroke-linecap="round" stroke-linejoin="round"/>
<path d="M289.158 166.382H272.071" stroke="#263238" stroke-linecap="round" stroke-linejoin="round"/>
<path d="M214.214 63.2486H244.492V34.406" stroke="#263238" stroke-linecap="round" stroke-linejoin="round"/>
<path d="M37.7368 54.4404H69.9047V77.9033H105.164" stroke="#263238" stroke-linecap="round" stroke-linejoin="round"/>
<path d="M18.7605 133.898V82.0532" stroke="#263238" stroke-linecap="round" stroke-linejoin="round"/>
<path d="M33.1335 59.5522V100.185" stroke="#263238" stroke-linecap="round" stroke-linejoin="round"/>
<path d="M47.5 59.5522V95.4715" stroke="#263238" stroke-linecap="round" stroke-linejoin="round"/>
<path d="M61.8662 59.5522V122.383" stroke="#263238" stroke-linecap="round" stroke-linejoin="round"/>
<path d="M130.688 50.641V9.32837H189.177V50.641" stroke="#263238" stroke-linecap="round" stroke-linejoin="round"/>
<path d="M134.976 29.8509V14.2341H145.79" stroke="#263238" stroke-linecap="round" stroke-linejoin="round"/>
<path d="M148.167 29.8509V14.2341H158.981" stroke="#263238" stroke-linecap="round" stroke-linejoin="round"/>
<path d="M161.358 29.8509V14.2341H172.173" stroke="#263238" stroke-linecap="round" stroke-linejoin="round"/>
<path d="M174.55 29.8509V14.2341H185.364" stroke="#263238" stroke-linecap="round" stroke-linejoin="round"/>
<path d="M134.976 50.6412V35.0244H145.79" stroke="#263238" stroke-linecap="round" stroke-linejoin="round"/>
<path d="M148.167 50.6412V35.0244H158.981" stroke="#263238" stroke-linecap="round" stroke-linejoin="round"/>
<path d="M161.358 50.6412V35.0244H172.173" stroke="#263238" stroke-linecap="round" stroke-linejoin="round"/>
<path d="M174.55 50.6412V35.0244H185.364" stroke="#263238" stroke-linecap="round" stroke-linejoin="round"/>
<path d="M249.178 37.9785V89.7481" stroke="#263238" stroke-linecap="round" stroke-linejoin="round"/>
<path d="M270.415 162.59H272.071" stroke="#263238" stroke-linecap="round" stroke-linejoin="round"/>
<path d="M261.909 52.8464V110.806" stroke="#263238" stroke-linecap="round" stroke-linejoin="round"/>
<path d="M274.647 147.791V162.59H284.808" stroke="#263238" stroke-linecap="round" stroke-linejoin="round"/>
<path d="M274.647 71.7405V111.102" stroke="#263238" stroke-linecap="round" stroke-linejoin="round"/>
<path d="M287.378 101.607V162.59H289.694" stroke="#263238" stroke-linecap="round" stroke-linejoin="round"/>
<path d="M132.227 167.626H1V252.862H132.227V167.626Z" fill="white" stroke="#263238" stroke-linecap="round" stroke-linejoin="round"/>
<path d="M1 167.626L66.6137 210.244L132.227 167.626H1Z" fill="white" stroke="#263238" stroke-linecap="round" stroke-linejoin="round"/>
<path d="M46.8884 197.43L1 252.862" stroke="#263238" stroke-linecap="round" stroke-linejoin="round"/>
<path d="M86.6963 197.43L132.585 252.862" stroke="#263238" stroke-linecap="round" stroke-linejoin="round"/>
<path d="M202.451 58.865H171.946C171.067 58.866 170.205 59.1023 169.449 59.5494C168.692 59.9964 168.069 60.6379 167.645 61.4071C166.895 62.76 165.797 63.8875 164.465 64.6727C163.132 65.4578 161.613 65.8719 160.067 65.8719C158.52 65.8719 157.002 65.4578 155.669 64.6727C154.336 63.8875 153.238 62.76 152.489 61.4071C152.067 60.6279 151.443 59.9771 150.683 59.5236C149.922 59.07 149.053 58.8306 148.167 58.8306H117.696C116.86 58.8197 116.029 58.9737 115.252 59.2837C114.476 59.5938 113.767 60.0538 113.168 60.6376C112.569 61.2214 112.091 61.9174 111.761 62.6861C111.431 63.4547 111.255 64.2808 111.245 65.1172V237.169C111.268 238.858 111.961 240.468 113.17 241.647C114.38 242.825 116.007 243.476 117.696 243.456H202.451C204.14 243.476 205.769 242.826 206.979 241.647C208.19 240.469 208.884 238.859 208.909 237.169V65.1515C208.886 63.4617 208.192 61.8503 206.981 60.6715C205.77 59.4927 204.141 58.843 202.451 58.865Z" fill="#8FACAE"/>
<path d="M211.884 63.2484C211.888 62.0894 211.663 60.941 211.222 59.8692C210.781 58.7974 210.133 57.8232 209.314 57.0024C208.496 56.1816 207.524 55.5303 206.453 55.0859C205.383 54.6416 204.235 54.4128 203.076 54.4128H117.078C115.921 54.4119 114.776 54.6389 113.708 55.0808C112.639 55.5227 111.668 56.1709 110.85 56.9882C110.032 57.8056 109.383 58.7761 108.94 59.8444C108.498 60.9126 108.27 62.0576 108.27 63.214V244.04C108.27 246.374 109.197 248.613 110.848 250.263C112.498 251.914 114.737 252.841 117.071 252.841H203.076C205.411 252.841 207.651 251.914 209.302 250.264C210.954 248.613 211.883 246.375 211.884 244.04V63.2484ZM208.91 237.169C208.884 238.859 208.19 240.469 206.98 241.647C205.769 242.826 204.141 243.476 202.451 243.456H117.696C116.007 243.476 114.38 242.825 113.17 241.647C111.961 240.468 111.268 238.858 111.245 237.169V65.1515C111.255 64.3151 111.431 63.489 111.761 62.7204C112.091 61.9518 112.569 61.2557 113.168 60.6719C113.767 60.0882 114.476 59.6281 115.252 59.3181C116.029 59.008 116.86 58.8541 117.696 58.865H148.181C149.066 58.8647 149.934 59.1041 150.694 59.5577C151.453 60.0114 152.076 60.6623 152.495 61.4414C153.245 62.7943 154.343 63.9219 155.676 64.707C157.008 65.4921 158.527 65.9062 160.074 65.9062C161.62 65.9062 163.139 65.4921 164.472 64.707C165.804 63.9219 166.902 62.7943 167.652 61.4414C168.075 60.6713 168.698 60.029 169.455 59.5818C170.211 59.1346 171.074 58.8989 171.953 58.8993H202.458C203.294 58.8884 204.125 59.0424 204.902 59.3524C205.679 59.6625 206.387 60.1225 206.986 60.7063C207.585 61.2901 208.063 61.9861 208.393 62.7547C208.723 63.5234 208.899 64.3494 208.91 65.1859V237.169Z" fill="#263238"/>
<path opacity="0.2" d="M182.664 54.4404L125.536 252.855L148.222 252.834L203.235 54.4404H182.664Z" fill="white"/>
<path opacity="0.2" d="M174.145 54.4404L113.746 252.862L117.05 252.841L176.316 54.4404H174.145Z" fill="white"/>
<path d="M175.485 201.944C175.527 203.911 175.175 205.866 174.45 207.695C173.725 209.523 172.641 211.189 171.263 212.592C169.884 213.995 168.239 215.109 166.423 215.867C164.608 216.624 162.659 217.011 160.692 217.004C156.678 216.989 152.83 215.406 149.967 212.592C147.105 209.778 145.455 205.957 145.371 201.944C145.33 199.978 145.682 198.023 146.408 196.196C147.133 194.368 148.217 192.703 149.595 191.301C150.974 189.898 152.619 188.785 154.434 188.028C156.249 187.27 158.197 186.884 160.163 186.891C164.176 186.904 168.025 188.486 170.888 191.299C173.751 194.111 175.4 197.932 175.485 201.944Z" fill="white" stroke="#263238" stroke-linecap="round" stroke-linejoin="round"/>
<path d="M155.491 213.184C154.093 212.667 152.811 211.878 151.719 210.862C150.619 209.805 149.767 208.517 149.225 207.09C148.608 205.491 148.302 203.789 148.325 202.075C148.317 200.613 148.575 199.163 149.088 197.794C149.554 196.53 150.253 195.365 151.149 194.359C152.915 192.427 155.196 191.04 157.724 190.36C158.965 190.026 160.245 189.857 161.53 189.859C162.598 189.854 163.661 189.981 164.698 190.237C165.698 190.482 166.654 190.878 167.535 191.412C168.407 191.935 169.189 192.597 169.851 193.37C170.54 194.203 171.067 195.159 171.403 196.187C171.789 197.359 171.979 198.587 171.967 199.821C171.952 202.206 171.093 204.509 169.541 206.321C168.874 207.077 168.085 207.716 167.205 208.21C166.447 208.645 165.592 208.881 164.718 208.897C164.115 208.905 163.526 208.714 163.042 208.354C162.799 208.174 162.601 207.94 162.464 207.671C162.327 207.402 162.254 207.104 162.252 206.802C161.801 207.487 161.182 208.045 160.455 208.424C159.727 208.803 158.915 208.989 158.095 208.966C157.45 208.995 156.807 208.879 156.212 208.627C155.618 208.375 155.088 207.993 154.66 207.509C153.802 206.512 153.349 205.23 153.389 203.916C153.394 202.834 153.583 201.761 153.945 200.742C154.306 199.715 154.818 198.747 155.464 197.87C156.107 197.008 156.927 196.294 157.868 195.774C158.809 195.243 159.873 194.966 160.953 194.97C161.705 194.963 162.446 195.142 163.111 195.493C163.756 195.837 164.279 196.372 164.608 197.025L164.746 196.564C164.855 196.242 165.088 195.976 165.394 195.826C165.699 195.675 166.052 195.651 166.374 195.761C166.499 195.803 166.617 195.863 166.724 195.939C166.827 196.021 166.908 196.126 166.962 196.245C167.016 196.365 167.04 196.495 167.034 196.626C167.034 196.755 167.013 196.882 166.972 197.004L164.746 204.411C164.55 204.975 164.423 205.561 164.368 206.156C164.347 206.267 164.355 206.381 164.389 206.489C164.423 206.596 164.483 206.694 164.564 206.772C164.645 206.851 164.744 206.909 164.852 206.94C164.961 206.972 165.075 206.976 165.185 206.953C165.973 206.902 166.711 206.55 167.247 205.97C167.989 205.236 168.559 204.347 168.916 203.366C169.343 202.295 169.562 201.153 169.562 200C169.571 198.984 169.423 197.974 169.122 197.004C168.87 196.168 168.47 195.384 167.941 194.689C167.44 194.056 166.833 193.514 166.147 193.088C165.464 192.657 164.718 192.335 163.935 192.133C163.132 191.922 162.305 191.816 161.475 191.817C160.423 191.818 159.375 191.966 158.363 192.257C157.321 192.552 156.328 192.999 155.416 193.583C154.496 194.163 153.663 194.871 152.942 195.685C152.2 196.543 151.622 197.53 151.238 198.598C150.807 199.761 150.59 200.992 150.599 202.233C150.577 203.701 150.843 205.16 151.383 206.527C151.848 207.709 152.582 208.768 153.526 209.618C154.439 210.41 155.492 211.023 156.632 211.425C157.834 211.851 159.101 212.065 160.376 212.058C161.739 212.058 163.094 211.851 164.395 211.446C164.525 211.399 164.663 211.376 164.801 211.377C164.93 211.375 165.057 211.401 165.176 211.452C165.294 211.502 165.401 211.578 165.488 211.673C165.575 211.764 165.644 211.872 165.69 211.99C165.736 212.107 165.758 212.233 165.756 212.36C165.772 212.56 165.716 212.759 165.597 212.92C165.479 213.082 165.306 213.195 165.11 213.239C163.488 213.735 161.804 213.994 160.108 214.009C158.533 214.007 156.97 213.728 155.491 213.184ZM161.166 206.06C161.846 205.572 162.349 204.878 162.602 204.081L164.038 199.031L163.942 198.825C163.853 198.659 163.744 198.505 163.619 198.364C163.447 198.166 163.258 197.982 163.056 197.815C162.798 197.609 162.508 197.449 162.197 197.341C161.384 197.057 160.494 197.089 159.703 197.43C159.27 197.614 158.872 197.872 158.528 198.193C158.17 198.526 157.852 198.9 157.58 199.306C157.307 199.728 157.077 200.177 156.893 200.646C156.7 201.114 156.55 201.599 156.446 202.095C156.342 202.567 156.289 203.048 156.288 203.531C156.282 203.841 156.3 204.151 156.343 204.459C156.375 204.732 156.435 205.001 156.522 205.263C156.597 205.505 156.706 205.737 156.845 205.95C156.969 206.141 157.127 206.309 157.312 206.444C157.508 206.587 157.73 206.692 157.965 206.753C158.239 206.834 158.524 206.871 158.81 206.863C159.669 206.874 160.508 206.598 161.194 206.08L161.166 206.06Z" fill="#8FACAE" stroke="#263238" stroke-linecap="round" stroke-linejoin="round"/>
<path d="M175.148 150.326C175.189 152.292 174.836 154.246 174.111 156.074C173.385 157.902 172.302 159.566 170.923 160.969C169.545 162.372 167.9 163.485 166.085 164.242C164.27 164.999 162.322 165.386 160.355 165.379C156.342 165.366 152.493 163.784 149.631 160.971C146.768 158.158 145.118 154.338 145.034 150.326C144.991 148.359 145.342 146.403 146.067 144.574C146.792 142.745 147.875 141.079 149.254 139.676C150.633 138.272 152.278 137.159 154.094 136.401C155.91 135.644 157.859 135.258 159.826 135.265C163.84 135.281 167.689 136.864 170.552 139.678C173.414 142.492 175.063 146.313 175.148 150.326Z" fill="white" stroke="#263238" stroke-linecap="round" stroke-linejoin="round"/>
<path d="M169.541 148.952C164.821 145.86 155.567 145.86 151.067 148.952C150.243 149.106 149.503 149.551 148.981 150.206C148.459 150.86 148.19 151.681 148.222 152.517C148.291 154.517 156.597 154.517 156.529 152.517C156.488 151.682 156.169 150.883 155.622 150.25C158.737 149.577 161.96 149.577 165.076 150.25C164.569 150.895 164.306 151.698 164.334 152.517C164.402 154.517 172.709 154.517 172.633 152.517C172.594 151.662 172.268 150.845 171.707 150.197C171.146 149.55 170.383 149.112 169.541 148.952Z" fill="#8FACAE" stroke="#263238" stroke-linecap="round" stroke-linejoin="round"/>
<path d="M175.148 100.185C175.23 103.888 173.21 107.199 169.967 109.405V118.398L163.516 111.94C162.473 112.127 161.415 112.219 160.355 112.215C152.042 112.215 145.178 106.828 145.034 100.185C144.89 93.5408 151.506 88.1611 159.826 88.1611C168.147 88.1611 175.038 93.5751 175.148 100.185Z" fill="white" stroke="#263238" stroke-linecap="round" stroke-linejoin="round"/>
<path d="M153.677 100.185C153.679 100.571 153.565 100.949 153.352 101.271C153.138 101.592 152.834 101.843 152.478 101.992C152.121 102.141 151.729 102.181 151.35 102.106C150.971 102.032 150.622 101.846 150.349 101.574C150.075 101.301 149.889 100.953 149.813 100.575C149.737 100.196 149.775 99.8033 149.923 99.4464C150.07 99.0894 150.32 98.7843 150.641 98.5696C150.962 98.3549 151.34 98.2402 151.726 98.2402C152.242 98.2402 152.738 98.4449 153.103 98.8093C153.469 99.1737 153.676 99.6683 153.677 100.185Z" fill="#8FACAE" stroke="#263238" stroke-linecap="round" stroke-linejoin="round"/>
<path d="M162.025 100.185C162.026 100.571 161.913 100.949 161.7 101.271C161.486 101.592 161.182 101.843 160.825 101.992C160.469 102.141 160.076 102.181 159.697 102.106C159.318 102.032 158.97 101.846 158.697 101.574C158.423 101.301 158.236 100.953 158.161 100.575C158.085 100.196 158.123 99.8033 158.27 99.4464C158.418 99.0894 158.668 98.7843 158.989 98.5696C159.31 98.3549 159.688 98.2402 160.074 98.2402C160.59 98.2402 161.085 98.4449 161.451 98.8093C161.817 99.1737 162.023 99.6683 162.025 100.185Z" fill="#8FACAE" stroke="#263238" stroke-linecap="round" stroke-linejoin="round"/>
<path d="M170.373 100.185C170.374 100.571 170.261 100.949 170.047 101.271C169.834 101.592 169.529 101.843 169.173 101.992C168.817 102.141 168.424 102.181 168.045 102.106C167.666 102.032 167.318 101.846 167.044 101.574C166.771 101.301 166.584 100.953 166.508 100.575C166.432 100.196 166.471 99.8033 166.618 99.4464C166.766 99.0894 167.016 98.7843 167.337 98.5696C167.658 98.3549 168.035 98.2402 168.421 98.2402C168.938 98.2402 169.433 98.4449 169.799 98.8093C170.164 99.1737 170.371 99.6683 170.373 100.185Z" fill="#8FACAE" stroke="#263238" stroke-linecap="round" stroke-linejoin="round"/>
<path d="M75.9645 127.605C75.7206 128.058 75.3691 128.445 74.9408 128.732C71.7712 131.26 68.5283 133.685 65.2121 136.007C63.996 136.859 62.7318 137.739 61.5569 138.694C54.494 143.421 58.8087 144.575 54.494 154.579C53.4772 156.969 53.6627 168.684 53.6627 168.684H53.3123C52.4852 167.867 51.6063 167.106 50.6809 166.403C50.553 166.317 50.42 166.239 50.2824 166.169C50.1533 166.103 50.0139 166.058 49.8701 166.039C49.1831 165.997 46.5654 166.313 43.9203 166.142L43.2332 166.087C42.8485 166.045 42.4706 165.997 42.0927 165.929C41.7148 165.86 41.3507 165.784 41.0003 165.688C38.49 164.883 36.0285 163.934 33.6282 162.844L32.4327 162.328L31.8418 162.074L31.3059 161.841L30.9212 161.676L30.5502 161.518C29.925 161.257 29.341 161.016 28.8051 160.831C28.5594 160.743 28.3094 160.667 28.0562 160.604C28.0562 161.167 27.9669 161.744 27.8913 162.308C27.5615 164.994 26.8263 167.475 25.5141 167.804C25.487 167.811 25.4587 167.811 25.4316 167.804C25.316 167.826 25.1988 167.837 25.0812 167.839H24.9782C24.6875 167.833 24.3997 167.779 24.1262 167.681C22.9353 167.172 21.962 166.26 21.378 165.104C21.117 164.617 20.9713 164.076 20.952 163.524C20.952 161.525 20.3955 149.728 20.3955 146.293C20.3955 142.857 21.0826 136.846 22.7933 134.613C23.4619 133.666 24.3063 132.857 25.2805 132.229C26.534 131.184 27.9717 130.382 29.5196 129.865C31.3472 129.267 35.4351 127.742 38.2864 126.663L33.9786 128.326C35.071 130.195 37.4138 133.136 41.6392 133.513C45.6104 133.85 48.0701 130.257 49.3274 127.632C49.4373 127.673 56.3491 126.361 57.9499 126.437C63.1647 126.663 67.4175 123.84 69.3413 122.72C69.9216 122.373 70.5727 122.162 71.246 122.102C71.9193 122.043 72.5974 122.136 73.2297 122.375C73.8619 122.614 74.432 122.993 74.8972 123.483C75.3624 123.974 75.7108 124.563 75.9164 125.207V125.269C76.217 126.015 76.2341 126.846 75.9645 127.605Z" fill="#8FACAE" stroke="#263238" stroke-linecap="round" stroke-linejoin="round"/>
<path d="M49.2518 127.673L48.9358 127.563L49.2518 127.673Z" fill="white" stroke="#263238" stroke-linecap="round" stroke-linejoin="round"/>
<path d="M55.1124 171.707C55.1157 171.734 55.1157 171.762 55.1124 171.789C55.0845 171.856 55.042 171.915 54.9881 171.963C54.9343 172.01 54.8703 172.046 54.8011 172.065C54.7319 172.085 54.6591 172.089 54.5881 172.077C54.5171 172.065 54.4497 172.037 54.391 171.995C54.0749 171.817 53.5871 170.669 53.5871 170.669L53.0443 170.106L52.6871 169.728C52.742 169.865 53.1749 170.917 52.9481 171.404C52.9366 171.438 52.9178 171.468 52.8932 171.494C52.7414 171.697 52.5443 171.861 52.3177 171.975C52.0911 172.088 51.8411 172.147 51.5878 172.146C51.2923 172.146 50.4266 172.249 49.6709 172.298H49.5884C49.3596 172.31 49.1302 172.31 48.9014 172.298C48.2914 172.219 47.7029 172.021 47.17 171.714C45.9614 171.536 44.7705 171.253 43.6111 170.869L43.405 170.759L43.2194 170.649C43.0975 170.575 42.9845 170.487 42.8828 170.388C42.4641 170.039 42.1085 169.62 41.8316 169.151C41.8316 169.151 39.0422 169.034 35.2977 168.746C33.9236 168.642 32.4396 168.512 30.9006 168.361C28.5371 168.12 26.5859 168.134 25.0537 167.921H24.9438C24.6415 167.88 24.3598 167.825 24.0919 167.763C23.438 167.635 22.8333 167.326 22.3472 166.87C21.8611 166.414 21.5133 165.831 21.3436 165.187C21.2537 164.882 21.1803 164.572 21.1238 164.259L22.3193 162.198C22.9423 161.698 23.6372 161.295 24.3804 161.002C25.5335 160.52 26.8068 160.402 28.0287 160.666C28.282 160.729 28.5319 160.804 28.7776 160.893C29.3135 161.099 29.8975 161.339 30.5227 161.58L30.9006 161.738L31.2853 161.902L31.8212 162.136C34.8786 163.4 38.5269 165.029 40.9659 165.716C41.6985 165.907 42.4451 166.041 43.1988 166.114L43.8859 166.169C46.5311 166.341 49.1419 166.025 49.8358 166.066C50.5297 166.107 52.2267 167.722 53.3123 168.718C53.6077 168.993 53.8688 169.22 54.0474 169.357L54.1299 169.426L54.1917 169.481C54.5852 169.884 54.8608 170.388 54.9887 170.937C55.0428 171.121 55.0796 171.31 55.0986 171.501C55.1111 171.569 55.1157 171.638 55.1124 171.707Z" fill="white" stroke="#263238" stroke-linecap="round" stroke-linejoin="round"/>
<path d="M55.1124 171.707C55.1157 171.734 55.1157 171.762 55.1124 171.789C55.0838 171.855 55.0408 171.914 54.9866 171.961C54.9325 172.008 54.8684 172.042 54.7993 172.061C54.7301 172.08 54.6575 172.084 54.5869 172.071C54.5162 172.059 54.4493 172.03 54.391 171.989C54.0512 171.594 53.7796 171.146 53.5871 170.663L53.0443 170.106L52.6871 169.735C52.7352 169.845 53.1817 170.917 52.955 171.411C52.9435 171.445 52.9247 171.475 52.9001 171.501C52.8239 171.602 52.7363 171.694 52.639 171.776C52.3427 172.014 51.9747 172.144 51.5946 172.147C51.2923 172.147 50.4335 172.243 49.6846 172.298H49.5884C49.3596 172.31 49.1302 172.31 48.9014 172.298C48.2951 172.217 47.7098 172.021 47.1769 171.721C45.9683 171.54 44.7775 171.255 43.6179 170.869L43.4187 170.772L43.2332 170.663C43.1144 170.584 43.0018 170.497 42.8965 170.401C42.4717 170.05 42.1114 169.626 41.8316 169.151C41.8316 169.151 39.1246 169.034 35.4557 168.753C34.0816 168.649 32.4945 168.512 30.9006 168.354C28.7295 168.141 26.9363 168.079 25.4866 167.852L25.04 167.77L24.5247 167.653C24.4059 166.811 24.4931 165.953 24.7789 165.152C25.0452 164.477 25.4583 163.869 25.9882 163.372C26.5181 162.875 27.1517 162.502 27.8432 162.28C28.7014 161.965 29.5807 161.71 30.4746 161.518L30.8456 161.676L31.2304 161.841L31.7663 162.074C34.8786 163.414 38.4856 165.036 40.9316 165.702C41.6636 165.895 42.4105 166.026 43.1645 166.094L43.8515 166.149C46.4967 166.327 49.1075 166.011 49.8014 166.052C50.4954 166.094 52.1855 167.701 53.2367 168.698C53.4752 168.925 53.7251 169.141 53.9856 169.343L54.068 169.405L54.1299 169.46C54.5309 169.858 54.8077 170.364 54.9269 170.917C54.9809 171.101 55.0177 171.289 55.0368 171.48C55.0719 171.552 55.0974 171.628 55.1124 171.707Z" fill="white" stroke="#263238" stroke-linecap="round" stroke-linejoin="round"/>
<path d="M46.8884 169.879C46.8884 169.879 48.448 170.69 49.0664 170.972C49.6847 171.253 49.6298 172.387 49.6298 172.387" fill="white"/>
<path d="M46.8884 169.879C46.8884 169.879 48.448 170.69 49.0664 170.972C49.6847 171.253 49.6298 172.387 49.6298 172.387" stroke="#263238" stroke-linecap="round" stroke-linejoin="round"/>
<path d="M48.5579 168.78C49.539 169.48 50.4838 170.23 51.3885 171.027C51.5207 171.182 51.6068 171.371 51.6372 171.572C51.6675 171.774 51.6409 171.98 51.5603 172.167" fill="white"/>
<path d="M48.5579 168.78C49.539 169.48 50.4838 170.23 51.3885 171.027C51.5207 171.182 51.6068 171.371 51.6372 171.572C51.6675 171.774 51.6409 171.98 51.5603 172.167" stroke="#263238" stroke-linecap="round" stroke-linejoin="round"/>
<path d="M52.6665 169.721C51.8536 168.85 50.9935 168.024 50.0901 167.248L52.6665 169.721Z" fill="white"/>
<path d="M52.6665 169.721C51.8536 168.85 50.9935 168.024 50.0901 167.248" stroke="#263238" stroke-linecap="round" stroke-linejoin="round"/>
<path d="M49.245 127.687C48.0014 130.305 45.5349 133.871 41.5637 133.562C37.359 133.204 34.9955 130.243 33.9031 128.368C35.4146 127.79 36.9467 127.2 38.204 126.705C38.204 125.427 38.1628 123.895 38.0254 122.376C38.0254 122.047 37.9567 121.689 37.9223 121.38C37.888 121.071 37.8468 120.851 37.8055 120.597H45.796C45.796 120.597 45.7479 120.913 45.6861 121.442C45.638 121.916 45.5761 122.548 45.528 123.263C45.4662 124.211 45.425 125.324 45.4525 126.375C45.8372 126.506 46.2288 126.65 46.6205 126.801L47.3762 127.062C47.6785 127.172 47.9739 127.268 48.29 127.371L48.977 127.577C49.0686 127.608 49.1581 127.645 49.245 127.687Z" fill="white" stroke="#263238" stroke-linecap="round" stroke-linejoin="round"/>
<path d="M37.9224 121.353C37.9224 121.353 39.4133 125.228 41.5775 125.887C43.7417 126.547 45.6998 121.442 45.6998 121.442C45.6998 121.442 42.6493 124.698 41.5157 124.19C40.382 123.682 37.9361 121.38 37.9361 121.38" fill="#263238"/>
<path d="M36.6375 99.9509C34.6184 101.769 33.0174 104.002 31.9449 106.498C30.9624 108.56 30.1311 110.93 30.8868 113.087C31.3391 114.159 31.9789 115.14 32.7762 115.987C34.2603 117.766 36.3421 122.734 37.8261 124.513C37.9223 121.346 35.2703 116.227 35.5519 113.568C35.8931 111.514 36.5685 109.53 37.5513 107.694C38.5507 105.287 39.8579 103.019 41.44 100.947C42.34 99.8615 45.2325 97.9309 42.3126 97.6973C40.3751 97.5393 38.1009 98.7485 36.6375 99.9509Z" fill="#263238" stroke="#263238" stroke-linecap="round" stroke-linejoin="round"/>
<path d="M34.7687 110.751C34.7687 110.751 33.745 108.766 32.6663 110.648C31.89 112.022 33.0099 114.187 33.4908 114.99C33.6504 115.219 33.8666 115.403 34.1182 115.523C34.3699 115.644 34.6484 115.697 34.9268 115.677L34.7687 110.751Z" fill="white" stroke="#263238" stroke-linecap="round" stroke-linejoin="round"/>
<path d="M48.2212 117.924C47.5647 119.222 46.7093 120.409 45.686 121.442L45.0677 122.081C43.7898 123.345 42.4088 124.348 41.5019 124.142C40.7117 123.984 39.6812 123.173 38.6712 122.136C38.417 121.882 38.1696 121.607 37.9223 121.332C36.8226 120.129 35.8786 118.792 35.1122 117.354C34.8994 116.814 34.7629 116.248 34.7069 115.671C34.5335 113.95 34.4738 112.219 34.5283 110.49C34.5283 109.879 34.5283 109.391 34.5283 109.116C34.5283 107.921 39.0079 103.764 39.0079 103.764C39.1286 103.72 39.2583 103.705 39.3857 103.723C40.1562 103.863 40.8987 104.127 41.5843 104.506C44.2982 105.825 48.0838 108.443 48.3587 109.439C48.7778 110.889 48.6197 116.632 48.2212 117.924Z" fill="white" stroke="#263238" stroke-linecap="round" stroke-linejoin="round"/>
<path d="M39.324 112.414C39.324 112.895 39.1453 113.287 38.9461 113.287C38.7469 113.287 38.5476 112.909 38.5476 112.414C38.5476 111.919 38.7262 111.528 38.9461 111.528C39.166 111.528 39.324 111.933 39.324 112.414Z" fill="#263238"/>
<path d="M44.4424 111.534C44.6623 111.534 44.8409 111.926 44.8409 112.414C44.8409 112.902 44.6623 113.286 44.4424 113.286C44.2226 113.286 44.0439 112.895 44.0439 112.414C44.0439 111.933 44.2226 111.534 44.4424 111.534Z" fill="#263238"/>
<path d="M36.7681 110.25C36.7681 110.25 37.4551 108.876 39.8873 109.295" stroke="#263238" stroke-linecap="round" stroke-linejoin="round"/>
<path d="M46.7027 110.25C46.7027 110.25 46.0157 108.876 43.5835 109.295" stroke="#263238" stroke-linecap="round" stroke-linejoin="round"/>
<path d="M42.2026 115.774C42.4497 115.758 42.6853 115.664 42.8746 115.504C43.0639 115.345 43.1968 115.128 43.2538 114.888C43.2538 114.888 41.9209 112.826 42.3263 110.806" stroke="#263238" stroke-linecap="round" stroke-linejoin="round"/>
<path d="M33.903 105.942C33.3494 106.693 32.9309 107.534 32.6663 108.429" stroke="white" stroke-linecap="round" stroke-linejoin="round"/>
<path d="M39.6467 100.446C39.6467 100.446 38.8841 101.71 35.5244 104.286C35.3078 104.443 35.1013 104.612 34.906 104.795" stroke="white" stroke-linecap="round" stroke-linejoin="round"/>
<path d="M28.8736 140.728C28.4156 147.259 27.9575 153.795 27.4995 160.336V159.835" fill="#263238"/>
<path d="M28.8736 140.728C28.4156 147.259 27.9575 153.795 27.4995 160.336V159.835" stroke="#263238" stroke-linecap="round" stroke-linejoin="round"/>
<path d="M72.2749 119.161C72.8959 118.918 73.567 118.832 74.2293 118.908C74.8916 118.985 75.5251 119.223 76.0743 119.601C77.17 120.377 77.9676 121.504 78.3347 122.795C78.7727 124.082 78.7288 125.483 78.2111 126.739C77.9432 127.358 77.5122 127.893 76.964 128.286C76.4158 128.68 75.7711 128.917 75.0987 128.972C74.0965 128.959 73.128 128.608 72.3505 127.976C69.7809 126.052 68.4961 120.789 72.2749 119.161Z" fill="white" stroke="#263238" stroke-linecap="round" stroke-linejoin="round"/>
<path d="M77.9639 97.2232C77.9639 97.3056 77.9639 97.8484 78.012 97.9446C78.2525 99.0027 78.7609 101.648 77.4761 102.184C77.9639 103.922 79.1594 115.279 79.0014 121.071C78.9602 122.802 78.6579 124.857 77.1051 125.599C74.4874 126.842 72.0003 123.812 72.2957 121.442C72.7561 118.206 72.598 114.908 72.9828 111.638C73.4019 108.244 74.1714 104.767 73.3263 101.449C73.1202 101.222 71.8011 98.6042 71.3682 97.8828C71.174 97.5745 71.0215 97.2418 70.9147 96.8934C70.7456 95.7078 70.6629 94.5115 70.6674 93.3139C71.059 92.5718 71.5674 93.2589 71.8354 93.7467C72.0539 94.3415 72.1293 94.9793 72.0553 95.6086C72.0298 95.7626 72.0514 95.9206 72.1171 96.0621C72.1748 96.143 72.2528 96.2072 72.3433 96.2483C72.4338 96.2893 72.5335 96.3056 72.6324 96.2957C73.4775 96.172 73.4431 95.4643 73.4294 94.9216C73.4294 93.1009 73.4294 91.2802 73.4294 89.4732C73.4294 89.1709 73.5256 88.3533 73.8141 88.3258C74.1027 88.2984 74.5355 88.532 74.5767 89.5007C74.6248 90.5931 74.6248 93.9597 74.6248 93.9597C74.6521 93.9874 74.686 94.0076 74.7233 94.0184C74.7606 94.0293 74.8 94.0303 74.8378 94.0215C74.9065 94.0215 74.934 93.8979 74.9615 93.8291C75.3669 92.139 75.7791 90.4488 76.1845 88.7587C76.2325 88.5594 76.528 88.1472 76.741 88.1472C77.2494 88.1472 77.2631 88.7381 77.2906 88.9098C77.4692 89.8168 76.1982 93.5543 75.9852 94.4063C75.9852 94.5574 75.9852 94.7842 76.1432 94.7429L78.1357 90.7237C78.228 90.4889 78.3735 90.2786 78.5606 90.1093C78.7477 89.9401 78.9715 89.8164 79.2144 89.748C79.2479 89.7375 79.2839 89.7375 79.3174 89.748C79.3533 89.7689 79.382 89.8 79.3999 89.8374C79.5923 90.1809 79.3999 90.655 79.2899 91.0328C79.18 91.4107 77.6891 94.1864 77.1601 95.3063C77.0845 95.4643 76.9608 95.8216 77.112 95.9934C77.2631 96.1651 77.538 95.8354 77.6479 95.6086C77.9845 94.9216 78.3006 94.2757 78.6098 93.6024C78.7059 93.4032 78.8502 93.1215 79.077 93.1696C80.4167 93.4581 78.5136 96.2682 77.9639 97.2232Z" fill="white" stroke="#263238" stroke-linecap="round" stroke-linejoin="round"/>
<path d="M74.2676 96.6323C74.9593 97.1802 75.5598 97.8341 76.047 98.5698C76.2873 98.9397 76.448 99.3554 76.5189 99.7907C76.5899 100.226 76.5696 100.671 76.4593 101.098C76.4259 101.21 76.3822 101.318 76.3287 101.421" fill="white"/>
<path d="M74.2676 96.6323C74.9593 97.1802 75.5598 97.8341 76.047 98.5698C76.2873 98.9397 76.448 99.3554 76.5189 99.7907C76.5899 100.226 76.5696 100.671 76.4593 101.098C76.4259 101.21 76.3822 101.318 76.3287 101.421" stroke="#263238" stroke-linecap="round" stroke-linejoin="round"/>
<path d="M54.9131 139.553C55.6402 141.019 56.1295 142.591 56.3628 144.211C56.562 145.832 56.6238 147.103 55.5177 151.659" stroke="#263238" stroke-linecap="round" stroke-linejoin="round"/>
<path d="M39.4063 102.733C39.3122 103.014 39.2886 103.314 39.3376 103.606C39.4679 103.974 39.7077 104.292 40.0247 104.52C42.2206 106.444 44.677 108.049 47.3212 109.288C47.6528 109.374 47.9403 109.581 48.1271 109.868C48.314 110.156 48.3867 110.502 48.3311 110.841V116.152C48.3649 116.699 48.3116 117.249 48.1731 117.78C47.7884 119.017 46.9364 120.013 46.3181 121.153C45.6895 122.235 45.3709 123.469 45.3974 124.719C45.2257 123.407 49.8152 120.865 51.0588 115.698C51.2305 114.97 54.8032 110.634 52.6596 105.543C50.5984 100.658 47.3555 98.5561 46.2631 98.3019C45.5216 98.0851 44.7391 98.048 43.9804 98.1938C43.2218 98.3396 42.5087 98.6639 41.9003 99.1401C40.6997 100.034 39.824 101.296 39.4063 102.733Z" fill="#263238" stroke="#263238" stroke-linecap="round" stroke-linejoin="round"/>
<path d="M43.9064 117.622C43.5148 117.704 43.1163 117.78 42.7178 117.828C41.3437 118 39.8734 117.787 38.9734 116.784C39.0421 117.684 39.6604 121.085 41.5086 121.181C43.3568 121.277 43.9064 117.622 43.9064 117.622Z" stroke="#263238" stroke-linecap="round" stroke-linejoin="round"/>
<path d="M42.1201 100.658C42.9126 102.457 44.1752 104.01 45.7752 105.152C46.9364 105.983 48.2624 106.581 49.3273 107.529C50.7014 108.786 51.6015 110.779 51.0724 112.586" stroke="white" stroke-linecap="round" stroke-linejoin="round"/>
<path d="M56.4795 128.416C55.1559 129.478 54.2843 131.003 54.0405 132.682C53.8036 134.133 53.9822 135.622 54.5558 136.976" stroke="#263238" stroke-linecap="round" stroke-linejoin="round"/>
<path d="M30.8869 139.752C30.777 141.552 29.6571 143.112 28.5715 144.561L30.8869 139.752Z" fill="#263238"/>
<path d="M30.8869 139.752C30.777 141.552 29.6571 143.112 28.5715 144.561" stroke="#263238" stroke-linecap="round" stroke-linejoin="round"/>
<path d="M28.2073 153.514C28.753 154.427 29.4834 155.217 30.3518 155.832C31.2201 156.447 32.2073 156.875 33.2503 157.086" stroke="#263238" stroke-linecap="round" stroke-linejoin="round"/>
<path d="M54.4941 154.585C54.4941 154.585 52.6459 157.334 46.3662 157.911" stroke="#263238" stroke-linecap="round" stroke-linejoin="round"/>
<path d="M238.453 130.504C238.453 130.504 214.509 137.924 210.002 132.064L210.613 102.17H214.248L218.521 123.228L238.144 119.635C238.144 119.635 240.658 127.426 238.453 130.504Z" fill="white"/>
<path d="M228.367 131.549C226.994 132.094 225.683 132.785 224.458 133.61C226.079 134.125 227.81 133.472 229.432 132.957C231.573 132.3 233.756 131.785 235.966 131.418C236.069 130.807 235.279 129.412 234.969 128.869C234.406 127.921 234.282 127.839 233.334 128.306C231.61 129.171 230.139 130.676 228.367 131.549Z" fill="#8FACAE"/>
<path d="M238.453 130.504C238.453 130.504 214.509 137.924 210.002 132.064L210.613 102.17H214.248L218.521 123.228L238.144 119.635C238.144 119.635 240.658 127.426 238.453 130.504Z" stroke="#263238" stroke-linecap="round" stroke-linejoin="round"/>
<path d="M236.103 131.287L240.308 157.176C240.198 173.953 248.202 171.432 253.761 171.384C260.185 171.329 269.934 164.96 265.152 155.046L266.993 119.161L255.801 118.309C252.112 118.02 236.996 118.494 235.794 120.425C232.675 125.434 236.103 131.287 236.103 131.287Z" fill="white"/>
<path d="M236.763 133.424C239.26 142.871 245.249 151.018 253.52 156.221C252.625 156.079 251.75 155.828 250.916 155.472C250.077 155.111 249.137 155.059 248.264 155.328C248.053 155.404 247.859 155.52 247.694 155.671C247.528 155.822 247.394 156.005 247.299 156.208C247.204 156.411 247.15 156.63 247.14 156.854C247.13 157.078 247.164 157.302 247.24 157.512C247.441 157.834 247.714 158.105 248.037 158.303C249.401 159.261 250.893 160.025 252.469 160.57C251.087 160.428 249.691 160.535 248.347 160.886C248.099 162.081 249.432 162.947 250.483 163.531C252.16 164.52 253.597 165.869 254.688 167.482C250.999 167.49 247.313 167.701 243.647 168.114C243.164 168.222 242.658 168.174 242.204 167.976C241.729 167.622 241.409 167.098 241.311 166.513C240.494 163.655 240.019 160.709 239.896 157.739C239.827 156.07 239.896 154.386 239.676 152.731C239.499 151.425 239.256 150.13 238.948 148.849C237.88 143.893 237.063 138.898 236.495 133.864C236.241 133.885 236.763 133.424 236.763 133.424Z" fill="#8FACAE"/>
<path d="M265.145 131.363C264.218 131.066 263.354 130.6 262.596 129.989C262.809 131.02 264.348 132.799 265.248 133.349C265.433 133.466 265.701 133.562 265.866 133.404C266.031 133.246 266.141 132.84 266.306 132.717L265.145 131.363Z" fill="#8FACAE"/>
<path d="M236.103 131.287L240.308 157.176C240.198 173.953 248.202 171.432 253.761 171.384C260.185 171.329 269.934 164.96 265.152 155.046L266.993 119.161L255.801 118.309C252.112 118.02 236.996 118.494 235.794 120.425C232.675 125.434 236.103 131.287 236.103 131.287Z" stroke="#263238" stroke-linecap="round" stroke-linejoin="round"/>
<path d="M244.286 117.78C243.082 119.985 242.502 122.477 242.61 124.987C242.608 125.206 242.65 125.424 242.733 125.626C243.042 126.238 243.888 126.238 244.568 126.313C247.213 126.65 248.855 129.439 251.349 130.374C251.436 130.428 251.534 130.464 251.635 130.479C251.737 130.494 251.84 130.489 251.94 130.463C252.039 130.438 252.133 130.392 252.214 130.33C252.295 130.267 252.363 130.189 252.414 130.099C253.499 128.725 253.884 126.794 255.368 125.908C256.014 125.523 256.832 125.365 257.278 124.761C257.787 124.074 257.56 123.084 257.313 122.246C256.907 120.872 256.454 119.443 255.403 118.488C254.283 117.614 252.907 117.131 251.486 117.114C249.407 116.944 247.314 117.139 245.303 117.691C245.33 117.952 244.286 117.78 244.286 117.78Z" fill="#8FACAE" stroke="#263238" stroke-linecap="round" stroke-linejoin="round"/>
<path d="M277.539 135.348C275.86 132.903 274.623 130.182 273.884 127.309C273.615 125.87 273.196 124.463 272.634 123.111C272.103 122.067 271.338 121.161 270.397 120.463C269.456 119.766 268.366 119.296 267.213 119.092C266.721 118.984 266.209 119.008 265.729 119.161C264.733 119.539 264.293 120.686 264.094 121.73C263.663 123.974 263.79 126.288 264.465 128.47C264.925 129.955 270.456 140.714 274.084 144.884C273.768 142.782 276.186 135.753 277.539 135.348Z" fill="white"/>
<path d="M266.691 133.239L270.085 139.635C270.573 140.549 271.122 141.525 272.071 141.923C271.474 139.81 271.135 137.632 271.061 135.437C271.098 134.334 270.97 133.232 270.683 132.167C270.545 132.284 270.401 131.789 270.401 131.789C270.25 132.071 269.851 132.078 269.542 132.016C267.323 131.549 265.798 129.57 264.479 127.729C264.307 128.345 264.28 128.993 264.399 129.623C264.518 130.252 264.78 130.845 265.166 131.356C265.166 131.356 266.581 133.026 266.691 133.239Z" fill="#8FACAE"/>
<path d="M277.539 135.348C275.86 132.903 274.623 130.182 273.884 127.309C273.615 125.87 273.196 124.463 272.634 123.111C272.103 122.067 271.338 121.161 270.397 120.463C269.456 119.766 268.366 119.296 267.213 119.092C266.721 118.984 266.209 119.008 265.729 119.161C264.733 119.539 264.293 120.686 264.094 121.73C263.663 123.974 263.79 126.288 264.465 128.47C264.925 129.955 270.456 140.714 274.084 144.884C273.768 142.782 276.186 135.753 277.539 135.348Z" stroke="#263238" stroke-linecap="round" stroke-linejoin="round"/>
<path d="M272.771 143.043C269.075 135.959 270.861 119.635 270.751 117.01L275.63 116.749C276.117 116.749 278.378 130.669 279.917 136.447C281.291 141.71 279.972 147.035 277.54 147.035C275.52 147.035 273.548 144.534 272.771 143.043Z" fill="white" stroke="#263238" stroke-linecap="round" stroke-linejoin="round"/>
<path d="M228.724 124.651C232.16 119.635 238.9 119.237 238.9 119.237" stroke="#263238" stroke-linecap="round" stroke-linejoin="round"/>
<path d="M215.471 127.461C216.51 126.506 217.324 125.333 217.855 124.025L215.471 127.461Z" fill="white"/>
<path d="M215.471 127.461C216.51 126.506 217.324 125.333 217.855 124.025" stroke="#263238" stroke-linecap="round" stroke-linejoin="round"/>
<path d="M240.995 151.164C242.953 154.373 255.636 157.801 260.693 157.066" stroke="#263238" stroke-linecap="round" stroke-linejoin="round"/>
<path d="M244.582 160.219C248.235 160.848 251.979 160.705 255.574 159.8" stroke="#263238" stroke-linecap="round" stroke-linejoin="round"/>
<path d="M261.407 129.089L263.826 132.366C264.156 132.813 264.616 133.314 265.159 133.191" stroke="#263238" stroke-linecap="round" stroke-linejoin="round"/>
<path d="M279.381 253.405C279.168 254.277 279.099 255.315 279.724 255.967C280.35 256.62 281.256 256.606 282.102 256.593L285.008 256.538C286.129 256.594 287.249 256.418 288.299 256.022C288.824 255.818 289.274 255.458 289.587 254.989C289.9 254.521 290.062 253.968 290.051 253.405C289.979 252.969 289.84 252.547 289.639 252.154C289.377 251.591 289.116 251.021 288.862 250.457C285.654 243.387 280.755 247.688 279.381 253.405Z" fill="white" stroke="#263238" stroke-linecap="round" stroke-linejoin="round"/>
<path d="M275.286 245.071C275.387 248.316 275.115 251.561 274.475 254.744C274.324 255.466 274.475 256.558 275.162 256.489C275.432 256.448 275.676 256.309 275.849 256.098C278.374 253.607 280.181 250.481 281.078 247.049C281.213 246.693 281.275 246.313 281.262 245.932C281.25 245.551 281.161 245.177 281.002 244.83C280.814 244.552 280.582 244.306 280.315 244.102C277.986 242.24 275.073 240.392 275.286 245.071Z" fill="white" stroke="#263238" stroke-linecap="round" stroke-linejoin="round"/>
<path d="M267.309 162.026C267.309 162.026 270.93 168.32 271.706 169.783C272.483 171.247 288.883 192.8 292.029 208.492C292.62 211.474 280.521 244.823 280.521 244.823L277.773 243.271C277.773 243.271 279.683 212.855 279.216 210.326C278.749 207.798 266.677 189.138 266.677 189.138C266.677 189.138 259.937 184.184 257.161 178.426L267.309 162.026Z" fill="#263238"/>
<path d="M267.701 177.794C267.701 177.794 265.64 182.384 265.64 183.043C265.64 183.703 276.976 219.526 280.308 227.812C282.415 233.148 284.273 238.608 285.88 244.191C285.88 244.191 287.172 245.888 286.196 247.626C285.221 249.365 281.339 250.505 280.542 248.952C279.745 247.4 271.892 239.334 268.58 231.309C265.269 223.284 260.61 209.873 257.958 204.878C254.485 198.495 251.401 191.908 248.724 185.153C245.392 176.626 241.984 167.433 241.984 167.433C243.368 167.558 244.759 167.597 246.148 167.55C249.418 167.439 252.657 166.865 255.767 165.846C263.008 163.414 266.141 158.756 266.141 158.756C266.141 158.756 267.934 163.613 268.402 164.555L267.701 177.794Z" fill="#263238"/>
<path d="M290.82 211.563C290.111 212.779 289.156 213.834 288.017 214.662" stroke="white" stroke-linecap="round" stroke-linejoin="round"/>
<path d="M291.706 209.564C291.603 209.899 291.479 210.227 291.335 210.546" stroke="white" stroke-linecap="round" stroke-linejoin="round"/>
<path d="M261.153 167.09C262.981 170.237 264.691 174.764 264.417 178.392C264.269 179.051 264.038 179.688 263.73 180.288" stroke="white" stroke-linecap="round" stroke-linejoin="round"/>
<path d="M250.092 170.587C250.291 172.339 250.559 175.252 250.174 176.97C249.849 178.726 248.841 180.283 247.371 181.298" stroke="white" stroke-linecap="round" stroke-linejoin="round"/>
<path d="M265.674 163.957C266.073 164.454 266.397 165.008 266.636 165.599C267.101 166.449 267.741 167.19 268.513 167.775C269.285 168.36 270.172 168.775 271.116 168.993" stroke="white" stroke-linecap="round" stroke-linejoin="round"/>
<path d="M259.841 170.979C262.266 176.283 264.121 181.6 267.886 190.615" stroke="white" stroke-linecap="round" stroke-linejoin="round"/>
<path d="M258.549 168.265C258.755 168.677 258.955 169.089 259.154 169.501" stroke="white" stroke-linecap="round" stroke-linejoin="round"/>
<path d="M278.735 208.842C279.847 210.985 281.26 212.956 282.933 214.696" stroke="white" stroke-linecap="round" stroke-linejoin="round"/>
<path d="M279.882 210.821C280.61 214.183 281.939 217.386 283.805 220.275" stroke="white" stroke-linecap="round" stroke-linejoin="round"/>
<path d="M262.802 210.993C257.45 199.574 251.741 188.244 244.726 170.979" stroke="white" stroke-linecap="round" stroke-linejoin="round"/>
<path d="M264.011 214.311C263.881 213.913 263.743 213.514 263.599 213.109" stroke="white" stroke-linecap="round" stroke-linejoin="round"/>
<path d="M282.514 249.42C281.14 247.626 271.122 233.617 268.635 227.269C266.979 223.037 265.729 220.048 264.513 215.83" stroke="white" stroke-linecap="round" stroke-linejoin="round"/>
<path d="M278.735 222.46L283.496 236.455" stroke="white" stroke-linecap="round" stroke-linejoin="round"/>
<path d="M275.526 116.756L274.083 116.873C272.255 117.198 270.378 117.111 268.587 116.619C267.44 116.337 264.781 115.513 264.465 115.458C263.675 115.289 262.877 115.16 262.074 115.073C259.648 114.929 260.878 114.022 261.888 114.063C263.221 114.125 263.668 114.097 264.691 114.173C264.568 114.104 264.19 114.029 264.183 113.733C264.183 113.012 265.131 113.046 265.131 113.046C265.131 113.046 264.094 112.606 264.238 112.064C264.382 111.521 265.076 111.377 265.516 111.418C265.516 111.418 264.932 111.136 264.959 110.834C265.083 109.666 267.481 109.583 267.481 109.583C266.901 109.324 266.358 108.989 265.866 108.587C265.687 108.394 265.561 108.157 265.502 107.9C265.489 107.778 265.51 107.654 265.561 107.542C265.612 107.43 265.692 107.334 265.794 107.264C265.895 107.194 266.013 107.152 266.136 107.143C266.258 107.134 266.381 107.158 266.492 107.213C267.112 107.626 267.71 108.071 268.285 108.546C269.027 109.075 269.886 109.412 270.669 109.886C271.432 110.539 272.048 111.347 272.476 112.256C272.599 112.448 275.526 116.756 275.526 116.756Z" fill="white" stroke="#263238" stroke-linecap="round" stroke-linejoin="round"/>
<path d="M210.613 102.17V98.3845C210.605 96.4849 210.883 94.5948 211.438 92.7782C211.754 91.7751 212.125 90.9025 212.462 90.772C213.087 90.5452 213.362 93.0805 213.362 93.0805C212.892 91.0476 212.591 88.9794 212.462 86.897C212.462 84.6915 215.43 93.85 215.43 93.85L214.248 102.17H210.613Z" fill="white" stroke="#263238" stroke-linecap="round" stroke-linejoin="round"/>
<path d="M214.2 96.014C214.559 95.737 214.827 95.3589 214.969 94.9285L214.2 96.014Z" fill="white"/>
<path d="M214.2 96.014C214.559 95.737 214.827 95.3589 214.969 94.9285" stroke="#263238" stroke-linecap="round" stroke-linejoin="round"/>
<path d="M242.974 110.064C244.257 112.225 244.967 114.677 245.035 117.189C245.159 121.366 249.996 127.213 251.377 127.495C252.758 127.777 254.035 120.899 253.974 118.817C253.912 116.736 253.142 110.985 253.142 110.985C253.142 110.985 246.526 105.983 242.974 110.064Z" fill="white" stroke="#263238" stroke-linecap="round" stroke-linejoin="round"/>
<path d="M244.918 115.595C244.918 115.595 251.26 124.245 253.747 115.451C256.234 106.657 246.773 117.856 244.918 115.595Z" fill="#263238"/>
<path d="M255.622 109.377C255.286 114.51 252.943 117.395 250.243 117.904C247.776 118.357 244.169 115.843 242.369 112.112C242.232 112.022 240.04 110.504 239.518 110.133C239.245 109.942 239.023 109.688 238.87 109.393C238.716 109.097 238.637 108.769 238.638 108.436C238.656 108.117 238.769 107.81 238.962 107.555C239.156 107.3 239.421 107.109 239.724 107.007H239.786C240.095 106.94 240.417 106.963 240.713 107.076C240.26 105.324 239.889 103.544 239.607 101.751C239.738 97.6287 241.105 94.2621 245.502 93.9323C249.899 93.6026 253.575 96.0622 253.747 97.8348C253.87 99.2089 254.317 102.843 254.716 106.602C254.825 107.577 255.698 108.223 255.622 109.377Z" fill="white" stroke="#263238" stroke-linecap="round" stroke-linejoin="round"/>
<path d="M253.747 103.441C253.747 103.441 250.916 102.143 251.397 106.361C251.493 107.193 253.039 108.422 253.039 108.422C253.039 108.422 252.641 109.666 251.905 109.666" fill="white"/>
<path d="M253.747 103.441C253.747 103.441 250.916 102.143 251.397 106.361C251.493 107.193 253.039 108.422 253.039 108.422C253.039 108.422 252.641 109.666 251.905 109.666" stroke="#263238" stroke-linecap="round" stroke-linejoin="round"/>
<path d="M248.278 104.884C248.278 104.884 246.835 104.004 245.846 104.547C245.33 104.772 244.89 105.142 244.582 105.612" fill="white"/>
<path d="M248.278 104.884C248.278 104.884 246.835 104.004 245.846 104.547C245.33 104.772 244.89 105.142 244.582 105.612" stroke="#263238" stroke-linecap="round" stroke-linejoin="round"/>
<path d="M247.453 107.316C247.563 107.825 247.453 108.278 247.158 108.34C246.863 108.402 246.574 108.031 246.471 107.522C246.368 107.014 246.471 106.56 246.773 106.499C247.075 106.437 247.35 106.801 247.453 107.316Z" fill="#263238"/>
<path d="M253.032 105.832C253.142 106.34 253.032 106.794 252.737 106.856C252.441 106.918 252.153 106.547 252.05 106.045C251.947 105.544 252.05 105.076 252.345 105.021C252.64 104.966 252.929 105.331 253.032 105.832Z" fill="#263238"/>
<path d="M239.277 96.4263C238.775 96.9186 238.426 97.5464 238.274 98.2333C237.863 99.686 237.744 101.206 237.924 102.705C238.105 104.204 238.581 105.652 239.326 106.966C239.784 106.91 240.248 106.928 240.7 107.021C241.181 107.144 241.799 107.969 242.026 108.395C242.224 108.849 242.339 109.336 242.362 109.831C242.252 108.525 242.149 107.227 242.039 105.921C241.966 105.399 241.989 104.868 242.108 104.355C242.445 103.283 242.074 100.755 242.17 98.4944C245.021 101.978 249.164 101.359 250.538 101.243C252.599 101.071 254.358 98.9616 254.248 97.4569C254.138 95.9523 253.733 92.0773 246.938 91.6788C245.441 91.5195 243.932 91.8343 242.623 92.5788C242.209 92.8521 241.856 93.2101 241.59 93.6293C241.324 94.0485 241.149 94.5194 241.078 95.011C240.981 95.6431 241.222 95.6981 240.741 96.0072C240.26 96.3164 239.752 96.021 239.277 96.4263Z" fill="#263238" stroke="#263238" stroke-linecap="round" stroke-linejoin="round"/>
<path d="M248.278 112.084C248.278 112.084 249.288 113.197 251.397 112.462L248.278 112.084Z" fill="white"/>
<path d="M248.278 112.084C248.278 112.084 249.288 113.197 251.397 112.462" stroke="#263238" stroke-linecap="round" stroke-linejoin="round"/>
</svg>
