<svg width="79" height="20" viewBox="0 0 79 20" fill="none" xmlns="http://www.w3.org/2000/svg">
<path d="M0.601562 0.683594H7.31641C9.27734 0.683594 10.9805 0.894531 12.4258 1.31641C13.8711 1.73828 15.0664 2.34375 16.0117 3.13281C16.9648 3.91406 17.6719 4.86719 18.1328 5.99219C18.6016 7.10938 18.8359 8.36719 18.8359 9.76562C18.8359 11.0938 18.6055 12.3242 18.1445 13.457C17.6836 14.582 16.9805 15.5586 16.0352 16.3867C15.0898 17.207 13.8945 17.8516 12.4492 18.3203C11.0039 18.7812 9.30078 19.0117 7.33984 19.0117L0.601562 19V0.683594ZM8.23047 15.7891C9.33984 15.7891 10.3125 15.6484 11.1484 15.3672C11.9844 15.0781 12.6797 14.6719 13.2344 14.1484C13.7969 13.625 14.2188 12.9922 14.5 12.25C14.7812 11.5078 14.9219 10.6797 14.9219 9.76562C14.9219 8.86719 14.7812 8.05859 14.5 7.33984C14.2188 6.61328 13.7969 6 13.2344 5.5C12.6797 4.99219 11.9844 4.60156 11.1484 4.32812C10.3125 4.05469 9.33984 3.91797 8.23047 3.91797H4.31641V15.7891H8.23047ZM22.5625 0.683594H31.8789C33.2852 0.683594 34.5039 0.832031 35.5352 1.12891C36.5664 1.41797 37.4219 1.83984 38.1016 2.39453C38.7812 2.94922 39.2852 3.625 39.6133 4.42188C39.9492 5.21875 40.1172 6.12109 40.1172 7.12891C40.1172 7.80859 40.0352 8.45703 39.8711 9.07422C39.707 9.68359 39.4531 10.2461 39.1094 10.7617C38.7734 11.2773 38.3477 11.7383 37.832 12.1445C37.3164 12.543 36.7109 12.875 36.0156 13.1406L40 19H35.4531L32.0078 13.7969H31.9023L26.2773 13.7852V19H22.5625V0.683594ZM31.9727 10.5742C32.6758 10.5742 33.2891 10.4922 33.8125 10.3281C34.3438 10.1641 34.7852 9.93359 35.1367 9.63672C35.4961 9.33984 35.7617 8.98047 35.9336 8.55859C36.1133 8.12891 36.2031 7.65234 36.2031 7.12891C36.2031 6.10547 35.8516 5.31641 35.1484 4.76172C34.4453 4.19922 33.3867 3.91797 31.9727 3.91797H26.2773V10.5742H31.9727ZM44.1602 16.9727C44.1602 16.6602 44.2227 16.3672 44.3477 16.0938C44.4805 15.8125 44.668 15.5703 44.9102 15.3672C45.1523 15.1562 45.4453 14.9922 45.7891 14.875C46.1328 14.7578 46.5195 14.6992 46.9492 14.6992C47.3789 14.6992 47.7656 14.7578 48.1094 14.875C48.4531 14.9922 48.7422 15.1562 48.9766 15.3672C49.2188 15.5703 49.4023 15.8125 49.5273 16.0938C49.6602 16.3672 49.7266 16.6602 49.7266 16.9727C49.7266 17.2852 49.6602 17.582 49.5273 17.8633C49.4023 18.1367 49.2188 18.375 48.9766 18.5781C48.7422 18.7812 48.4531 18.9414 48.1094 19.0586C47.7656 19.1836 47.3789 19.2461 46.9492 19.2461C46.5195 19.2461 46.1328 19.1836 45.7891 19.0586C45.4453 18.9414 45.1523 18.7812 44.9102 18.5781C44.668 18.375 44.4805 18.1367 44.3477 17.8633C44.2227 17.582 44.1602 17.2852 44.1602 16.9727ZM54.1094 0.683594H57.8477V19H54.1094V0.683594ZM68.1133 3.94141H61.3516V0.683594H78.5898V3.94141H71.8281V19H68.1133V3.94141Z" fill="#E08C28"/>
</svg>
