<svg width="214" height="70" viewBox="0 0 214 70" fill="none" xmlns="http://www.w3.org/2000/svg">
<rect width="214" height="70" rx="8" fill="white"/>
<path d="M87.552 21.384C87.552 22.0347 87.4027 22.632 87.104 23.176C86.8053 23.7093 86.3467 24.1413 85.728 24.472C85.1093 24.8027 84.3413 24.968 83.424 24.968H81.728V29H78.992V17.768H83.424C84.32 17.768 85.0773 17.9227 85.696 18.232C86.3147 18.5413 86.7787 18.968 87.088 19.512C87.3973 20.056 87.552 20.68 87.552 21.384ZM83.216 22.792C83.7387 22.792 84.128 22.6693 84.384 22.424C84.64 22.1787 84.768 21.832 84.768 21.384C84.768 20.936 84.64 20.5893 84.384 20.344C84.128 20.0987 83.7387 19.976 83.216 19.976H81.728V22.792H83.216ZM97.3924 24.392C97.3924 24.648 97.3764 24.9147 97.3444 25.192H91.1524C91.195 25.7467 91.371 26.1733 91.6804 26.472C92.0004 26.76 92.3897 26.904 92.8484 26.904C93.531 26.904 94.0057 26.616 94.2724 26.04H97.1844C97.035 26.6267 96.763 27.1547 96.3684 27.624C95.9844 28.0933 95.499 28.4613 94.9124 28.728C94.3257 28.9947 93.6697 29.128 92.9444 29.128C92.0697 29.128 91.291 28.9413 90.6084 28.568C89.9257 28.1947 89.3924 27.6613 89.0084 26.968C88.6244 26.2747 88.4324 25.464 88.4324 24.536C88.4324 23.608 88.619 22.7973 88.9924 22.104C89.3764 21.4107 89.9097 20.8773 90.5924 20.504C91.275 20.1307 92.059 19.944 92.9444 19.944C93.8084 19.944 94.5764 20.1253 95.2484 20.488C95.9204 20.8507 96.443 21.368 96.8164 22.04C97.2004 22.712 97.3924 23.496 97.3924 24.392ZM94.5924 23.672C94.5924 23.2027 94.4324 22.8293 94.1124 22.552C93.7924 22.2747 93.3924 22.136 92.9124 22.136C92.4537 22.136 92.0644 22.2693 91.7444 22.536C91.435 22.8027 91.243 23.1813 91.1684 23.672H94.5924ZM110.228 19.976C111.337 19.976 112.217 20.312 112.868 20.984C113.529 21.656 113.86 22.5893 113.86 23.784V29H111.14V24.152C111.14 23.576 110.985 23.1333 110.676 22.824C110.377 22.504 109.961 22.344 109.428 22.344C108.894 22.344 108.473 22.504 108.164 22.824C107.865 23.1333 107.716 23.576 107.716 24.152V29H104.996V24.152C104.996 23.576 104.841 23.1333 104.532 22.824C104.233 22.504 103.817 22.344 103.284 22.344C102.75 22.344 102.329 22.504 102.02 22.824C101.721 23.1333 101.572 23.576 101.572 24.152V29H98.8358V20.072H101.572V21.192C101.849 20.8187 102.212 20.5253 102.66 20.312C103.108 20.088 103.614 19.976 104.18 19.976C104.852 19.976 105.449 20.12 105.972 20.408C106.505 20.696 106.921 21.1067 107.22 21.64C107.529 21.1493 107.95 20.7493 108.484 20.44C109.017 20.1307 109.598 19.976 110.228 19.976ZM118.509 21.336C118.765 20.92 119.133 20.584 119.613 20.328C120.093 20.072 120.643 19.944 121.261 19.944C121.997 19.944 122.664 20.1307 123.261 20.504C123.859 20.8773 124.328 21.4107 124.669 22.104C125.021 22.7973 125.197 23.6027 125.197 24.52C125.197 25.4373 125.021 26.248 124.669 26.952C124.328 27.6453 123.859 28.184 123.261 28.568C122.664 28.9413 121.997 29.128 121.261 29.128C120.632 29.128 120.083 29.0053 119.613 28.76C119.144 28.504 118.776 28.168 118.509 27.752V29H115.773V17.16H118.509V21.336ZM122.413 24.52C122.413 23.8373 122.221 23.304 121.837 22.92C121.464 22.5253 121 22.328 120.445 22.328C119.901 22.328 119.437 22.5253 119.053 22.92C118.68 23.3147 118.493 23.8533 118.493 24.536C118.493 25.2187 118.68 25.7573 119.053 26.152C119.437 26.5467 119.901 26.744 120.445 26.744C120.989 26.744 121.453 26.5467 121.837 26.152C122.221 25.7467 122.413 25.2027 122.413 24.52ZM135.449 20.072V29H132.713V27.784C132.435 28.1787 132.057 28.4987 131.577 28.744C131.107 28.9787 130.585 29.096 130.009 29.096C129.326 29.096 128.723 28.9467 128.201 28.648C127.678 28.3387 127.273 27.896 126.985 27.32C126.697 26.744 126.553 26.0667 126.553 25.288V20.072H129.273V24.92C129.273 25.5173 129.427 25.9813 129.737 26.312C130.046 26.6427 130.462 26.808 130.985 26.808C131.518 26.808 131.939 26.6427 132.249 26.312C132.558 25.9813 132.713 25.5173 132.713 24.92V20.072H135.449ZM136.87 24.52C136.87 23.6027 137.041 22.7973 137.382 22.104C137.734 21.4107 138.209 20.8773 138.806 20.504C139.403 20.1307 140.07 19.944 140.806 19.944C141.435 19.944 141.985 20.072 142.454 20.328C142.934 20.584 143.302 20.92 143.558 21.336V20.072H146.294V29H143.558V27.736C143.291 28.152 142.918 28.488 142.438 28.744C141.969 29 141.419 29.128 140.79 29.128C140.065 29.128 139.403 28.9413 138.806 28.568C138.209 28.184 137.734 27.6453 137.382 26.952C137.041 26.248 136.87 25.4373 136.87 24.52ZM143.558 24.536C143.558 23.8533 143.366 23.3147 142.982 22.92C142.609 22.5253 142.15 22.328 141.606 22.328C141.062 22.328 140.598 22.5253 140.214 22.92C139.841 23.304 139.654 23.8373 139.654 24.52C139.654 25.2027 139.841 25.7467 140.214 26.152C140.598 26.5467 141.062 26.744 141.606 26.744C142.15 26.744 142.609 26.5467 142.982 26.152C143.366 25.7573 143.558 25.2187 143.558 24.536ZM153.249 26.68V29H151.857C150.865 29 150.092 28.76 149.537 28.28C148.983 27.7893 148.705 26.9947 148.705 25.896V22.344H147.617V20.072H148.705V17.896H151.441V20.072H153.233V22.344H151.441V25.928C151.441 26.1947 151.505 26.3867 151.633 26.504C151.761 26.6213 151.975 26.68 152.273 26.68H153.249ZM154.229 24.52C154.229 23.6027 154.4 22.7973 154.741 22.104C155.093 21.4107 155.568 20.8773 156.165 20.504C156.763 20.1307 157.429 19.944 158.165 19.944C158.795 19.944 159.344 20.072 159.813 20.328C160.293 20.584 160.661 20.92 160.917 21.336V20.072H163.653V29H160.917V27.736C160.651 28.152 160.277 28.488 159.797 28.744C159.328 29 158.779 29.128 158.149 29.128C157.424 29.128 156.763 28.9413 156.165 28.568C155.568 28.184 155.093 27.6453 154.741 26.952C154.4 26.248 154.229 25.4373 154.229 24.52ZM160.917 24.536C160.917 23.8533 160.725 23.3147 160.341 22.92C159.968 22.5253 159.509 22.328 158.965 22.328C158.421 22.328 157.957 22.5253 157.573 22.92C157.2 23.304 157.013 23.8373 157.013 24.52C157.013 25.2027 157.2 25.7467 157.573 26.152C157.957 26.5467 158.421 26.744 158.965 26.744C159.509 26.744 159.968 26.5467 160.341 26.152C160.725 25.7573 160.917 25.2187 160.917 24.536ZM171.073 19.976C172.118 19.976 172.95 20.3173 173.569 21C174.198 21.672 174.513 22.6 174.513 23.784V29H171.793V24.152C171.793 23.5547 171.638 23.0907 171.329 22.76C171.019 22.4293 170.603 22.264 170.081 22.264C169.558 22.264 169.142 22.4293 168.833 22.76C168.523 23.0907 168.369 23.5547 168.369 24.152V29H165.633V20.072H168.369V21.256C168.646 20.8613 169.019 20.552 169.489 20.328C169.958 20.0933 170.486 19.976 171.073 19.976ZM90.912 44.232L88.176 53H86.672L84.56 46.04L82.448 53H80.944L78.192 44.232H79.68L81.696 51.592L83.872 44.232H85.36L87.488 51.608L89.472 44.232H90.912ZM100.357 48.28C100.357 48.5573 100.341 48.8507 100.309 49.16H93.301C93.3543 50.024 93.6477 50.7013 94.181 51.192C94.725 51.672 95.381 51.912 96.149 51.912C96.7783 51.912 97.301 51.768 97.717 51.48C98.1437 51.1813 98.4423 50.7867 98.613 50.296H100.181C99.9463 51.1387 99.477 51.8267 98.773 52.36C98.069 52.8827 97.1943 53.144 96.149 53.144C95.317 53.144 94.5703 52.9573 93.909 52.584C93.2583 52.2107 92.7463 51.6827 92.373 51C91.9997 50.3067 91.813 49.5067 91.813 48.6C91.813 47.6933 91.9943 46.8987 92.357 46.216C92.7197 45.5333 93.2263 45.0107 93.877 44.648C94.5383 44.2747 95.2957 44.088 96.149 44.088C96.981 44.088 97.717 44.2693 98.357 44.632C98.997 44.9947 99.4877 45.496 99.829 46.136C100.181 46.7653 100.357 47.48 100.357 48.28ZM98.853 47.976C98.853 47.4213 98.7303 46.9467 98.485 46.552C98.2397 46.1467 97.9037 45.8427 97.477 45.64C97.061 45.4267 96.597 45.32 96.085 45.32C95.349 45.32 94.7197 45.5547 94.197 46.024C93.685 46.4933 93.3917 47.144 93.317 47.976H98.853ZM103.735 45.864C104.034 45.3413 104.471 44.9147 105.047 44.584C105.623 44.2533 106.279 44.088 107.015 44.088C107.804 44.088 108.514 44.2747 109.143 44.648C109.772 45.0213 110.268 45.5493 110.631 46.232C110.994 46.904 111.175 47.688 111.175 48.584C111.175 49.4693 110.994 50.2587 110.631 50.952C110.268 51.6453 109.767 52.184 109.127 52.568C108.498 52.952 107.794 53.144 107.015 53.144C106.258 53.144 105.591 52.9787 105.015 52.648C104.45 52.3173 104.023 51.896 103.735 51.384V53H102.279V41.16H103.735V45.864ZM109.687 48.584C109.687 47.9227 109.554 47.3467 109.287 46.856C109.02 46.3653 108.658 45.992 108.199 45.736C107.751 45.48 107.255 45.352 106.711 45.352C106.178 45.352 105.682 45.4853 105.223 45.752C104.775 46.008 104.412 46.3867 104.135 46.888C103.868 47.3787 103.735 47.9493 103.735 48.6C103.735 49.2613 103.868 49.8427 104.135 50.344C104.412 50.8347 104.775 51.2133 105.223 51.48C105.682 51.736 106.178 51.864 106.711 51.864C107.255 51.864 107.751 51.736 108.199 51.48C108.658 51.2133 109.02 50.8347 109.287 50.344C109.554 49.8427 109.687 49.256 109.687 48.584ZM116.195 53.144C115.523 53.144 114.921 53.032 114.387 52.808C113.854 52.5733 113.433 52.2533 113.123 51.848C112.814 51.432 112.643 50.9573 112.611 50.424H114.115C114.158 50.8613 114.361 51.2187 114.723 51.496C115.097 51.7733 115.582 51.912 116.179 51.912C116.734 51.912 117.171 51.7893 117.491 51.544C117.811 51.2987 117.971 50.9893 117.971 50.616C117.971 50.232 117.801 49.9493 117.459 49.768C117.118 49.576 116.59 49.3893 115.875 49.208C115.225 49.0373 114.691 48.8667 114.275 48.696C113.87 48.5147 113.518 48.2533 113.219 47.912C112.931 47.56 112.787 47.1013 112.787 46.536C112.787 46.088 112.921 45.6773 113.187 45.304C113.454 44.9307 113.833 44.6373 114.323 44.424C114.814 44.2 115.374 44.088 116.003 44.088C116.974 44.088 117.758 44.3333 118.355 44.824C118.953 45.3147 119.273 45.9867 119.315 46.84H117.859C117.827 46.3813 117.641 46.0133 117.299 45.736C116.969 45.4587 116.521 45.32 115.955 45.32C115.433 45.32 115.017 45.432 114.707 45.656C114.398 45.88 114.243 46.1733 114.243 46.536C114.243 46.824 114.334 47.064 114.515 47.256C114.707 47.4373 114.942 47.5867 115.219 47.704C115.507 47.8107 115.902 47.9333 116.403 48.072C117.033 48.2427 117.545 48.4133 117.939 48.584C118.334 48.744 118.67 48.9893 118.947 49.32C119.235 49.6507 119.385 50.0827 119.395 50.616C119.395 51.096 119.262 51.528 118.995 51.912C118.729 52.296 118.35 52.6 117.859 52.824C117.379 53.0373 116.825 53.144 116.195 53.144ZM122.203 42.808C121.925 42.808 121.691 42.712 121.499 42.52C121.307 42.328 121.211 42.0933 121.211 41.816C121.211 41.5387 121.307 41.304 121.499 41.112C121.691 40.92 121.925 40.824 122.203 40.824C122.469 40.824 122.693 40.92 122.875 41.112C123.067 41.304 123.163 41.5387 123.163 41.816C123.163 42.0933 123.067 42.328 122.875 42.52C122.693 42.712 122.469 42.808 122.203 42.808ZM122.907 44.232V53H121.451V44.232H122.907ZM127.164 45.432V50.6C127.164 51.0267 127.255 51.3307 127.436 51.512C127.618 51.6827 127.932 51.768 128.38 51.768H129.452V53H128.14C127.33 53 126.722 52.8133 126.316 52.44C125.911 52.0667 125.708 51.4533 125.708 50.6V45.432H124.572V44.232H125.708V42.024H127.164V44.232H129.452V45.432H127.164ZM139.216 48.28C139.216 48.5573 139.2 48.8507 139.168 49.16H132.16C132.214 50.024 132.507 50.7013 133.04 51.192C133.584 51.672 134.24 51.912 135.008 51.912C135.638 51.912 136.16 51.768 136.576 51.48C137.003 51.1813 137.302 50.7867 137.472 50.296H139.04C138.806 51.1387 138.336 51.8267 137.632 52.36C136.928 52.8827 136.054 53.144 135.008 53.144C134.176 53.144 133.43 52.9573 132.768 52.584C132.118 52.2107 131.606 51.6827 131.232 51C130.859 50.3067 130.672 49.5067 130.672 48.6C130.672 47.6933 130.854 46.8987 131.216 46.216C131.579 45.5333 132.086 45.0107 132.736 44.648C133.398 44.2747 134.155 44.088 135.008 44.088C135.84 44.088 136.576 44.2693 137.216 44.632C137.856 44.9947 138.347 45.496 138.688 46.136C139.04 46.7653 139.216 47.48 139.216 48.28ZM137.712 47.976C137.712 47.4213 137.59 46.9467 137.344 46.552C137.099 46.1467 136.763 45.8427 136.336 45.64C135.92 45.4267 135.456 45.32 134.944 45.32C134.208 45.32 133.579 45.5547 133.056 46.024C132.544 46.4933 132.251 47.144 132.176 47.976H137.712Z" fill="#424242"/>
<path d="M40.5401 45.4357H34.3858V39.2815H40.5401V45.4357ZM48.3257 45.4357H42.1713V39.2815H48.3257V45.4357ZM32.7545 45.4357H26.6002V39.2815H32.7545V45.4357ZM48.3257 25.9718V37.3165H26.6002V25.9718H48.3257ZM51.4399 22.7093H23.5601V48.2905H51.4399V22.7093H51.4399ZM19 52.8134V18.1863H56V52.8135L19 52.8134Z" fill="#5A9F91"/>
</svg>
