<svg width="214" height="70" viewBox="0 0 214 70" fill="none" xmlns="http://www.w3.org/2000/svg">
<rect width="214" height="70" rx="8" fill="white"/>
<path d="M76.056 29.112C75.2347 29.112 74.4987 28.9787 73.848 28.712C73.1973 28.4453 72.6747 28.0507 72.28 27.528C71.896 27.0053 71.6933 26.376 71.672 25.64H74.584C74.6267 26.056 74.7707 26.376 75.016 26.6C75.2613 26.8133 75.5813 26.92 75.976 26.92C76.3813 26.92 76.7013 26.8293 76.936 26.648C77.1707 26.456 77.288 26.1947 77.288 25.864C77.288 25.5867 77.192 25.3573 77 25.176C76.8187 24.9947 76.5893 24.8453 76.312 24.728C76.0453 24.6107 75.6613 24.4773 75.16 24.328C74.4347 24.104 73.8427 23.88 73.384 23.656C72.9253 23.432 72.5307 23.1013 72.2 22.664C71.8693 22.2267 71.704 21.656 71.704 20.952C71.704 19.9067 72.0827 19.0907 72.84 18.504C73.5973 17.9067 74.584 17.608 75.8 17.608C77.0373 17.608 78.0347 17.9067 78.792 18.504C79.5493 19.0907 79.9547 19.912 80.008 20.968H77.048C77.0267 20.6053 76.8933 20.3227 76.648 20.12C76.4027 19.9067 76.088 19.8 75.704 19.8C75.3733 19.8 75.1067 19.8907 74.904 20.072C74.7013 20.2427 74.6 20.4933 74.6 20.824C74.6 21.1867 74.7707 21.4693 75.112 21.672C75.4533 21.8747 75.9867 22.0933 76.712 22.328C77.4373 22.5733 78.024 22.808 78.472 23.032C78.9307 23.256 79.3253 23.5813 79.656 24.008C79.9867 24.4347 80.152 24.984 80.152 25.656C80.152 26.296 79.9867 26.8773 79.656 27.4C79.336 27.9227 78.8667 28.3387 78.248 28.648C77.6293 28.9573 76.8987 29.112 76.056 29.112ZM90.2517 24.392C90.2517 24.648 90.2358 24.9147 90.2038 25.192H84.0118C84.0544 25.7467 84.2304 26.1733 84.5398 26.472C84.8598 26.76 85.2491 26.904 85.7078 26.904C86.3904 26.904 86.8651 26.616 87.1318 26.04H90.0438C89.8944 26.6267 89.6224 27.1547 89.2278 27.624C88.8438 28.0933 88.3584 28.4613 87.7718 28.728C87.1851 28.9947 86.5291 29.128 85.8038 29.128C84.9291 29.128 84.1504 28.9413 83.4678 28.568C82.7851 28.1947 82.2518 27.6613 81.8678 26.968C81.4838 26.2747 81.2918 25.464 81.2918 24.536C81.2918 23.608 81.4784 22.7973 81.8518 22.104C82.2358 21.4107 82.7691 20.8773 83.4518 20.504C84.1344 20.1307 84.9184 19.944 85.8038 19.944C86.6678 19.944 87.4358 20.1253 88.1078 20.488C88.7798 20.8507 89.3024 21.368 89.6758 22.04C90.0598 22.712 90.2517 23.496 90.2517 24.392ZM87.4518 23.672C87.4518 23.2027 87.2918 22.8293 86.9718 22.552C86.6518 22.2747 86.2518 22.136 85.7718 22.136C85.3131 22.136 84.9238 22.2693 84.6038 22.536C84.2944 22.8027 84.1024 23.1813 84.0278 23.672H87.4518ZM96.6711 26.68V29H95.2791C94.2871 29 93.5138 28.76 92.9591 28.28C92.4045 27.7893 92.1271 26.9947 92.1271 25.896V22.344H91.0391V20.072H92.1271V17.896H94.8631V20.072H96.6551V22.344H94.8631V25.928C94.8631 26.1947 94.9271 26.3867 95.0551 26.504C95.1831 26.6213 95.3965 26.68 95.6951 26.68H96.6711ZM107.011 20.072V29H104.275V27.784C103.998 28.1787 103.619 28.4987 103.139 28.744C102.67 28.9787 102.147 29.096 101.571 29.096C100.888 29.096 100.286 28.9467 99.7631 28.648C99.2405 28.3387 98.8351 27.896 98.5471 27.32C98.2591 26.744 98.1151 26.0667 98.1151 25.288V20.072H100.835V24.92C100.835 25.5173 100.99 25.9813 101.299 26.312C101.608 26.6427 102.024 26.808 102.547 26.808C103.08 26.808 103.502 26.6427 103.811 26.312C104.12 25.9813 104.275 25.5173 104.275 24.92V20.072H107.011ZM111.712 21.336C111.979 20.92 112.347 20.584 112.816 20.328C113.286 20.072 113.835 19.944 114.464 19.944C115.2 19.944 115.867 20.1307 116.464 20.504C117.062 20.8773 117.531 21.4107 117.872 22.104C118.224 22.7973 118.4 23.6027 118.4 24.52C118.4 25.4373 118.224 26.248 117.872 26.952C117.531 27.6453 117.062 28.184 116.464 28.568C115.867 28.9413 115.2 29.128 114.464 29.128C113.846 29.128 113.296 29 112.816 28.744C112.347 28.488 111.979 28.1573 111.712 27.752V33.256H108.976V20.072H111.712V21.336ZM115.616 24.52C115.616 23.8373 115.424 23.304 115.04 22.92C114.667 22.5253 114.203 22.328 113.648 22.328C113.104 22.328 112.64 22.5253 112.256 22.92C111.883 23.3147 111.696 23.8533 111.696 24.536C111.696 25.2187 111.883 25.7573 112.256 26.152C112.64 26.5467 113.104 26.744 113.648 26.744C114.192 26.744 114.656 26.5467 115.04 26.152C115.424 25.7467 115.616 25.2027 115.616 24.52ZM131.818 29L130.778 27.992C129.744 28.7813 128.506 29.176 127.066 29.176C126.202 29.176 125.45 29.0373 124.81 28.76C124.17 28.472 123.674 28.072 123.322 27.56C122.981 27.0373 122.81 26.4293 122.81 25.736C122.81 25.032 122.997 24.3973 123.37 23.832C123.754 23.256 124.325 22.7867 125.082 22.424C124.805 22.0827 124.608 21.7573 124.49 21.448C124.373 21.128 124.314 20.7813 124.314 20.408C124.314 19.8747 124.453 19.3893 124.73 18.952C125.008 18.5147 125.408 18.1733 125.93 17.928C126.464 17.672 127.093 17.544 127.818 17.544C128.554 17.544 129.178 17.6773 129.69 17.944C130.202 18.2107 130.586 18.568 130.842 19.016C131.098 19.464 131.216 19.9547 131.194 20.488H128.618C128.629 20.2 128.554 19.9813 128.394 19.832C128.245 19.672 128.042 19.592 127.786 19.592C127.53 19.592 127.317 19.6667 127.146 19.816C126.976 19.9653 126.89 20.1573 126.89 20.392C126.89 20.616 126.96 20.8507 127.098 21.096C127.248 21.3413 127.477 21.624 127.786 21.944L130.522 24.616C130.544 24.5627 130.57 24.4987 130.602 24.424C130.645 24.3493 130.688 24.264 130.73 24.168L131.322 23.16H134.058L133.29 24.552C133.002 25.1813 132.672 25.7787 132.298 26.344L135.002 29H131.818ZM127.194 26.968C127.909 26.968 128.544 26.7653 129.098 26.36L126.602 23.944C125.834 24.3387 125.45 24.872 125.45 25.544C125.45 25.9493 125.605 26.2907 125.914 26.568C126.234 26.8347 126.661 26.968 127.194 26.968ZM140.759 19.144C140.279 19.144 139.884 19.0053 139.575 18.728C139.276 18.44 139.127 18.088 139.127 17.672C139.127 17.2453 139.276 16.8933 139.575 16.616C139.884 16.328 140.279 16.184 140.759 16.184C141.228 16.184 141.612 16.328 141.911 16.616C142.22 16.8933 142.375 17.2453 142.375 17.672C142.375 18.088 142.22 18.44 141.911 18.728C141.612 19.0053 141.228 19.144 140.759 19.144ZM142.119 20.072V29H139.383V20.072H142.119ZM149.541 19.976C150.587 19.976 151.419 20.3173 152.037 21C152.667 21.672 152.981 22.6 152.981 23.784V29H150.261V24.152C150.261 23.5547 150.107 23.0907 149.797 22.76C149.488 22.4293 149.072 22.264 148.549 22.264C148.027 22.264 147.611 22.4293 147.301 22.76C146.992 23.0907 146.837 23.5547 146.837 24.152V29H144.101V20.072H146.837V21.256C147.115 20.8613 147.488 20.552 147.957 20.328C148.427 20.0933 148.955 19.976 149.541 19.976ZM158.515 29.128C157.736 29.128 157.043 28.9947 156.435 28.728C155.827 28.4613 155.347 28.0987 154.995 27.64C154.643 27.1707 154.445 26.648 154.403 26.072H157.107C157.139 26.3813 157.283 26.632 157.539 26.824C157.795 27.016 158.109 27.112 158.483 27.112C158.824 27.112 159.085 27.048 159.267 26.92C159.459 26.7813 159.555 26.6053 159.555 26.392C159.555 26.136 159.421 25.9493 159.155 25.832C158.888 25.704 158.456 25.5653 157.859 25.416C157.219 25.2667 156.685 25.112 156.259 24.952C155.832 24.7813 155.464 24.52 155.155 24.168C154.845 23.8053 154.691 23.32 154.691 22.712C154.691 22.2 154.829 21.736 155.107 21.32C155.395 20.8933 155.811 20.5573 156.355 20.312C156.909 20.0667 157.565 19.944 158.323 19.944C159.443 19.944 160.323 20.2213 160.963 20.776C161.613 21.3307 161.987 22.0667 162.083 22.984H159.555C159.512 22.6747 159.373 22.4293 159.139 22.248C158.915 22.0667 158.616 21.976 158.243 21.976C157.923 21.976 157.677 22.04 157.507 22.168C157.336 22.2853 157.251 22.4507 157.251 22.664C157.251 22.92 157.384 23.112 157.651 23.24C157.928 23.368 158.355 23.496 158.931 23.624C159.592 23.7947 160.131 23.9653 160.547 24.136C160.963 24.296 161.325 24.5627 161.635 24.936C161.955 25.2987 162.12 25.7893 162.131 26.408C162.131 26.9307 161.981 27.4 161.683 27.816C161.395 28.2213 160.973 28.5413 160.419 28.776C159.875 29.0107 159.24 29.128 158.515 29.128ZM168.781 26.68V29H167.389C166.397 29 165.623 28.76 165.069 28.28C164.514 27.7893 164.237 26.9947 164.237 25.896V22.344H163.149V20.072H164.237V17.896H166.973V20.072H168.765V22.344H166.973V25.928C166.973 26.1947 167.037 26.3867 167.165 26.504C167.293 26.6213 167.506 26.68 167.805 26.68H168.781ZM169.761 24.52C169.761 23.6027 169.931 22.7973 170.273 22.104C170.625 21.4107 171.099 20.8773 171.697 20.504C172.294 20.1307 172.961 19.944 173.697 19.944C174.326 19.944 174.875 20.072 175.345 20.328C175.825 20.584 176.193 20.92 176.449 21.336V20.072H179.185V29H176.449V27.736C176.182 28.152 175.809 28.488 175.329 28.744C174.859 29 174.31 29.128 173.681 29.128C172.955 29.128 172.294 28.9413 171.697 28.568C171.099 28.184 170.625 27.6453 170.273 26.952C169.931 26.248 169.761 25.4373 169.761 24.52ZM176.449 24.536C176.449 23.8533 176.257 23.3147 175.873 22.92C175.499 22.5253 175.041 22.328 174.497 22.328C173.953 22.328 173.489 22.5253 173.105 22.92C172.731 23.304 172.545 23.8373 172.545 24.52C172.545 25.2027 172.731 25.7467 173.105 26.152C173.489 26.5467 173.953 26.744 174.497 26.744C175.041 26.744 175.499 26.5467 175.873 26.152C176.257 25.7573 176.449 25.2187 176.449 24.536ZM183.9 17.16V29H181.164V17.16H183.9ZM188.619 17.16V29H185.883V17.16H188.619ZM75.336 53.144C74.664 53.144 74.0613 53.032 73.528 52.808C72.9947 52.5733 72.5733 52.2533 72.264 51.848C71.9547 51.432 71.784 50.9573 71.752 50.424H73.256C73.2987 50.8613 73.5013 51.2187 73.864 51.496C74.2373 51.7733 74.7227 51.912 75.32 51.912C75.8747 51.912 76.312 51.7893 76.632 51.544C76.952 51.2987 77.112 50.9893 77.112 50.616C77.112 50.232 76.9413 49.9493 76.6 49.768C76.2587 49.576 75.7307 49.3893 75.016 49.208C74.3653 49.0373 73.832 48.8667 73.416 48.696C73.0107 48.5147 72.6587 48.2533 72.36 47.912C72.072 47.56 71.928 47.1013 71.928 46.536C71.928 46.088 72.0613 45.6773 72.328 45.304C72.5947 44.9307 72.9733 44.6373 73.464 44.424C73.9547 44.2 74.5147 44.088 75.144 44.088C76.1147 44.088 76.8987 44.3333 77.496 44.824C78.0933 45.3147 78.4133 45.9867 78.456 46.84H77C76.968 46.3813 76.7813 46.0133 76.44 45.736C76.1093 45.4587 75.6613 45.32 75.096 45.32C74.5733 45.32 74.1573 45.432 73.848 45.656C73.5387 45.88 73.384 46.1733 73.384 46.536C73.384 46.824 73.4747 47.064 73.656 47.256C73.848 47.4373 74.0827 47.5867 74.36 47.704C74.648 47.8107 75.0427 47.9333 75.544 48.072C76.1733 48.2427 76.6853 48.4133 77.08 48.584C77.4747 48.744 77.8107 48.9893 78.088 49.32C78.376 49.6507 78.5253 50.0827 78.536 50.616C78.536 51.096 78.4027 51.528 78.136 51.912C77.8693 52.296 77.4907 52.6 77 52.824C76.52 53.0373 75.9653 53.144 75.336 53.144ZM84.4154 53.144C83.594 53.144 82.8474 52.9573 82.1754 52.584C81.514 52.2107 80.9914 51.6827 80.6074 51C80.234 50.3067 80.0474 49.5067 80.0474 48.6C80.0474 47.704 80.2394 46.9147 80.6234 46.232C81.018 45.5387 81.5514 45.0107 82.2234 44.648C82.8954 44.2747 83.6474 44.088 84.4794 44.088C85.3114 44.088 86.0634 44.2747 86.7354 44.648C87.4074 45.0107 87.9354 45.5333 88.3194 46.216C88.714 46.8987 88.9114 47.6933 88.9114 48.6C88.9114 49.5067 88.7087 50.3067 88.3034 51C87.9087 51.6827 87.37 52.2107 86.6874 52.584C86.0047 52.9573 85.2474 53.144 84.4154 53.144ZM84.4154 51.864C84.938 51.864 85.4287 51.7413 85.8874 51.496C86.346 51.2507 86.714 50.8827 86.9914 50.392C87.2794 49.9013 87.4234 49.304 87.4234 48.6C87.4234 47.896 87.2847 47.2987 87.0074 46.808C86.73 46.3173 86.3674 45.9547 85.9194 45.72C85.4714 45.4747 84.986 45.352 84.4634 45.352C83.93 45.352 83.4394 45.4747 82.9914 45.72C82.554 45.9547 82.202 46.3173 81.9354 46.808C81.6687 47.2987 81.5354 47.896 81.5354 48.6C81.5354 49.3147 81.6634 49.9173 81.9194 50.408C82.186 50.8987 82.538 51.2667 82.9754 51.512C83.4127 51.7467 83.8927 51.864 84.4154 51.864ZM94.3938 45.432H92.5538V53H91.0978V45.432H89.9618V44.232H91.0978V43.608C91.0978 42.6267 91.3484 41.912 91.8498 41.464C92.3618 41.0053 93.1778 40.776 94.2977 40.776V41.992C93.6578 41.992 93.2044 42.12 92.9378 42.376C92.6818 42.6213 92.5538 43.032 92.5538 43.608V44.232H94.3938V45.432ZM97.8674 45.432V50.6C97.8674 51.0267 97.958 51.3307 98.1394 51.512C98.3207 51.6827 98.6354 51.768 99.0834 51.768H100.155V53H98.8434C98.0327 53 97.4247 52.8133 97.0194 52.44C96.614 52.0667 96.4114 51.4533 96.4114 50.6V45.432H95.2754V44.232H96.4114V42.024H97.8674V44.232H100.155V45.432H97.8674ZM113.6 44.232L110.864 53H109.36L107.248 46.04L105.136 53H103.632L100.88 44.232H102.368L104.384 51.592L106.56 44.232H108.048L110.176 51.608L112.16 44.232H113.6ZM114.501 48.584C114.501 47.688 114.682 46.904 115.045 46.232C115.407 45.5493 115.903 45.0213 116.533 44.648C117.173 44.2747 117.882 44.088 118.661 44.088C119.429 44.088 120.095 44.2533 120.661 44.584C121.226 44.9147 121.647 45.3307 121.925 45.832V44.232H123.397V53H121.925V51.368C121.637 51.88 121.205 52.3067 120.629 52.648C120.063 52.9787 119.402 53.144 118.645 53.144C117.866 53.144 117.162 52.952 116.533 52.568C115.903 52.184 115.407 51.6453 115.045 50.952C114.682 50.2587 114.501 49.4693 114.501 48.584ZM121.925 48.6C121.925 47.9387 121.791 47.3627 121.525 46.872C121.258 46.3813 120.895 46.008 120.437 45.752C119.989 45.4853 119.493 45.352 118.949 45.352C118.405 45.352 117.909 45.48 117.461 45.736C117.013 45.992 116.655 46.3653 116.389 46.856C116.122 47.3467 115.989 47.9227 115.989 48.584C115.989 49.256 116.122 49.8427 116.389 50.344C116.655 50.8347 117.013 51.2133 117.461 51.48C117.909 51.736 118.405 51.864 118.949 51.864C119.493 51.864 119.989 51.736 120.437 51.48C120.895 51.2133 121.258 50.8347 121.525 50.344C121.791 49.8427 121.925 49.2613 121.925 48.6ZM127.313 45.656C127.569 45.1547 127.932 44.7653 128.401 44.488C128.881 44.2107 129.462 44.072 130.145 44.072V45.576H129.761C128.129 45.576 127.313 46.4613 127.313 48.232V53H125.857V44.232H127.313V45.656ZM139.826 48.28C139.826 48.5573 139.81 48.8507 139.778 49.16H132.77C132.823 50.024 133.116 50.7013 133.65 51.192C134.194 51.672 134.85 51.912 135.618 51.912C136.247 51.912 136.77 51.768 137.186 51.48C137.612 51.1813 137.911 50.7867 138.082 50.296H139.65C139.415 51.1387 138.946 51.8267 138.242 52.36C137.538 52.8827 136.663 53.144 135.618 53.144C134.786 53.144 134.039 52.9573 133.378 52.584C132.727 52.2107 132.215 51.6827 131.842 51C131.468 50.3067 131.282 49.5067 131.282 48.6C131.282 47.6933 131.463 46.8987 131.826 46.216C132.188 45.5333 132.695 45.0107 133.346 44.648C134.007 44.2747 134.764 44.088 135.618 44.088C136.45 44.088 137.186 44.2693 137.826 44.632C138.466 44.9947 138.956 45.496 139.298 46.136C139.65 46.7653 139.826 47.48 139.826 48.28ZM138.322 47.976C138.322 47.4213 138.199 46.9467 137.954 46.552C137.708 46.1467 137.372 45.8427 136.946 45.64C136.53 45.4267 136.066 45.32 135.554 45.32C134.818 45.32 134.188 45.5547 133.666 46.024C133.154 46.4933 132.86 47.144 132.786 47.976H138.322Z" fill="#424242"/>
<path d="M22.3828 19.5798H54.0879V50.4202H22.3828V19.5798Z" fill="#0C0824"/>
<path d="M22.3828 19.58H54.0878V50.4204H22.3828V19.58ZM20.9412 51.862H55.5294V18.1384H20.9412V51.862ZM44.2598 31.9737C43.1209 31.9737 42.7317 32.5506 42.7317 33.0262C42.7317 33.545 42.9912 33.9057 44.5192 34.6975C46.7823 35.7933 47.4839 36.8445 47.4839 38.3874C47.4839 40.6937 45.7261 41.9327 43.3482 41.9327C42.3276 41.9705 41.3133 41.7584 40.3933 41.315C40.292 41.2718 40.2785 41.2001 40.2785 41.084V38.963C40.2785 38.8185 40.3501 38.7752 40.4514 38.8481C41.3154 39.4037 42.321 39.6987 43.3482 39.698C44.4871 39.698 44.9627 39.2224 44.9627 38.5739C44.9627 38.0551 44.6316 37.5943 43.1752 36.8445C41.1283 35.8649 40.2785 34.868 40.2785 33.2127C40.2785 31.3536 41.7336 29.812 44.2561 29.812C45.1341 29.7743 46.0109 29.9116 46.8354 30.2159C46.8829 30.2467 46.9213 30.2896 46.9467 30.3402C46.9721 30.3908 46.9836 30.4472 46.9799 30.5037V32.4802C46.9799 32.5951 46.9083 32.668 46.7638 32.6247C46.0018 32.1861 45.1352 31.962 44.2561 31.9762L44.2598 31.9737ZM31.8649 33.6883C32.1959 33.7167 32.4553 33.7167 33.0322 33.7167C34.7184 33.7167 36.3033 33.1262 36.3033 30.8348C36.3033 29.0041 35.1643 28.0825 33.2484 28.0825C32.6715 28.0825 32.1243 28.111 31.8649 28.1258V33.6883ZM29.2992 26.0295C29.2992 25.9282 29.5005 25.8565 29.6166 25.8565C30.8554 25.8059 32.0951 25.782 33.3349 25.7849C37.3273 25.7849 38.8838 27.9751 38.8838 30.7718C38.8838 34.432 36.2316 36.0033 32.9754 36.0033C32.4282 36.0033 32.2404 35.9748 31.8513 35.9748V41.509C31.8513 41.6238 31.808 41.6819 31.6783 41.6819H29.4733C29.3585 41.6819 29.3004 41.6387 29.3004 41.509V26.0357L29.2992 26.0295Z" fill="#31C5F0"/>
</svg>
