<svg width="214" height="70" viewBox="0 0 214 70" fill="none" xmlns="http://www.w3.org/2000/svg">
<rect width="214" height="70" rx="8" fill="white"/>
<path d="M83.152 29.112C81.84 29.112 80.7627 28.8027 79.92 28.184C79.0773 27.5547 78.624 26.6587 78.56 25.496H81.904C81.936 25.8907 82.0533 26.1787 82.256 26.36C82.4587 26.5413 82.72 26.632 83.04 26.632C83.328 26.632 83.5627 26.5627 83.744 26.424C83.936 26.2747 84.032 26.072 84.032 25.816C84.032 25.4853 83.8773 25.2293 83.568 25.048C83.2587 24.8667 82.7573 24.664 82.064 24.44C81.328 24.1947 80.7307 23.96 80.272 23.736C79.824 23.5013 79.4293 23.1653 79.088 22.728C78.7573 22.28 78.592 21.6987 78.592 20.984C78.592 20.2587 78.7733 19.64 79.136 19.128C79.4987 18.6053 80 18.2107 80.64 17.944C81.28 17.6773 82.0053 17.544 82.816 17.544C84.128 17.544 85.1733 17.8533 85.952 18.472C86.7413 19.08 87.1627 19.9387 87.216 21.048H83.808C83.7973 20.7067 83.6907 20.4507 83.488 20.28C83.296 20.1093 83.0453 20.024 82.736 20.024C82.5013 20.024 82.3093 20.0933 82.16 20.232C82.0107 20.3707 81.936 20.568 81.936 20.824C81.936 21.0373 82.016 21.224 82.176 21.384C82.3467 21.5333 82.5547 21.6667 82.8 21.784C83.0453 21.8907 83.408 22.0293 83.888 22.2C84.6027 22.4453 85.1893 22.6907 85.648 22.936C86.1173 23.1707 86.5173 23.5067 86.848 23.944C87.1893 24.3707 87.36 24.9147 87.36 25.576C87.36 26.248 87.1893 26.8507 86.848 27.384C86.5173 27.9173 86.032 28.3387 85.392 28.648C84.7627 28.9573 84.016 29.112 83.152 29.112ZM97.3939 24.408C97.3939 24.6533 97.3779 24.8987 97.3459 25.144H91.4099C91.4419 25.6347 91.5752 26.0027 91.8099 26.248C92.0552 26.4827 92.3645 26.6 92.7379 26.6C93.2605 26.6 93.6339 26.3653 93.8579 25.896H97.2019C97.0632 26.5147 96.7912 27.0693 96.3859 27.56C95.9912 28.04 95.4899 28.4187 94.8819 28.696C94.2739 28.9733 93.6019 29.112 92.8659 29.112C91.9805 29.112 91.1912 28.9253 90.4979 28.552C89.8152 28.1787 89.2765 27.6453 88.8819 26.952C88.4979 26.2587 88.3059 25.4427 88.3059 24.504C88.3059 23.5653 88.4979 22.7547 88.8819 22.072C89.2659 21.3787 89.7992 20.8453 90.4819 20.472C91.1752 20.0987 91.9699 19.912 92.8659 19.912C93.7512 19.912 94.5352 20.0933 95.2179 20.456C95.9005 20.8187 96.4339 21.3413 96.8179 22.024C97.2019 22.696 97.3939 23.4907 97.3939 24.408ZM94.1939 23.624C94.1939 23.24 94.0659 22.9413 93.8099 22.728C93.5539 22.504 93.2339 22.392 92.8499 22.392C92.4659 22.392 92.1512 22.4987 91.9059 22.712C91.6605 22.9147 91.5005 23.2187 91.4259 23.624H94.1939ZM101.813 21.608C102.165 21.096 102.592 20.6907 103.093 20.392C103.595 20.0933 104.133 19.944 104.709 19.944V23.288H103.829C103.147 23.288 102.64 23.4213 102.309 23.688C101.979 23.9547 101.813 24.4187 101.813 25.08V29H98.6773V20.024H101.813V21.608ZM110.138 26.04L111.818 20.024H115.162L112.074 29H108.17L105.082 20.024H108.426L110.138 26.04ZM117.808 19.192C117.253 19.192 116.805 19.0427 116.464 18.744C116.133 18.4347 115.968 18.0507 115.968 17.592C115.968 17.1227 116.133 16.7333 116.464 16.424C116.805 16.1147 117.253 15.96 117.808 15.96C118.352 15.96 118.789 16.1147 119.12 16.424C119.461 16.7333 119.632 17.1227 119.632 17.592C119.632 18.0507 119.461 18.4347 119.12 18.744C118.789 19.0427 118.352 19.192 117.808 19.192ZM119.36 20.024V29H116.224V20.024H119.36ZM120.634 24.504C120.634 23.576 120.826 22.7653 121.21 22.072C121.594 21.3787 122.127 20.8453 122.81 20.472C123.503 20.0987 124.293 19.912 125.178 19.912C126.319 19.912 127.279 20.2267 128.058 20.856C128.837 21.4747 129.338 22.344 129.562 23.464H126.234C126.042 22.8773 125.669 22.584 125.114 22.584C124.719 22.584 124.405 22.7493 124.17 23.08C123.946 23.4 123.834 23.8747 123.834 24.504C123.834 25.1333 123.946 25.6133 124.17 25.944C124.405 26.2747 124.719 26.44 125.114 26.44C125.679 26.44 126.053 26.1467 126.234 25.56H129.562C129.338 26.6693 128.837 27.5387 128.058 28.168C127.279 28.7973 126.319 29.112 125.178 29.112C124.293 29.112 123.503 28.9253 122.81 28.552C122.127 28.1787 121.594 27.6453 121.21 26.952C120.826 26.2587 120.634 25.4427 120.634 24.504ZM139.377 24.392C139.377 24.648 139.361 24.9147 139.329 25.192H133.137C133.179 25.7467 133.355 26.1733 133.665 26.472C133.985 26.76 134.374 26.904 134.833 26.904C135.515 26.904 135.99 26.616 136.257 26.04H139.169C139.019 26.6267 138.747 27.1547 138.353 27.624C137.969 28.0933 137.483 28.4613 136.897 28.728C136.31 28.9947 135.654 29.128 134.929 29.128C134.054 29.128 133.275 28.9413 132.593 28.568C131.91 28.1947 131.377 27.6613 130.993 26.968C130.609 26.2747 130.417 25.464 130.417 24.536C130.417 23.608 130.603 22.7973 130.977 22.104C131.361 21.4107 131.894 20.8773 132.577 20.504C133.259 20.1307 134.043 19.944 134.929 19.944C135.793 19.944 136.561 20.1253 137.233 20.488C137.905 20.8507 138.427 21.368 138.801 22.04C139.185 22.712 139.377 23.496 139.377 24.392ZM136.577 23.672C136.577 23.2027 136.417 22.8293 136.097 22.552C135.777 22.2747 135.377 22.136 134.897 22.136C134.438 22.136 134.049 22.2693 133.729 22.536C133.419 22.8027 133.227 23.1813 133.153 23.672H136.577ZM85.28 53L80.688 47.912V53H79.232V41.848H80.688V47.016L85.296 41.848H87.136L82.08 47.432L87.184 53H85.28ZM92.6341 53.144C91.8128 53.144 91.0661 52.9573 90.3941 52.584C89.7328 52.2107 89.2101 51.6827 88.8261 51C88.4528 50.3067 88.2661 49.5067 88.2661 48.6C88.2661 47.704 88.4581 46.9147 88.8421 46.232C89.2368 45.5387 89.7701 45.0107 90.4421 44.648C91.1141 44.2747 91.8661 44.088 92.6981 44.088C93.5301 44.088 94.2821 44.2747 94.9541 44.648C95.6261 45.0107 96.1541 45.5333 96.5381 46.216C96.9328 46.8987 97.1301 47.6933 97.1301 48.6C97.1301 49.5067 96.9275 50.3067 96.5221 51C96.1275 51.6827 95.5888 52.2107 94.9061 52.584C94.2235 52.9573 93.4661 53.144 92.6341 53.144ZM92.6341 51.864C93.1568 51.864 93.6475 51.7413 94.1061 51.496C94.5648 51.2507 94.9328 50.8827 95.2101 50.392C95.4981 49.9013 95.6421 49.304 95.6421 48.6C95.6421 47.896 95.5035 47.2987 95.2261 46.808C94.9488 46.3173 94.5861 45.9547 94.1381 45.72C93.6901 45.4747 93.2048 45.352 92.6821 45.352C92.1488 45.352 91.6581 45.4747 91.2101 45.72C90.7728 45.9547 90.4208 46.3173 90.1541 46.808C89.8875 47.2987 89.7541 47.896 89.7541 48.6C89.7541 49.3147 89.8821 49.9173 90.1381 50.408C90.4048 50.8987 90.7568 51.2667 91.1941 51.512C91.6315 51.7467 92.1115 51.864 92.6341 51.864ZM109.589 44.072C110.271 44.072 110.879 44.216 111.413 44.504C111.946 44.7813 112.367 45.2027 112.677 45.768C112.986 46.3333 113.141 47.0213 113.141 47.832V53H111.701V48.04C111.701 47.1653 111.482 46.4987 111.045 46.04C110.618 45.5707 110.037 45.336 109.301 45.336C108.543 45.336 107.941 45.5813 107.493 46.072C107.045 46.552 106.821 47.2507 106.821 48.168V53H105.381V48.04C105.381 47.1653 105.162 46.4987 104.725 46.04C104.298 45.5707 103.717 45.336 102.981 45.336C102.223 45.336 101.621 45.5813 101.173 46.072C100.725 46.552 100.501 47.2507 100.501 48.168V53H99.0445V44.232H100.501V45.496C100.789 45.0373 101.173 44.6853 101.653 44.44C102.143 44.1947 102.682 44.072 103.269 44.072C104.005 44.072 104.655 44.2373 105.221 44.568C105.786 44.8987 106.207 45.384 106.485 46.024C106.73 45.4053 107.135 44.9253 107.701 44.584C108.266 44.2427 108.895 44.072 109.589 44.072ZM116.985 45.848C117.273 45.3467 117.7 44.9307 118.265 44.6C118.841 44.2587 119.508 44.088 120.265 44.088C121.044 44.088 121.748 44.2747 122.377 44.648C123.017 45.0213 123.518 45.5493 123.881 46.232C124.244 46.904 124.425 47.688 124.425 48.584C124.425 49.4693 124.244 50.2587 123.881 50.952C123.518 51.6453 123.017 52.184 122.377 52.568C121.748 52.952 121.044 53.144 120.265 53.144C119.518 53.144 118.857 52.9787 118.281 52.648C117.716 52.3067 117.284 51.8853 116.985 51.384V57.16H115.529V44.232H116.985V45.848ZM122.937 48.584C122.937 47.9227 122.804 47.3467 122.537 46.856C122.27 46.3653 121.908 45.992 121.449 45.736C121.001 45.48 120.505 45.352 119.961 45.352C119.428 45.352 118.932 45.4853 118.473 45.752C118.025 46.008 117.662 46.3867 117.385 46.888C117.118 47.3787 116.985 47.9493 116.985 48.6C116.985 49.2613 117.118 49.8427 117.385 50.344C117.662 50.8347 118.025 51.2133 118.473 51.48C118.932 51.736 119.428 51.864 119.961 51.864C120.505 51.864 121.001 51.736 121.449 51.48C121.908 51.2133 122.27 50.8347 122.537 50.344C122.804 49.8427 122.937 49.256 122.937 48.584ZM134.117 44.232V53H132.661V51.704C132.384 52.152 131.995 52.504 131.493 52.76C131.003 53.0053 130.459 53.128 129.861 53.128C129.179 53.128 128.565 52.9893 128.021 52.712C127.477 52.424 127.045 51.9973 126.725 51.432C126.416 50.8667 126.261 50.1787 126.261 49.368V44.232H127.701V49.176C127.701 50.04 127.92 50.7067 128.357 51.176C128.795 51.6347 129.392 51.864 130.149 51.864C130.928 51.864 131.541 51.624 131.989 51.144C132.437 50.664 132.661 49.9653 132.661 49.048V44.232H134.117ZM138.352 45.432V50.6C138.352 51.0267 138.442 51.3307 138.624 51.512C138.805 51.6827 139.12 51.768 139.568 51.768H140.64V53H139.328C138.517 53 137.909 52.8133 137.504 52.44C137.098 52.0667 136.896 51.4533 136.896 50.6V45.432H135.76V44.232H136.896V42.024H138.352V44.232H140.64V45.432H138.352ZM150.404 48.28C150.404 48.5573 150.388 48.8507 150.356 49.16H143.348C143.401 50.024 143.695 50.7013 144.228 51.192C144.772 51.672 145.428 51.912 146.196 51.912C146.825 51.912 147.348 51.768 147.764 51.48C148.191 51.1813 148.489 50.7867 148.66 50.296H150.228C149.993 51.1387 149.524 51.8267 148.82 52.36C148.116 52.8827 147.241 53.144 146.196 53.144C145.364 53.144 144.617 52.9573 143.956 52.584C143.305 52.2107 142.793 51.6827 142.42 51C142.047 50.3067 141.86 49.5067 141.86 48.6C141.86 47.6933 142.041 46.8987 142.404 46.216C142.767 45.5333 143.273 45.0107 143.924 44.648C144.585 44.2747 145.343 44.088 146.196 44.088C147.028 44.088 147.764 44.2693 148.404 44.632C149.044 44.9947 149.535 45.496 149.876 46.136C150.228 46.7653 150.404 47.48 150.404 48.28ZM148.9 47.976C148.9 47.4213 148.777 46.9467 148.532 46.552C148.287 46.1467 147.951 45.8427 147.524 45.64C147.108 45.4267 146.644 45.32 146.132 45.32C145.396 45.32 144.767 45.5547 144.244 46.024C143.732 46.4933 143.439 47.144 143.364 47.976H148.9ZM153.782 45.656C154.038 45.1547 154.4 44.7653 154.87 44.488C155.35 44.2107 155.931 44.072 156.614 44.072V45.576H156.23C154.598 45.576 153.782 46.4613 153.782 48.232V53H152.326V44.232H153.782V45.656Z" fill="#424242"/>
<path d="M34.1523 41.1433H39.8477V50.6456H34.1523V41.1433Z" fill="#ADB8BC"/>
<path d="M23.4327 48.6226H50.5671C51.3779 48.6226 52.0352 49.2798 52.0352 50.0907V50.6089C52.0352 51.4197 51.3779 52.077 50.5671 52.077H23.4327C22.6219 52.077 21.9646 51.4197 21.9646 50.6089V50.0907C21.9646 49.2798 22.622 48.6226 23.4327 48.6226Z" fill="#C5CFD1"/>
<path d="M20.4645 20.3254H53.5355C54.0947 20.3254 54.548 20.7787 54.548 21.3379V44.8816C54.548 45.4408 54.0947 45.8941 53.5355 45.8941H20.4645C19.9053 45.8941 19.452 45.4408 19.452 44.8816V21.3379C19.452 20.7787 19.9053 20.3254 20.4645 20.3254Z" fill="#C5CFD1"/>
<path d="M23.4134 23.5452H50.5866C51.1458 23.5452 51.5991 23.9985 51.5991 24.5577V41.6622C51.5991 42.2214 51.1458 42.6747 50.5866 42.6747H23.4134C22.8542 42.6747 22.4009 42.2214 22.4009 41.6622V24.5577C22.4009 23.9985 22.8542 23.5452 23.4134 23.5452Z" fill="#00B1FF"/>
<path d="M49.1416 45.1506C49.6199 45.1506 50.0077 44.7628 50.0077 44.2844C50.0077 43.806 49.6199 43.4182 49.1416 43.4182C48.6632 43.4182 48.2754 43.806 48.2754 44.2844C48.2754 44.7628 48.6632 45.1506 49.1416 45.1506Z" fill="#D7F4F7"/>
<path d="M44.6652 44.9232H46.6471C46.8165 44.9232 46.9789 44.8559 47.0986 44.7361C47.2184 44.6164 47.2857 44.4539 47.2857 44.2846C47.2857 44.1152 47.2184 43.9528 47.0986 43.833C46.9789 43.7133 46.8165 43.646 46.6471 43.646H44.6652C44.4958 43.646 44.3334 43.7133 44.2136 43.833C44.0939 43.9528 44.0266 44.1152 44.0266 44.2846C44.0267 44.6373 44.3126 44.9232 44.6652 44.9232Z" fill="#8F9799"/>
</svg>
