<svg width="596" height="479" viewBox="0 0 596 479" fill="none" xmlns="http://www.w3.org/2000/svg">
<circle cx="356.5" cy="239.5" r="239.5" fill="#6C63FF"/>
<path d="M151.321 244.618C212.156 244.618 261.473 195.231 261.473 134.309C261.473 73.387 212.156 24 151.321 24C90.4861 24 41.1694 73.387 41.1694 134.309C41.1694 195.231 90.4861 244.618 151.321 244.618Z" fill="#F2F2F2"/>
<path d="M0 50.4858C0 90.6206 25.1426 123.097 56.214 123.097L0 50.4858Z" fill="#2F2E41"/>
<path d="M56.2141 123.097C56.2141 82.5114 84.2718 49.6699 118.946 49.6699L56.2141 123.097Z" fill="#6C63FF"/>
<path d="M20.3674 54.124C20.3674 92.2478 36.4004 123.097 56.214 123.097L20.3674 54.124Z" fill="#6C63FF"/>
<path d="M56.2141 123.097C56.2141 71.2376 88.6444 29.2734 128.722 29.2734L56.2141 123.097Z" fill="#2F2E41"/>
<path d="M44.3879 123.609C44.3879 123.609 52.36 123.363 54.7626 121.65C57.1652 119.937 67.0256 117.891 67.6217 120.639C68.2177 123.386 79.6022 134.305 70.6018 134.377C61.6014 134.45 49.6888 132.973 47.2908 131.511C44.8929 130.048 44.3879 123.609 44.3879 123.609Z" fill="#A8A8A8"/>
<path opacity="0.2" d="M70.7626 133.421C61.7622 133.493 49.8497 132.017 47.4517 130.554C45.6255 129.44 44.8978 125.443 44.6543 123.599C44.4857 123.606 44.3882 123.609 44.3882 123.609C44.3882 123.609 44.8931 130.048 47.2911 131.51C49.689 132.973 61.6016 134.45 70.602 134.377C73.2001 134.356 74.0975 133.431 74.0482 132.06C73.6873 132.888 72.6964 133.405 70.7626 133.421Z" fill="black"/>
<path d="M102.71 257.016C156.119 257.016 199.416 251.117 199.416 243.841C199.416 236.565 156.119 230.666 102.71 230.666C49.3004 230.666 6.00366 236.565 6.00366 243.841C6.00366 251.117 49.3004 257.016 102.71 257.016Z" fill="#3F3D56"/>
<path opacity="0.1" d="M102.71 254.903C147.551 254.903 183.901 249.95 183.901 243.841C183.901 237.732 147.551 232.78 102.71 232.78C57.8686 232.78 21.5178 237.732 21.5178 243.841C21.5178 249.95 57.8686 254.903 102.71 254.903Z" fill="black"/>
<path d="M432.648 386C513.476 386 579 377.073 579 366.062C579 355.05 513.476 346.123 432.648 346.123C351.82 346.123 286.296 355.05 286.296 366.062C286.296 377.073 351.82 386 432.648 386Z" fill="#3F3D56"/>
<path d="M160.63 370.271C209.184 370.271 248.545 364.908 248.545 358.293C248.545 351.679 209.184 346.316 160.63 346.316C112.076 346.316 72.7153 351.679 72.7153 358.293C72.7153 364.908 112.076 370.271 160.63 370.271Z" fill="#3F3D56"/>
<path d="M239.236 348.194C285.779 360.106 375.245 332.658 385.071 301.585" stroke="#2F2E41" stroke-width="2" stroke-miterlimit="10"/>
<path d="M160.113 158.132C160.113 158.132 227.342 139.488 231.479 199.562C235.616 259.637 176.144 276.727 222.687 288.638" stroke="#2F2E41" stroke-width="2" stroke-miterlimit="10"/>
<path d="M95.1606 302.25C95.1606 302.25 115.367 296.646 116.61 314.702C117.854 332.758 99.979 337.894 113.968 341.474" stroke="#2F2E41" stroke-width="2" stroke-miterlimit="10"/>
<path d="M402.703 315.692L398.629 341.739C398.629 341.739 378.573 352.409 392.675 352.723C406.777 353.037 473.212 352.723 473.212 352.723C473.212 352.723 486.06 352.723 465.691 341.425L461.617 314.123L402.703 315.692Z" fill="#2F2E41"/>
<path opacity="0.1" d="M389.838 352.44C393.041 349.586 398.629 346.613 398.629 346.613L402.703 320.566L461.617 320.621L465.691 346.299C470.441 348.934 473.383 350.953 475.105 352.502C477.721 351.905 480.58 349.683 465.691 341.425L461.617 314.123L402.703 315.692L398.629 341.739C398.629 341.739 381.776 350.706 389.838 352.44Z" fill="black"/>
<path d="M555.228 134.148H308.466C303.312 134.148 299.134 138.332 299.134 143.493V309.956C299.134 315.117 303.312 319.301 308.466 319.301H555.228C560.382 319.301 564.56 315.117 564.56 309.956V143.493C564.56 138.332 560.382 134.148 555.228 134.148Z" fill="#2F2E41"/>
<path d="M555.629 144.033H308.065V282.741H555.629V144.033Z" fill="#3F3D56"/>
<path d="M431.847 141.209C432.712 141.209 433.413 140.506 433.413 139.64C433.413 138.773 432.712 138.071 431.847 138.071C430.981 138.071 430.28 138.773 430.28 139.64C430.28 140.506 430.981 141.209 431.847 141.209Z" fill="#F2F2F2"/>
<path d="M564.56 293.725V309.956C564.56 311.183 564.319 312.398 563.85 313.532C563.381 314.666 562.693 315.696 561.827 316.564C560.96 317.432 559.931 318.12 558.799 318.59C557.667 319.06 556.453 319.301 555.228 319.301H308.466C307.24 319.301 306.027 319.06 304.894 318.59C303.762 318.12 302.733 317.432 301.867 316.564C301 315.696 300.313 314.666 299.844 313.532C299.375 312.398 299.133 311.183 299.134 309.956V293.725H564.56Z" fill="#2F2E41"/>
<path d="M501.102 369.669V372.808H332.508V370.297L332.74 369.669L336.895 358.372H497.655L501.102 369.669Z" fill="#2F2E41"/>
<path d="M565.982 366.597C565.675 367.912 564.516 369.299 561.896 370.611C552.495 375.318 533.379 369.355 533.379 369.355C533.379 369.355 518.651 366.845 518.651 360.255C519.064 359.971 519.495 359.714 519.942 359.486C523.894 357.392 536.999 352.224 560.236 359.705C561.948 360.243 563.478 361.246 564.653 362.603C565.595 363.707 566.333 365.107 565.982 366.597Z" fill="#2F2E41"/>
<path opacity="0.1" d="M565.983 366.597C554.476 371.012 544.219 371.342 533.693 364.02C528.384 360.33 523.561 359.417 519.942 359.486C523.894 357.392 537 352.224 560.237 359.705C561.948 360.243 563.478 361.246 564.654 362.603C565.595 363.707 566.334 365.107 565.983 366.597Z" fill="black"/>
<path d="M551.555 364.02C553.805 364.02 555.629 363.458 555.629 362.765C555.629 362.072 553.805 361.51 551.555 361.51C549.305 361.51 547.481 362.072 547.481 362.765C547.481 363.458 549.305 364.02 551.555 364.02Z" fill="#F2F2F2"/>
<path d="M431.847 312.554C435.135 312.554 437.801 309.885 437.801 306.591C437.801 303.298 435.135 300.629 431.847 300.629C428.558 300.629 425.893 303.298 425.893 306.591C425.893 309.885 428.558 312.554 431.847 312.554Z" fill="#F2F2F2"/>
<path opacity="0.1" d="M501.102 369.669V372.808H332.508V370.297L332.74 369.669H501.102Z" fill="black"/>
<path d="M163.733 106.343H56.1665V231.671H163.733V106.343Z" fill="#2F2E41"/>
<path d="M174.593 93.9141H45.3066V138.452H174.593V93.9141Z" fill="#3F3D56"/>
<path d="M174.593 146.738H45.3066V191.276H174.593V146.738Z" fill="#3F3D56"/>
<path d="M174.593 199.562H45.3066V244.1H174.593V199.562Z" fill="#3F3D56"/>
<path opacity="0.4" d="M148.736 101.682H140.461V109.968H148.736V101.682Z" fill="#6C63FF"/>
<path opacity="0.8" d="M160.63 101.682H152.355V109.968H160.63V101.682Z" fill="#6C63FF"/>
<path d="M172.524 101.682H164.25V109.968H172.524V101.682Z" fill="#6C63FF"/>
<path opacity="0.4" d="M148.736 153.989H140.461V162.275H148.736V153.989Z" fill="#6C63FF"/>
<path opacity="0.8" d="M160.63 153.989H152.355V162.275H160.63V153.989Z" fill="#6C63FF"/>
<path d="M172.524 153.989H164.25V162.275H172.524V153.989Z" fill="#6C63FF"/>
<path opacity="0.4" d="M148.736 206.295H140.461V214.581H148.736V206.295Z" fill="#6C63FF"/>
<path opacity="0.8" d="M160.63 206.295H152.355V214.581H160.63V206.295Z" fill="#6C63FF"/>
<path d="M172.524 206.295H164.25V214.581H172.524V206.295Z" fill="#6C63FF"/>
<path d="M163.733 343.534C186.296 343.534 204.587 325.216 204.587 302.621C204.587 280.026 186.296 261.708 163.733 261.708C141.17 261.708 122.878 280.026 122.878 302.621C122.878 325.216 141.17 343.534 163.733 343.534Z" fill="#2F2E41"/>
<path d="M157.527 334.729H145.115V356.998H157.527V334.729Z" fill="#2F2E41"/>
<path d="M182.35 334.729H169.938V356.998H182.35V334.729Z" fill="#2F2E41"/>
<path d="M155.458 361.142C161.171 361.142 165.801 359.403 165.801 357.257C165.801 355.112 161.171 353.373 155.458 353.373C149.746 353.373 145.115 355.112 145.115 357.257C145.115 359.403 149.746 361.142 155.458 361.142Z" fill="#2F2E41"/>
<path d="M180.281 360.624C185.994 360.624 190.624 358.885 190.624 356.74C190.624 354.594 185.994 352.855 180.281 352.855C174.569 352.855 169.938 354.594 169.938 356.74C169.938 358.885 174.569 360.624 180.281 360.624Z" fill="#2F2E41"/>
<path d="M164.767 306.246C172.479 306.246 178.73 299.986 178.73 292.263C178.73 284.541 172.479 278.281 164.767 278.281C157.056 278.281 150.804 284.541 150.804 292.263C150.804 299.986 157.056 306.246 164.767 306.246Z" fill="white"/>
<path d="M164.767 296.924C167.338 296.924 169.421 294.837 169.421 292.263C169.421 289.689 167.338 287.602 164.767 287.602C162.197 287.602 160.113 289.689 160.113 292.263C160.113 294.837 162.197 296.924 164.767 296.924Z" fill="#3F3D56"/>
<path d="M124.103 264.573C120.804 249.779 131.349 234.829 147.655 231.183C163.962 227.536 179.855 236.574 183.154 251.369C186.453 266.163 175.646 271.62 159.339 275.266C143.033 278.912 127.401 279.368 124.103 264.573Z" fill="#6C63FF"/>
<path d="M202.05 294.461C212.422 290.016 219.7 283.769 218.307 280.508C216.913 277.247 207.375 278.208 197.004 282.653C186.632 287.099 179.354 293.346 180.748 296.606C182.141 299.867 191.679 298.906 202.05 294.461Z" fill="#2F2E41"/>
<path d="M125.513 321.909C135.884 317.463 143.162 311.216 141.769 307.956C140.375 304.695 130.838 305.656 120.466 310.101C110.095 314.546 102.816 320.793 104.21 324.054C105.604 327.315 115.141 326.354 125.513 321.909Z" fill="#2F2E41"/>
<path d="M187.522 314.532C187.522 318.536 177.226 326.444 165.801 326.444C154.377 326.444 143.564 319.054 143.564 315.05C143.564 311.046 154.377 311.943 165.801 311.943C177.226 311.943 187.522 310.528 187.522 314.532Z" fill="white"/>
</svg>
