<svg width="579" height="362" viewBox="0 0 579 362" fill="none" xmlns="http://www.w3.org/2000/svg">
<path d="M151.321 220.618C212.156 220.618 261.473 171.231 261.473 110.309C261.473 49.387 212.156 0 151.321 0C90.4861 0 41.1694 49.387 41.1694 110.309C41.1694 171.231 90.4861 220.618 151.321 220.618Z" fill="#F2F2F2"/>
<path d="M0 26.4858C0 66.6206 25.1426 99.0972 56.214 99.0972L0 26.4858Z" fill="#2F2E41"/>
<path d="M56.2141 99.0972C56.2141 58.5114 84.2717 25.6699 118.946 25.6699L56.2141 99.0972Z" fill="#00A8C4"/>
<path d="M20.3674 30.124C20.3674 68.2478 36.4004 99.0971 56.214 99.0971L20.3674 30.124Z" fill="#00A8C4"/>
<path d="M56.2141 99.0971C56.2141 47.2376 88.6443 5.27344 128.722 5.27344L56.2141 99.0971Z" fill="#2F2E41"/>
<path d="M44.388 99.609C44.388 99.609 52.3601 99.3631 54.7627 97.6499C57.1652 95.9366 67.0257 93.8908 67.6217 96.6386C68.2178 99.3863 79.6023 110.305 70.6018 110.377C61.6014 110.45 49.6888 108.973 47.2909 107.511C44.8929 106.048 44.388 99.609 44.388 99.609Z" fill="#A8A8A8"/>
<path opacity="0.2" d="M70.7625 109.421C61.7621 109.493 49.8495 108.017 47.4516 106.554C45.6254 105.44 44.8977 101.443 44.6542 99.5986C44.4856 99.6059 44.3881 99.609 44.3881 99.609C44.3881 99.609 44.893 106.048 47.291 107.51C49.6889 108.973 61.6015 110.45 70.6019 110.377C73.2 110.356 74.0974 109.431 74.0481 108.06C73.6872 108.888 72.6963 109.405 70.7625 109.421Z" fill="black"/>
<path d="M102.71 233.016C156.119 233.016 199.416 227.117 199.416 219.841C199.416 212.565 156.119 206.666 102.71 206.666C49.3004 206.666 6.0036 212.565 6.0036 219.841C6.0036 227.117 49.3004 233.016 102.71 233.016Z" fill="#3F3D56"/>
<path opacity="0.1" d="M102.71 230.903C147.551 230.903 183.901 225.95 183.901 219.841C183.901 213.732 147.551 208.78 102.71 208.78C57.8687 208.78 21.5179 213.732 21.5179 219.841C21.5179 225.95 57.8687 230.903 102.71 230.903Z" fill="black"/>
<path d="M432.648 362C513.476 362 579 353.073 579 342.062C579 331.05 513.476 322.123 432.648 322.123C351.82 322.123 286.296 331.05 286.296 342.062C286.296 353.073 351.82 362 432.648 362Z" fill="#3F3D56"/>
<path d="M160.63 346.271C209.184 346.271 248.544 340.908 248.544 334.293C248.544 327.679 209.184 322.316 160.63 322.316C112.076 322.316 72.7153 327.679 72.7153 334.293C72.7153 340.908 112.076 346.271 160.63 346.271Z" fill="#3F3D56"/>
<path d="M239.236 324.194C285.779 336.106 375.245 308.658 385.071 277.585" stroke="#2F2E41" stroke-width="2" stroke-miterlimit="10"/>
<path d="M160.113 134.132C160.113 134.132 227.341 115.488 231.479 175.562C235.616 235.637 176.144 252.727 222.687 264.638" stroke="#2F2E41" stroke-width="2" stroke-miterlimit="10"/>
<path d="M95.1605 278.25C95.1605 278.25 115.367 272.646 116.61 290.702C117.853 308.758 99.9789 313.894 113.968 317.474" stroke="#2F2E41" stroke-width="2" stroke-miterlimit="10"/>
<path d="M402.703 291.692L398.629 317.739C398.629 317.739 378.573 328.409 392.675 328.723C406.777 329.037 473.212 328.723 473.212 328.723C473.212 328.723 486.06 328.723 465.691 317.425L461.617 290.123L402.703 291.692Z" fill="#2F2E41"/>
<path opacity="0.1" d="M389.838 328.44C393.041 325.586 398.629 322.613 398.629 322.613L402.703 296.566L461.617 296.621L465.691 322.299C470.441 324.934 473.383 326.953 475.105 328.502C477.721 327.905 480.58 325.683 465.691 317.425L461.617 290.123L402.703 291.692L398.629 317.739C398.629 317.739 381.776 326.706 389.838 328.44Z" fill="black"/>
<path d="M555.228 110.148H308.466C303.312 110.148 299.134 114.332 299.134 119.493V285.956C299.134 291.117 303.312 295.301 308.466 295.301H555.228C560.382 295.301 564.56 291.117 564.56 285.956V119.493C564.56 114.332 560.382 110.148 555.228 110.148Z" fill="#2F2E41"/>
<path d="M555.629 120.033H308.065V258.741H555.629V120.033Z" fill="#3F3D56"/>
<path d="M431.847 117.209C432.712 117.209 433.413 116.506 433.413 115.64C433.413 114.773 432.712 114.071 431.847 114.071C430.981 114.071 430.28 114.773 430.28 115.64C430.28 116.506 430.981 117.209 431.847 117.209Z" fill="#F2F2F2"/>
<path d="M564.56 269.725V285.956C564.56 287.183 564.319 288.398 563.85 289.532C563.381 290.666 562.693 291.696 561.827 292.564C560.96 293.432 559.931 294.12 558.799 294.59C557.667 295.06 556.453 295.301 555.228 295.301H308.466C307.24 295.301 306.027 295.06 304.894 294.59C303.762 294.12 302.733 293.432 301.867 292.564C301 291.696 300.313 290.666 299.844 289.532C299.375 288.398 299.133 287.183 299.134 285.956V269.725H564.56Z" fill="#2F2E41"/>
<path d="M501.102 345.669V348.808H332.508V346.297L332.74 345.669L336.895 334.372H497.655L501.102 345.669Z" fill="#2F2E41"/>
<path d="M565.982 342.597C565.675 343.912 564.516 345.299 561.896 346.611C552.495 351.318 533.379 345.355 533.379 345.355C533.379 345.355 518.651 342.845 518.651 336.255C519.064 335.971 519.495 335.714 519.942 335.486C523.894 333.392 537 328.224 560.237 335.705C561.948 336.243 563.478 337.246 564.654 338.603C565.595 339.707 566.333 341.107 565.982 342.597Z" fill="#2F2E41"/>
<path opacity="0.1" d="M565.982 342.597C554.475 347.012 544.219 347.342 533.693 340.02C528.384 336.33 523.561 335.417 519.942 335.486C523.894 333.392 537 328.224 560.237 335.705C561.948 336.243 563.478 337.246 564.654 338.603C565.595 339.707 566.333 341.107 565.982 342.597Z" fill="black"/>
<path d="M551.555 340.02C553.805 340.02 555.629 339.458 555.629 338.765C555.629 338.072 553.805 337.51 551.555 337.51C549.305 337.51 547.481 338.072 547.481 338.765C547.481 339.458 549.305 340.02 551.555 340.02Z" fill="#F2F2F2"/>
<path d="M431.847 288.554C435.135 288.554 437.801 285.885 437.801 282.591C437.801 279.298 435.135 276.629 431.847 276.629C428.558 276.629 425.893 279.298 425.893 282.591C425.893 285.885 428.558 288.554 431.847 288.554Z" fill="#F2F2F2"/>
<path opacity="0.1" d="M501.102 345.669V348.808H332.508V346.297L332.74 345.669H501.102Z" fill="black"/>
<path d="M163.733 82.3433H56.1666V207.671H163.733V82.3433Z" fill="#2F2E41"/>
<path d="M174.593 69.9141H45.3066V114.452H174.593V69.9141Z" fill="#3F3D56"/>
<path d="M174.593 122.738H45.3066V167.276H174.593V122.738Z" fill="#3F3D56"/>
<path d="M174.593 175.562H45.3066V220.1H174.593V175.562Z" fill="#3F3D56"/>
<path opacity="0.4" d="M148.736 77.6824H140.461V85.9685H148.736V77.6824Z" fill="#00A8C4"/>
<path opacity="0.8" d="M160.63 77.6824H152.356V85.9685H160.63V77.6824Z" fill="#00A8C4"/>
<path d="M172.524 77.6824H164.25V85.9685H172.524V77.6824Z" fill="#00A8C4"/>
<path opacity="0.4" d="M148.736 129.989H140.461V138.275H148.736V129.989Z" fill="#00A8C4"/>
<path opacity="0.8" d="M160.63 129.989H152.356V138.275H160.63V129.989Z" fill="#00A8C4"/>
<path d="M172.524 129.989H164.25V138.275H172.524V129.989Z" fill="#00A8C4"/>
<path opacity="0.4" d="M148.736 182.295H140.461V190.581H148.736V182.295Z" fill="#00A8C4"/>
<path opacity="0.8" d="M160.63 182.295H152.356V190.581H160.63V182.295Z" fill="#00A8C4"/>
<path d="M172.524 182.295H164.25V190.581H172.524V182.295Z" fill="#00A8C4"/>
<path d="M163.733 319.534C186.296 319.534 204.587 301.216 204.587 278.621C204.587 256.026 186.296 237.708 163.733 237.708C141.169 237.708 122.878 256.026 122.878 278.621C122.878 301.216 141.169 319.534 163.733 319.534Z" fill="#2F2E41"/>
<path d="M157.527 310.729H145.116V332.998H157.527V310.729Z" fill="#2F2E41"/>
<path d="M182.35 310.729H169.938V332.998H182.35V310.729Z" fill="#2F2E41"/>
<path d="M155.458 337.142C161.171 337.142 165.801 335.403 165.801 333.257C165.801 331.112 161.171 329.373 155.458 329.373C149.746 329.373 145.116 331.112 145.116 333.257C145.116 335.403 149.746 337.142 155.458 337.142Z" fill="#2F2E41"/>
<path d="M180.281 336.624C185.994 336.624 190.624 334.885 190.624 332.74C190.624 330.594 185.994 328.855 180.281 328.855C174.569 328.855 169.938 330.594 169.938 332.74C169.938 334.885 174.569 336.624 180.281 336.624Z" fill="#2F2E41"/>
<path d="M164.767 282.246C172.479 282.246 178.73 275.986 178.73 268.263C178.73 260.541 172.479 254.281 164.767 254.281C157.056 254.281 150.804 260.541 150.804 268.263C150.804 275.986 157.056 282.246 164.767 282.246Z" fill="white"/>
<path d="M164.767 272.924C167.337 272.924 169.421 270.837 169.421 268.263C169.421 265.689 167.337 263.602 164.767 263.602C162.196 263.602 160.113 265.689 160.113 268.263C160.113 270.837 162.196 272.924 164.767 272.924Z" fill="#3F3D56"/>
<path d="M124.103 240.573C120.804 225.779 131.349 210.829 147.655 207.183C163.962 203.536 179.855 212.574 183.154 227.369C186.453 242.163 175.646 247.62 159.339 251.266C143.033 254.912 127.401 255.368 124.103 240.573Z" fill="#00A8C4"/>
<path d="M202.05 270.461C212.422 266.016 219.7 259.769 218.306 256.508C216.913 253.247 207.375 254.208 197.004 258.653C186.632 263.099 179.354 269.346 180.748 272.606C182.141 275.867 191.679 274.906 202.05 270.461Z" fill="#2F2E41"/>
<path d="M125.513 297.909C135.884 293.463 143.162 287.216 141.769 283.956C140.375 280.695 130.838 281.656 120.466 286.101C110.095 290.546 102.816 296.793 104.21 300.054C105.604 303.315 115.141 302.354 125.513 297.909Z" fill="#2F2E41"/>
<path d="M187.521 290.532C187.521 294.536 177.226 302.444 165.801 302.444C154.377 302.444 143.564 295.054 143.564 291.05C143.564 287.046 154.377 287.943 165.801 287.943C177.226 287.943 187.521 286.528 187.521 290.532Z" fill="white"/>
</svg>
