<svg width="616" height="543" viewBox="0 0 616 543" fill="none" xmlns="http://www.w3.org/2000/svg">
<g clip-path="url(#clip0)">
<path d="M309.091 542.686C308.94 542.44 305.391 536.511 304.16 524.2C303.031 512.905 303.757 493.866 313.628 467.309C332.328 416.998 309.318 376.404 309.083 376L310.218 375.341C310.278 375.444 316.215 385.794 319.723 402.274C324.357 424.124 322.67 446.842 314.858 467.767C296.19 517.992 310.069 541.768 310.211 542.002L309.091 542.686Z" fill="#3F3D56"/>
<path d="M301.779 373.046C306.489 373.046 310.307 369.227 310.307 364.515C310.307 359.804 306.489 355.985 301.779 355.985C297.069 355.985 293.251 359.804 293.251 364.515C293.251 369.227 297.069 373.046 301.779 373.046Z" fill="#6C63FF"/>
<path d="M328.675 404.543C333.385 404.543 337.203 400.724 337.203 396.013C337.203 391.302 333.385 387.482 328.675 387.482C323.965 387.482 320.147 391.302 320.147 396.013C320.147 400.724 323.965 404.543 328.675 404.543Z" fill="#3F3D56"/>
<path d="M310.307 425.541C315.017 425.541 318.835 421.722 318.835 417.011C318.835 412.3 315.017 408.48 310.307 408.48C305.597 408.48 301.779 412.3 301.779 417.011C301.779 421.722 305.597 425.541 310.307 425.541Z" fill="#6C63FF"/>
<path d="M332.611 443.259C337.321 443.259 341.139 439.44 341.139 434.728C341.139 430.017 337.321 426.198 332.611 426.198C327.901 426.198 324.083 430.017 324.083 434.728C324.083 439.44 327.901 443.259 332.611 443.259Z" fill="#6C63FF"/>
<path d="M303.747 470.819C308.457 470.819 312.275 467 312.275 462.288C312.275 457.577 308.457 453.758 303.747 453.758C299.037 453.758 295.219 457.577 295.219 462.288C295.219 467 299.037 470.819 303.747 470.819Z" fill="#3F3D56"/>
<path d="M314.243 543C314.243 543 305.715 522.002 331.299 506.253L314.243 543Z" fill="#3F3D56"/>
<path d="M303.755 542.619C303.755 542.619 299.874 520.289 269.834 520.481L303.755 542.619Z" fill="#3F3D56"/>
<path d="M108.261 300.235H106.949V464.887H108.261V300.235Z" fill="#3F3D56"/>
<path d="M148.277 274.899H146.965V490.223H148.277V274.899Z" fill="#3F3D56"/>
<path d="M188.292 267.727H186.98V497.395H188.292V267.727Z" fill="#3F3D56"/>
<path d="M228.308 274.899H226.996V490.223H228.308V274.899Z" fill="#3F3D56"/>
<path d="M268.323 300.235H267.011V464.887H268.323V300.235Z" fill="#3F3D56"/>
<path d="M288.725 327.44H86.5475V328.753H288.725V327.44Z" fill="#3F3D56"/>
<path d="M302.435 381.904H72.8373V383.217H302.435V381.904Z" fill="#3F3D56"/>
<path d="M288.725 436.369H86.5475V437.681H288.725V436.369Z" fill="#3F3D56"/>
<path d="M501.201 328.753C564.603 328.753 616 277.34 616 213.919C616 150.498 564.603 99.085 501.201 99.085C437.8 99.085 386.402 150.498 386.402 213.919C386.402 277.34 437.8 328.753 501.201 328.753Z" fill="#00A8C4"/>
<path d="M307.027 191.307H305.715V355.959H307.027V191.307Z" fill="#3F3D56"/>
<path d="M347.043 165.971H345.731V381.295H347.043V165.971Z" fill="#3F3D56"/>
<path d="M387.058 158.799H385.746V388.466H387.058V158.799Z" fill="#3F3D56"/>
<path d="M427.074 165.971H425.762V381.295H427.074V165.971Z" fill="#3F3D56"/>
<path d="M467.09 191.307H465.778V355.959H467.09V191.307Z" fill="#3F3D56"/>
<path d="M487.491 218.512H285.313V219.825H487.491V218.512Z" fill="#3F3D56"/>
<path d="M501.201 272.977H271.603V274.289H501.201V272.977Z" fill="#3F3D56"/>
<path d="M487.491 327.44H285.313V328.753H487.491V327.44Z" fill="#3F3D56"/>
<path d="M475.136 21.7056H475.136C443.556 21.7056 417.956 50.1246 417.956 85.1812V129.721H431.651L439.579 113.219L437.597 129.721H525.618L532.826 114.719L531.024 129.721H540.934V94.7493C540.934 54.4084 511.475 21.7056 475.136 21.7056Z" fill="#2F2E41"/>
<path d="M447.535 101.758C447.535 101.758 465.382 143.413 441.586 151.744L465.382 230.295L505.835 227.914L516.543 201.731L514.164 162.456L510.594 136.272C510.594 136.272 485.609 142.223 487.988 98.1875L447.535 101.758Z" fill="#FFB8B8"/>
<path d="M438.017 150.554C438.017 150.554 398.754 146.984 402.323 175.548C405.893 204.111 409.462 210.062 409.462 210.062L413.031 252.908L391.615 265.999H371.389C371.389 265.999 309.519 280.281 340.454 295.753C371.389 311.225 382.097 283.852 382.097 283.852C382.097 283.852 439.207 283.852 442.776 274.33C446.346 264.809 438.017 150.554 438.017 150.554Z" fill="#FFB8B8"/>
<path d="M514.164 138.653C514.164 138.653 551.047 125.561 553.427 154.125C555.806 182.689 555.806 185.069 555.806 185.069L562.945 225.534C562.945 225.534 577.223 261.239 577.223 271.95C577.223 282.662 587.931 315.986 587.931 315.986C587.931 315.986 602.208 362.402 586.741 361.212C571.274 360.022 568.894 311.226 568.894 311.226L536.77 246.957L527.251 207.682L514.164 138.653Z" fill="#FFB8B8"/>
<path d="M443.966 145.794H434.448L433.258 195.78C433.258 195.78 417.791 217.203 436.827 236.246L441.586 267.19L528.441 263.619L534.39 231.485C534.39 231.485 546.288 205.302 529.631 181.498L514.164 132.702H505.835C505.835 132.702 525.125 203.847 484.419 205.302C451.105 206.492 443.966 145.794 443.966 145.794Z" fill="white"/>
<path d="M582.131 441.343C555.305 471.532 522.639 495.969 486.107 513.176C486.094 453.62 486.796 405.245 486.796 405.245C486.796 405.245 481.744 456.363 475.329 517.986C438.678 533.463 399.29 541.412 359.507 541.36C358.798 541.36 358.09 541.36 357.381 541.346C390.115 423.691 437.865 288.843 439.183 285.123C439.194 285.097 439.202 285.071 439.21 285.044L442.09 275.437L443.316 271.349L444.602 267.064L446.347 261.237L523.682 258.862L525.847 263.724L533.2 280.28C533.842 280.466 534.451 280.752 535.004 281.126C548.925 290.267 566.473 360.034 582.131 441.343Z" fill="#2F2E41"/>
<path d="M532.011 249.337L438.017 252.908C438.017 252.908 433.727 285.042 438.017 285.042C439.207 285.042 536.77 293.373 535.58 279.091C534.39 264.809 532.011 249.337 532.011 249.337Z" fill="#3F3D56"/>
<path d="M465.924 115.39C484.387 115.39 499.355 100.418 499.355 81.9489C499.355 63.4802 484.387 48.5083 465.924 48.5083C447.461 48.5083 432.494 63.4802 432.494 81.9489C432.494 100.418 447.461 115.39 465.924 115.39Z" fill="#FFB8B8"/>
<path d="M491.391 39.191C485.65 31.7964 477.182 27.1128 467.729 27.1128H466.607C444.962 27.1128 427.416 46.7045 427.416 70.8721V70.8722H434.669L435.84 61.9543L437.557 70.8722H480.571L484.175 63.3275L483.274 70.8722H491.736C495.685 90.4884 490.011 110.105 474.715 129.721H489.13L496.338 114.632L494.536 129.721H522.014L527.42 95.0152C527.42 69.0237 512.323 46.9835 491.391 39.191Z" fill="#2F2E41"/>
<path d="M499.291 42.8455C511.119 42.8455 520.707 33.2542 520.707 21.4228C520.707 9.5913 511.119 0 499.291 0C487.463 0 477.875 9.5913 477.875 21.4228C477.875 33.2542 487.463 42.8455 499.291 42.8455Z" fill="#2F2E41"/>
<path d="M342.835 284.324C348.782 284.324 353.603 279.502 353.603 273.554C353.603 267.605 348.782 262.783 342.835 262.783C336.889 262.783 332.068 267.605 332.068 273.554C332.068 279.502 336.889 284.324 342.835 284.324Z" fill="#6C63FF"/>
<path d="M342.835 273.554H108.11V178.773H303.356L342.835 273.554Z" fill="#EFEFEF"/>
<path d="M343.908 274.272H79.3972V157.95H295.94L296.123 158.394L343.908 274.272ZM80.8328 272.836H341.763L294.979 159.386H80.8328V272.836Z" fill="#3F3D56"/>
<path d="M263.876 193.852H146.872V204.623H263.876V193.852Z" fill="#3F3D56"/>
<path d="M263.876 216.111H146.872V226.881H263.876V216.111Z" fill="#3F3D56"/>
<path d="M263.876 238.37H146.872V249.141H263.876V238.37Z" fill="#3F3D56"/>
<path d="M7.87193 384.756C6.31501 384.756 4.79305 384.295 3.49852 383.429C2.20399 382.564 1.19503 381.334 0.599222 379.895C0.00341451 378.457 -0.152481 376.873 0.151259 375.346C0.454999 373.818 1.20473 372.415 2.30564 371.314C3.40655 370.213 4.80919 369.463 6.33619 369.159C7.8632 368.855 9.44598 369.011 10.8844 369.607C12.3228 370.203 13.5522 371.212 14.4172 372.507C15.2822 373.802 15.7439 375.325 15.7439 376.882C15.7415 378.97 14.9113 380.971 13.4356 382.447C11.9598 383.924 9.95896 384.754 7.87193 384.756ZM7.87193 370.32C6.57449 370.32 5.3062 370.705 4.22743 371.426C3.14865 372.147 2.30785 373.172 1.81134 374.371C1.31484 375.57 1.18493 376.889 1.43804 378.162C1.69116 379.435 2.31593 380.604 3.23336 381.522C4.15078 382.44 5.31965 383.065 6.59215 383.318C7.86465 383.571 9.18364 383.441 10.3823 382.945C11.581 382.448 12.6055 381.607 13.3263 380.528C14.0471 379.449 14.4319 378.18 14.4319 376.882C14.4299 375.142 13.7382 373.474 12.5084 372.244C11.2786 371.014 9.61114 370.322 7.87193 370.32Z" fill="#2F2E41"/>
<path d="M284.588 88.3471H271.638V75.3931H284.588V88.3471ZM272.634 87.3506H283.592V76.3895H272.634V87.3506Z" fill="#3F3D56"/>
<path d="M39.669 91.0245L30.8359 81.5515L40.306 72.7158L49.139 82.1887L39.669 91.0245ZM32.2439 81.6005L39.718 89.6161L47.7311 82.1397L40.257 74.1242L32.2439 81.6005Z" fill="#2F2E41"/>
</g>
<defs>
<clipPath id="clip0">
<rect width="616" height="543" fill="white"/>
</clipPath>
</defs>
</svg>
