<svg width="1440" height="681" viewBox="0 0 1440 681" fill="none" xmlns="http://www.w3.org/2000/svg">
<path opacity="0.5" fill-rule="evenodd" clip-rule="evenodd" d="M460.792 589.48C428.859 648.1 395.806 673.232 361.439 678.214C327.023 683.203 291.034 668.032 253.095 645.403C235.401 634.849 217.321 622.699 198.81 610.258L198.802 610.252L196.84 608.934L194.843 607.592C174.953 594.231 154.569 580.648 133.674 568.482C91.8914 544.153 47.9794 525.435 1.71741 525.472L1.76222 526.955C47.609 526.918 91.2267 545.47 132.925 569.75C153.771 581.888 174.116 595.444 194.008 608.806C195.213 609.615 196.416 610.423 197.617 611.231L197.983 611.477C216.485 623.912 234.599 636.086 252.332 646.663C290.306 669.313 326.713 684.753 361.704 679.681C396.743 674.602 430.108 649 462.136 590.206C494.075 531.573 529.564 490.728 568.625 461.945C607.686 433.163 650.355 416.416 696.694 406.026C743.044 395.633 793.049 391.602 846.79 388.242C855.211 387.715 863.724 387.205 872.329 386.69L872.347 386.689L872.347 386.688C918.631 383.915 967.565 380.984 1019.14 374.477C1117.18 362.107 1212.01 304.197 1290.69 236.922C1369.39 169.636 1432.01 92.9104 1465.6 42.7739L1464.33 41.937C1430.79 91.9774 1368.26 168.602 1289.68 235.794C1211.08 302.997 1116.51 360.691 1018.9 373.006C967.382 379.506 918.505 382.435 872.221 385.208L872.207 385.209C863.598 385.725 855.079 386.235 846.65 386.762C792.909 390.122 742.794 394.158 696.314 404.58C649.823 415.005 606.952 431.822 567.69 460.752C528.429 489.682 492.812 530.7 460.792 589.48ZM446.539 551.171C414.606 609.79 381.553 634.923 347.186 639.905C312.769 644.894 276.781 629.723 238.842 607.094C221.148 596.54 203.068 584.389 184.557 571.948L184.548 571.943L182.664 570.676L180.59 569.282C160.7 555.922 140.316 542.339 119.421 530.173C77.6382 505.844 33.7262 487.126 -12.5358 487.163L-12.491 488.646C33.3558 488.609 76.9735 507.161 118.672 531.441C139.518 543.578 159.862 557.134 179.755 570.496C180.867 571.243 181.977 571.989 183.086 572.735L183.361 572.919L183.73 573.167C202.232 585.602 220.346 597.777 238.079 608.353C276.053 631.004 312.46 646.444 347.45 641.372C382.49 636.292 415.855 610.691 447.882 551.897C479.822 493.264 515.31 452.419 554.372 423.636C593.433 394.854 636.102 378.107 682.441 367.717C728.79 357.324 778.796 353.292 832.536 349.932C840.961 349.406 849.477 348.895 858.084 348.38L858.093 348.379L858.095 348.379L858.097 348.379C904.381 345.606 953.313 342.674 1004.89 336.167C1102.92 323.798 1197.76 265.888 1276.44 198.613C1355.14 131.327 1417.75 54.6011 1451.35 4.46464L1450.07 3.62771C1416.54 53.668 1354.01 130.293 1275.42 197.485C1196.83 264.687 1102.26 322.382 1004.65 334.697C953.129 341.197 904.252 344.125 857.968 346.899L857.962 346.899L857.955 346.899C849.346 347.415 840.826 347.926 832.396 348.453C778.656 351.813 728.541 355.849 682.061 366.271C635.57 376.696 592.699 393.512 553.437 422.443C514.176 451.373 478.559 492.39 446.539 551.171ZM432.286 512.862C400.353 571.481 367.3 596.614 332.933 601.596C298.517 606.585 262.528 591.414 224.589 568.785C206.897 558.232 188.819 546.083 170.31 533.643L170.304 533.639L170.295 533.633L167.994 532.086L166.337 530.973C146.447 517.613 126.063 504.03 105.168 491.863C63.3853 467.535 19.4733 448.817 -26.7887 448.854L-26.7439 450.336C19.1029 450.3 62.7206 468.852 104.419 493.131C125.265 505.269 145.609 518.825 165.502 532.187L166.993 533.189L169.477 534.858C187.979 547.293 206.093 559.467 223.826 570.044C261.8 592.694 298.207 608.135 333.197 603.062C368.237 597.983 401.602 572.381 433.63 513.587C465.569 454.955 501.057 414.11 540.119 385.327C579.18 356.544 621.849 339.798 668.188 329.407C714.538 319.014 764.543 314.983 818.284 311.623C826.708 311.096 835.224 310.586 843.831 310.07L843.841 310.07L843.842 310.07L843.844 310.07C890.128 307.297 939.06 304.365 990.633 297.858C1088.67 285.489 1183.51 227.578 1262.19 160.303C1340.88 93.0175 1403.5 16.2917 1437.1 -33.8447L1435.82 -34.6816C1402.29 15.3587 1339.75 91.9836 1261.17 159.175C1182.57 226.378 1088 284.072 990.396 296.387C938.876 302.888 889.999 305.816 843.715 308.589L843.709 308.59L843.702 308.59C835.093 309.106 826.574 309.616 818.143 310.143C764.403 313.504 714.288 317.539 667.808 327.962C621.317 338.386 578.446 355.203 539.184 384.134C499.923 413.063 464.306 454.081 432.286 512.862ZM318.679 563.286C353.047 558.304 386.1 533.172 418.032 474.552C450.053 415.772 485.67 374.754 524.93 345.824C564.192 316.894 607.064 300.077 653.555 289.652C700.035 279.23 750.149 275.194 803.89 271.834C812.299 271.308 820.797 270.799 829.385 270.285L829.439 270.281L829.461 270.28C875.746 267.507 924.623 264.578 976.143 258.078C1073.75 245.763 1168.32 188.069 1246.92 120.866C1325.5 53.6742 1388.03 -22.9506 1421.57 -72.991L1422.84 -72.154C1389.25 -22.0176 1326.63 54.7082 1247.93 121.994C1169.25 189.269 1074.42 247.179 976.38 259.549C924.805 266.056 875.872 268.988 829.587 271.761L829.561 271.762C820.959 272.277 812.449 272.787 804.03 273.314C750.289 276.674 700.284 280.705 653.934 291.098C607.595 301.488 564.927 318.235 525.866 347.017C486.804 375.8 451.316 416.645 419.376 475.278C387.349 534.072 353.983 559.674 318.944 564.753C283.953 569.825 247.547 554.385 209.572 531.735C191.839 521.158 173.726 508.984 155.223 496.549L153.542 495.419L151.248 493.878C131.356 480.516 111.011 466.96 90.1657 454.822C48.4672 430.542 4.84943 411.99 -40.9973 412.027L-41.0422 410.544C5.21985 410.507 49.1319 429.225 90.9144 453.554C111.809 465.721 132.193 479.303 152.083 492.664C153.249 493.447 154.414 494.23 155.577 495.011L156.042 495.324L156.05 495.33L156.057 495.334C174.566 507.774 192.643 519.923 210.335 530.475C248.275 553.104 284.263 568.275 318.679 563.286ZM403.779 436.243C371.846 494.862 338.793 519.995 304.426 524.977C270.01 529.966 234.021 514.795 196.082 492.166C178.39 481.614 160.313 469.464 141.804 457.025L141.797 457.021L141.789 457.015L141.022 456.5C139.96 455.785 138.895 455.07 137.83 454.354C117.94 440.994 97.556 427.411 76.661 415.245C34.8784 390.916 -9.03359 372.198 -55.2956 372.235L-55.2508 373.718C-9.40402 373.681 34.2137 392.233 75.9123 416.513C96.7578 428.65 117.103 442.206 136.995 455.568C137.84 456.136 138.684 456.703 139.527 457.27L140.97 458.239C159.472 470.675 177.586 482.849 195.319 493.426C233.293 516.076 269.7 531.516 304.691 526.444C339.73 521.364 373.095 495.763 405.123 436.969C437.062 378.336 472.551 337.491 511.612 308.708C550.673 279.926 593.342 263.179 639.681 252.789C686.031 242.396 736.036 238.365 789.777 235.004C798.183 234.479 806.68 233.97 815.268 233.455L815.324 233.452L815.334 233.451C861.618 230.678 910.552 227.746 962.126 221.239C1060.16 208.87 1155 150.96 1233.68 83.6846C1312.38 16.3989 1374.99 -60.3269 1408.59 -110.463L1407.31 -111.3C1373.78 -61.2599 1311.25 15.3649 1232.66 82.5567C1154.07 149.759 1059.5 207.454 961.89 219.769C910.369 226.269 861.492 229.198 815.208 231.971L815.202 231.971L815.178 231.972L815.123 231.976C806.538 232.49 798.043 232.999 789.637 233.525C735.896 236.885 685.781 240.921 639.301 251.343C592.81 261.768 549.939 278.585 510.677 307.515C471.416 336.445 435.799 377.462 403.779 436.243ZM290.173 486.668C324.54 481.686 357.593 456.553 389.526 397.934C421.546 339.153 457.163 298.135 496.424 269.206C535.686 240.275 578.557 223.458 625.048 213.034C671.528 202.611 721.643 198.576 775.383 195.215C783.771 194.691 792.248 194.183 800.813 193.67L800.915 193.664L800.955 193.661C847.239 190.888 896.116 187.96 947.636 181.459C1045.24 169.144 1139.81 111.45 1218.41 44.2474C1296.99 -22.9444 1359.53 -99.5693 1393.06 -149.61L1394.34 -148.773C1360.74 -98.6362 1298.12 -21.9104 1219.43 45.3753C1140.75 112.65 1045.91 170.561 947.873 182.93C896.299 189.437 847.366 192.369 801.082 195.142L801.081 195.142L801.037 195.144C792.441 195.66 783.937 196.169 775.524 196.695C721.783 200.055 671.778 204.086 625.428 214.479C579.089 224.87 536.42 241.616 497.359 270.399C458.297 299.182 422.809 340.027 390.869 398.659C358.842 457.453 325.477 483.055 290.437 488.134C255.447 493.207 219.04 477.766 181.066 455.116C163.333 444.539 145.219 432.365 126.717 419.93L126.492 419.779C125.244 418.94 123.994 418.1 122.742 417.259C102.849 403.897 82.5046 390.341 61.6591 378.203C19.9605 353.924 -23.6572 335.372 -69.504 335.408L-69.5488 333.926C-23.2868 333.889 20.6252 352.607 62.4078 376.935C83.3028 389.102 103.687 402.685 123.577 416.045L124.777 416.852L127.535 418.705L127.543 418.711L127.549 418.715C146.059 431.155 164.136 443.304 181.829 453.857C219.768 476.486 255.756 491.657 290.173 486.668Z" fill="#5B40A7" fill-opacity="0.44"/>
</svg>
